<svg xmlns="http://www.w3.org/2000/svg" xmlns:xlink="http://www.w3.org/1999/xlink" width="164" height="44" viewBox="0 0 164 44">
    <defs>
        <path id="a" d="M0 .2h22.243v39.664H0z"/>
    </defs>
    <g fill="none" fill-rule="evenodd">
        <g transform="translate(0 .699)">
            <mask id="b" fill="#fff">
                <use xlink:href="#a"/>
            </mask>
            <path fill="#00ADEE" d="M21.316 23.956c.195 2.024.297 3.077-1.345 4.81-1.698 1.79-5.978 5.108-10.36 7.637-1.84 1.063-4.333 2.35-6.225 3.038-1.402.506-2.581.72-3.167-.295-.378-.655-.193-1.255.005-1.787C1.747 33.23 6.138 25.525 8.996 20.51c.292-.512.593-1.037.902-1.57C14.3 11.346 20.137 2.048 21.284.557c.166-.216.467-.468.747-.304.228.13.23.404.198.59-.005.034-.074.306-.1.413-1.892 7.676-1.688 15.2-.813 22.7" mask="url(#b)"/>
        </g>
        <path fill="#00ADEE" d="M27.745 27.019c-1.85-.843-2.814-1.282-3.493-3.57-.701-2.365-1.435-7.73-1.435-12.79 0-2.125.132-4.928.482-6.91.263-1.467.668-2.595 1.84-2.595.756 0 1.183.46 1.544.898 2.814 3.384 7.293 11.038 10.206 16.02.297.51.6 1.033.908 1.567 4.378 7.609 9.512 17.314 10.228 19.053.104.252.172.638-.109.8-.228.13-.465-.005-.61-.125-.027-.022-.229-.217-.309-.293-5.702-5.477-12.319-9.062-19.252-12.055M22.483 31.405c1.655-1.18 2.516-1.797 4.838-1.24 2.399.576 7.413 2.623 11.793 5.152 1.84 1.063 4.202 2.578 5.743 3.872 1.14.962 1.914 1.877 1.328 2.891-.378.655-.99.795-1.55.889-4.337.745-13.205.796-18.976.828-.59.003-1.195.004-1.811.003-8.779-.013-19.75-.42-21.615-.669-.27-.035-.638-.17-.638-.493.001-.263.238-.402.414-.467.032-.012.301-.09.407-.12 7.594-2.2 14.007-6.138 20.067-10.646"/>
        <path fill="#6C6E70" d="M62.23 27.552v10.114h-2.87V27.552h-3.228v-2.357h9.328v2.357zM72.592 35.377c.25-.09.427-.25.53-.479.103-.228.155-.563.155-1.007 0-.445-.052-.78-.155-1.009a.885.885 0 0 0-.538-.477c-.256-.092-.63-.138-1.12-.138h-1.503v3.246h1.504c.5 0 .877-.044 1.127-.136zm-.282-5.237a.781.781 0 0 0 .445-.435c.084-.205.128-.513.128-.923 0-.41-.044-.718-.128-.923a.778.778 0 0 0-.445-.434c-.21-.087-.52-.13-.93-.13h-1.419v2.974h1.401c.421 0 .738-.044.948-.129zm-.64-4.945c2.596 0 3.895 1.11 3.895 3.331 0 .798-.183 1.421-.546 1.87-.365.45-.883.699-1.555.744.843.046 1.494.32 1.956.82.46.501.691 1.202.691 2.1 0 2.405-1.457 3.606-4.373 3.606h-4.544V25.195h4.476zM78.981 36.248c-.945-1.06-1.417-2.659-1.417-4.8 0-4.283 1.897-6.424 5.688-6.424.969 0 1.846.136 2.632.41l-.53 2.289c-.535-.285-1.18-.428-1.93-.428-.809 0-1.422.118-1.838.351-.416.234-.708.643-.878 1.23-.172.587-.258 1.444-.258 2.572 0 1.116.084 1.962.248 2.536.165.576.456.977.872 1.204.416.228 1.016.343 1.802.343.888 0 1.634-.177 2.238-.53l.513 2.34c-.831.331-1.788.496-2.871.496-1.902 0-3.325-.53-4.27-1.589M62.232 11.003c0-.66-.056-1.175-.166-1.542-.11-.365-.291-.626-.541-.783-.249-.158-.6-.236-1.053-.236-.431 0-.765.078-1.003.236-.238.157-.41.418-.515.783-.103.367-.156.881-.156 1.542v3.347c0 .663.053 1.175.156 1.542.105.365.277.628.515.784.238.158.572.235 1.003.235.452 0 .804-.077 1.053-.235.25-.156.43-.419.54-.784.111-.367.167-.88.167-1.542v-3.347zm7.319-3.606c.65.779.975 1.917.975 3.415v3.067c0 1.893-.307 3.578-.924 5.055h-2.545c.56-1.593.837-3.278.837-5.055v-3.05c0-.871-.113-1.486-.338-1.846-.228-.361-.615-.54-1.16-.54-.558 0-.952.182-1.185.548-.233.366-.348.979-.348 1.839v3.537c0 1.58-.37 2.768-1.107 3.564-.739.796-1.833 1.194-3.284 1.194-1.43 0-2.51-.401-3.242-1.202-.732-.802-1.097-1.987-1.097-3.556v-3.38c0-1.556.353-2.74 1.061-3.546.71-.808 1.743-1.211 3.103-1.211.824 0 1.509.156 2.057.47.546.314.928.772 1.15 1.376.313-.638.73-1.106 1.245-1.403.517-.296 1.17-.443 1.96-.443 1.244 0 2.19.388 2.842 1.167zM80.554 7.43c.739.804 1.107 1.988 1.107 3.556v2.893c0 1.894-.307 3.578-.924 5.055h-2.578c.558-1.593.837-3.278.837-5.055v-2.876c0-.66-.053-1.175-.158-1.54-.105-.367-.277-.629-.513-.786-.239-.157-.574-.235-1.003-.235-.43 0-.764.078-1.003.235-.238.157-.408.419-.513.785-.105.366-.157.88-.157 1.541v2.86c0 1.764.28 3.455.836 5.07h-2.578c-.617-1.51-.925-3.189-.925-5.037v-2.91c0-1.568.367-2.752 1.098-3.555.733-.801 1.813-1.202 3.242-1.202 1.417 0 2.495.4 3.232 1.202M89.441 16.51c.274-.313.41-.813.41-1.498 0-.686-.136-1.185-.41-1.499-.272-.313-.71-.471-1.314-.471-.581 0-1.005.158-1.274.471-.266.314-.4.813-.4 1.5 0 .684.136 1.184.41 1.497.272.315.7.47 1.28.47.594 0 1.026-.155 1.298-.47m3.077-1.48c0 2.729-1.458 4.095-4.374 4.095-2.904 0-4.356-1.366-4.356-4.096 0-2.392 1.103-3.746 3.31-4.06v-.698c0-.266-.073-.49-.218-.67-.146-.18-.398-.422-.758-.724a4.655 4.655 0 0 1-.514-.487 1.579 1.579 0 0 1-.28-.514c-.075-.215-.112-.502-.112-.862v-.593h2.7V6.7c0 .244.063.445.184.601.122.158.333.358.637.602.359.28.62.561.784.845.162.285.244.66.244 1.124v1.204c1.835.451 2.753 1.77 2.753 3.954M102.303 7.43c.737.804 1.106 1.988 1.106 3.556v2.893c0 1.894-.308 3.578-.923 5.055h-2.58c.56-1.593.837-3.278.837-5.055v-2.876c0-.66-.052-1.175-.156-1.54-.105-.367-.277-.629-.515-.786-.239-.157-.573-.235-1.003-.235-.43 0-.762.078-1.001.235-.238.157-.41.419-.515.785-.103.366-.156.88-.156 1.541v2.86c0 1.764.278 3.455.837 5.07h-2.58c-.615-1.51-.923-3.189-.923-5.037v-2.91c0-1.568.366-2.752 1.098-3.555.731-.801 1.812-1.202 3.24-1.202 1.419 0 2.496.4 3.234 1.202M105.866 6.421h2.666v8.573c0 .698.145 1.202.436 1.516.29.315.76.471 1.41.471.652 0 1.123-.153 1.414-.461.29-.308.435-.811.435-1.507a2.4 2.4 0 0 0-.13-.803 8.316 8.316 0 0 0-.394-.888 7.999 7.999 0 0 1-.46-1.09 3.514 3.514 0 0 1-.15-1.071v-.26h2.667c.011.335.06.637.15.905.086.267.222.604.407 1.01.199.465.343.845.437 1.142.092.296.139.653.139 1.071 0 2.73-1.504 4.096-4.514 4.096-3.008 0-4.513-1.372-4.513-4.112V6.42zM124.574 7.43c.737.804 1.105 1.988 1.105 3.556v2.893c0 1.894-.307 3.578-.922 5.055h-2.58c.558-1.593.837-3.278.837-5.055v-2.876c0-.66-.053-1.175-.156-1.54-.105-.367-.277-.629-.515-.786-.239-.157-.574-.235-1.003-.235-.43 0-.763.078-1.001.235-.238.157-.41.419-.516.785-.103.366-.155.88-.155 1.541v2.86c0 1.764.278 3.455.837 5.07h-2.58c-.615-1.51-.923-3.189-.923-5.037v-2.91c0-1.568.365-2.752 1.097-3.555.732-.801 1.813-1.202 3.241-1.202 1.418 0 2.496.4 3.234 1.202M137.053 11.982c.371-.428.557-1.088.557-1.98 0-.914-.186-1.58-.557-1.997-.372-.419-.94-.626-1.707-.626-.766 0-1.328.207-1.689.626-.36.416-.54 1.083-.54 1.997 0 .903.183 1.567.55 1.989.365.424.93.635 1.697.635.754 0 1.317-.215 1.689-.644m6.26 1.62c.28.54.42 1.15.42 1.836 0 1.213-.423 2.13-1.27 2.752-.845.624-1.966.935-3.361.935-1.338 0-2.412-.279-3.224-.84-.81-.56-1.218-1.326-1.218-2.299 0-.251.04-.496.12-.737l1.252.156a2.978 2.978 0 0 0-.05.548c0 .698.262 1.205.789 1.527.525.32 1.303.48 2.33.48 1.179 0 2.02-.196 2.522-.584.503-.39.754-1.035.754-1.938 0-.778-.154-1.378-.462-1.8-.309-.424-.818-.635-1.527-.635h-.102v-1.166h.53c.71 0 1.213-.174 1.511-.523.296-.349.446-.917.446-1.707 0-1.485-.64-2.228-1.922-2.228-.629 0-1.105.18-1.431.54-.326.36-.489.865-.489 1.518v.565c0 1.28-.318 2.23-.952 2.847-.635.617-1.507.926-2.615.926-1.052 0-1.91-.312-2.573-.934-.663-.624-.994-1.57-.994-2.84 0-1.279.328-2.227.986-2.846.657-.617 1.517-.925 2.581-.925 1.417 0 2.372.553 2.864 1.663.25-.605.61-1.035 1.08-1.287.469-.251 1.04-.376 1.715-.376 1.075 0 1.855.328 2.34.985.487.658.73 1.473.73 2.444 0 .697-.186 1.316-.558 1.852-.37.537-.934.88-1.69 1.03.699.17 1.187.524 1.467 1.061M152.05 6.683c.56.303 1.007.736 1.338 1.295.331.56.496 1.219.496 1.972v5.283c0 1.234-.337 2.193-1.01 2.872-.675.681-1.613 1.02-2.814 1.02-.754 0-1.417-.148-1.989-.445a3.231 3.231 0 0 1-1.32-1.227 3.345 3.345 0 0 1-.463-1.74c0-.732.154-1.361.463-1.887l1.2.274a4.373 4.373 0 0 0-.308 1.596c0 .765.191 1.335.574 1.705.383.373.997.559 1.843.559.938 0 1.59-.212 1.956-.635.365-.423.548-1.143.548-2.16v-5.146c0-.948-.2-1.623-.6-2.023-.4-.401-.978-.6-1.732-.6-1.497 0-2.246.673-2.246 2.023 0 .468.073.92.222 1.355l-1.251.273c-.218-.432-.326-.96-.326-1.576 0-.607.165-1.156.497-1.647.332-.491.774-.88 1.33-1.166a3.81 3.81 0 0 1 1.774-.428c.651 0 1.258.15 1.818.453M163.034 7.343c.646.731.969 1.836.969 3.311v2.229c0 1.292-.101 2.453-.3 3.481-.201 1.03-.496 1.886-.884 2.573h-1.32c.8-1.372 1.2-3.396 1.2-6.071V10.74c0-.858-.076-1.52-.23-1.99-.156-.47-.407-.804-.756-1.003-.35-.2-.831-.3-1.45-.3-.616 0-1.1.1-1.448.3-.349.199-.6.534-.756 1.004-.153.468-.23 1.131-.23 1.99v2.125c0 1.257.117 2.422.352 3.49.233 1.07.517 1.93.848 2.581h-1.354c-.32-.629-.598-1.495-.832-2.599a16.59 16.59 0 0 1-.351-3.455v-2.246c0-1.475.326-2.576.977-3.302.65-.725 1.583-1.088 2.795-1.088 1.2 0 2.124.365 2.77 1.096M98.197 31.303c.34-.155.583-.413.726-.778.142-.364.213-.893.213-1.588 0-.695-.071-1.226-.213-1.59a1.364 1.364 0 0 0-.726-.777c-.342-.154-.831-.231-1.47-.231h-2.39v5.194h2.374c.648 0 1.144-.078 1.486-.23m2.237-2.366c0 2.505-1.218 3.758-3.655 3.758h-2.443v4.972h-1.35V25.195h3.81c2.426 0 3.638 1.247 3.638 3.742M105.577 26.766l-2.273 6.732h4.528l-2.255-6.732zm-2.649 7.876l-1.024 3.024h-1.435l4.475-12.472h1.283l4.475 12.472h-1.47l-1.007-3.024h-5.297zM110.02 25.195h1.519l3.212 6.268 3.212-6.268h1.469l-4.083 7.619v4.853h-1.247v-4.853z"/>
    </g>
</svg>
