<?xml version="1.0" standalone="no"?>
<!DOCTYPE svg PUBLIC "-//W3C//DTD SVG 1.1//EN" "http://www.w3.org/Graphics/SVG/1.1/DTD/svg11.dtd" >
<svg xmlns="http://www.w3.org/2000/svg" xmlns:xlink="http://www.w3.org/1999/xlink" version="1.1">
<metadata>
Created by FontForge 20161003 at Thu May  3 14:46:18 2018
 By www-data
(c) 1992, 1994, 1997, 2000, 2004 Adobe Systems Incorporated. All rights reserved.
</metadata>
<defs>
<font id="MyriadGEOMtavruliMedium" horiz-adv-x="300" >
  <font-face 
    font-family="MyriadGEOMtavruliMedium"
    font-weight="500"
    font-stretch="normal"
    units-per-em="1000"
    panose-1="2 11 5 3 3 4 3 2 2 4"
    ascent="750"
    descent="-250"
    x-height="486"
    cap-height="674"
    bbox="-159 -250 1169 964"
    underline-thickness="50"
    underline-position="-150"
    unicode-range="U+0020-FB02"
  />
<missing-glyph horiz-adv-x="500" 
d="M500 700v-700h-500v700h500zM80 650l170 -255l170 255h-340zM220 350l-170 255v-510zM450 605l-170 -255l170 -255v510zM250 305l-170 -255h340z" />
    <glyph glyph-name="f_f" unicode="ff" horiz-adv-x="605" 
d="M377 404h-187v-404h-109v404h-67v82h67v14q0 108 54 162q48 48 132 48q35 0 67 -15l-19 -81q-24 10 -47 10q-79 0 -79 -118v-20h188v21q0 52 14.5 95.5t44.5 72.5q24 23 56.5 34.5t66.5 11.5q42 0 77 -13l-10 -84q-28 10 -54 10q-46 0 -66.5 -34t-20.5 -89v-25h111v-82
h-110v-404h-109v404z" />
    <glyph glyph-name="f_f_i" unicode="ffi" horiz-adv-x="843" 
d="M658 627q-26 7 -54 7q-63 0 -90 -34.5t-27 -92.5v-21h287v-486h-109v404h-177v-404h-109v404h-189v-404h-109v404h-67v82h67v15q0 48 14.5 89.5t44.5 70.5q49 49 132 49q22 0 45 -6t40 -13l-27 -80q-28 14 -55 14q-36 0 -57 -23q-29 -30 -29 -98v-18h190v24
q0 98 60.5 154.5t165.5 56.5q34 0 69 -8t57 -21l-29 -82q-18 10 -44 17z" />
    <glyph glyph-name="f_f_l" unicode="ffl" horiz-adv-x="843" 
d="M277 625q-38 0 -59 -23q-29 -30 -29 -97v-19h190v21q0 48 18.5 91t51.5 72q62 51 166 51q45 0 86.5 -9t72.5 -26v-686h-109v626q-24 12 -67 12q-58 0 -84.5 -36t-26.5 -94v-22h106v-82h-105v-404h-109v404h-189v-404h-109v404h-67v82h67v11q0 108 58 163q25 24 61 37
t79 13q36 0 79 -16l-26 -82q-28 13 -55 13z" />
    <glyph glyph-name="f_i" unicode="fi" horiz-adv-x="545" 
d="M81 404h-67v82h67v24q0 98 60.5 154.5t165.5 56.5q36 0 73 -9t57 -22l-27 -83q-18 12 -45.5 19.5t-59.5 7.5q-62 0 -89 -34.5t-27 -92.5v-21h287v-486h-109v404h-177v-404h-109v404z" />
    <glyph glyph-name="f_l" unicode="fl" horiz-adv-x="545" 
d="M81 404h-67v82h67v21q0 48 18 91t52 72q62 51 165 51q46 0 87.5 -9t72.5 -26v-686h-109v626q-24 12 -67 12q-58 0 -84.5 -36t-26.5 -94v-22h105v-82h-104v-404h-109v404z" />
    <glyph glyph-name=".notdef" horiz-adv-x="500" 
d="M500 700v-700h-500v700h500zM80 650l170 -255l170 255h-340zM220 350l-170 255v-510zM450 605l-170 -255l170 -255v510zM250 305l-170 -255h340z" />
    <glyph glyph-name=".null" horiz-adv-x="0" 
 />
    <glyph glyph-name="nonmarkingreturn" horiz-adv-x="333" 
 />
    <glyph glyph-name="space" unicode=" " horiz-adv-x="209" 
 />
    <glyph glyph-name="exclam" unicode="!" horiz-adv-x="243" 
d="M63 674h117l-17 -471h-83zM71.5 9.5q-19.5 20.5 -19.5 51.5t19.5 51t49.5 20q31 0 50 -20t19 -51t-19 -51.5t-50 -20.5q-30 0 -49.5 20.5z" />
    <glyph glyph-name="quotedbl" unicode="&#x22;" horiz-adv-x="357" 
d="M130 435h-66l-18 250h103zM293 435h-65l-19 250h103z" />
    <glyph glyph-name="numbersign" unicode="#" horiz-adv-x="515" 
d="M119 190h-82v70h93l18 134h-86v71h97l25 185h69l-25 -185h99l26 185h69l-25 -185h81v-71h-92l-17 -134h85v-70h-96l-26 -190h-70l26 190h-100l-25 -190h-70zM317 394h-99l-18 -134h99z" />
    <glyph glyph-name="dollar" unicode="$" horiz-adv-x="527" 
d="M220 13q-45 1 -87.5 13t-70.5 30l26 84q31 -19 70 -31t81 -12q50 0 80.5 23.5t30.5 62.5q0 36 -26.5 61t-83.5 47q-85 32 -127.5 72t-42.5 104t42 109t115 58v99h74v-94q74 -2 135 -34l-27 -82q-62 34 -132 34q-50 0 -74.5 -22.5t-24.5 -53.5q0 -33 27.5 -55t95.5 -50
q83 -32 121 -75t38 -109q0 -64 -43.5 -113t-121.5 -62v-103h-75v99z" />
    <glyph glyph-name="percent" unicode="%" horiz-adv-x="821" 
d="M310.5 609q42.5 -52 42.5 -142q0 -66 -22 -112t-59.5 -69.5t-82.5 -23.5q-44 0 -80.5 22.5t-58 67t-21.5 106.5q0 61 21.5 107t59 71t84.5 25q74 0 116.5 -52zM567 661h65l-380 -672h-64zM133.5 558.5q-20.5 -39.5 -20.5 -101.5q0 -59 21 -95.5t58 -36.5q38 0 57.5 37
t19.5 100q0 61 -19 98.5t-59 37.5q-37 0 -57.5 -39.5zM748.5 340q42.5 -52 42.5 -142q0 -66 -22 -112.5t-59 -70t-82 -23.5q-44 0 -80.5 22.5t-58 67t-21.5 106.5t21.5 108t59 71t84.5 25q73 0 115.5 -52zM572 289.5q-20 -39.5 -20 -101.5q0 -58 21 -95.5t57 -37.5
q39 0 58.5 37t19.5 101q0 61 -19 98.5t-59 37.5q-38 0 -58 -39.5z" />
    <glyph glyph-name="ampersand" unicode="&#x26;" horiz-adv-x="629" 
d="M478 19l-38 41q-80 -71 -193 -71q-68 0 -117 26t-74 69.5t-25 94.5q0 65 35 113.5t96 81.5v4q-26 31 -40.5 66.5t-14.5 70.5q0 43 21 82t62.5 63.5t98.5 24.5q69 0 114.5 -41t45.5 -107q0 -54 -34 -97t-109 -81v-3l51 -59q71 -81 96 -108q44 68 62 186h99
q-28 -166 -102 -252l113 -123h-128zM226.5 587.5q-20.5 -25.5 -20.5 -62.5q0 -30 12.5 -57t36.5 -56q51 30 75.5 57.5t24.5 63.5q0 32 -18.5 56t-53.5 24q-36 0 -56.5 -25.5zM334 84q32 14 54 38q-72 75 -177 196q-76 -49 -76 -122q0 -54 36 -90t93 -36q38 0 70 14z" />
    <glyph glyph-name="quotesingle" unicode="'" horiz-adv-x="194" 
d="M130 435h-66l-18 250h103z" />
    <glyph glyph-name="parenleft" unicode="(" horiz-adv-x="294" 
d="M152 285q0 -232 117 -404h-81q-125 169 -125 405q1 238 125 407h81q-117 -168 -117 -408z" />
    <glyph glyph-name="parenright" unicode=")" horiz-adv-x="294" 
d="M143 288q0 234 -118 405h81q125 -167 125 -406q0 -235 -125 -406h-81q118 172 118 407z" />
    <glyph glyph-name="asterisk" unicode="*" horiz-adv-x="428" 
d="M244 520v-2l154 24v-79l-154 21v-2l100 -121l-72 -42l-59 145h-2l-62 -145l-67 41l99 123v2l-151 -22v79l150 -23v2l-98 123l70 40l60 -143h2l60 144l69 -39z" />
    <glyph glyph-name="plus" unicode="+" horiz-adv-x="596" 
d="M336 303h220v-72h-220v-231h-76v231h-220v72h220v229h76v-229z" />
    <glyph glyph-name="comma" unicode="," horiz-adv-x="225" 
d="M48 1.5q18 71.5 27 130.5l117 10q-20 -68 -49.5 -141t-55.5 -116l-76 -7q19 52 37 123.5z" />
    <glyph glyph-name="hyphen" unicode="-" horiz-adv-x="312" 
d="M282 229h-252v77h252v-77z" />
    <glyph glyph-name="period" unicode="." horiz-adv-x="225" 
d="M70.5 9.5q-19.5 20.5 -19.5 52.5t19.5 52.5t50.5 20.5t50 -20.5t19 -52.5t-19 -52.5t-51 -20.5q-30 0 -49.5 20.5z" />
    <glyph glyph-name="slash" unicode="/" horiz-adv-x="339" 
d="M262 685h79l-258 -725h-78z" />
    <glyph glyph-name="zero" unicode="0" horiz-adv-x="527" 
d="M434.5 572q57.5 -89 57.5 -241q0 -162 -60.5 -252t-172.5 -90q-70 0 -120 41t-77 116t-27 177q0 103 28 179.5t81 117.5t124 41q109 0 166.5 -89zM177 511.5q-33 -65.5 -33 -188.5q0 -120 32 -185t88 -65q59 0 89 66t30 188q0 119 -30 184.5t-89 65.5q-54 0 -87 -65.5z
" />
    <glyph glyph-name="one" unicode="1" horiz-adv-x="527" 
d="M234 550l-117 -60l-19 83l152 77h92v-650h-106v550h-2z" />
    <glyph glyph-name="two" unicode="2" horiz-adv-x="527" 
d="M44 67l74 70q86 80 134.5 132.5t73 97t24.5 88.5q0 51 -29 84t-92 33q-69 0 -139 -55l-33 78q38 30 88 48t106 18q68 0 115 -26.5t70.5 -71t23.5 -96.5q0 -55 -25 -107t-68.5 -102t-113.5 -117l-55 -49v-2h276v-90h-430v67z" />
    <glyph glyph-name="three" unicode="3" horiz-adv-x="527" 
d="M132.5 89q39.5 -13 80.5 -13q70 0 104 33t34 78q0 59 -45.5 89.5t-110.5 30.5h-53v80h52q53 1 94.5 26t41.5 73q0 38 -27.5 63t-80.5 25q-36 0 -72 -12.5t-60 -29.5l-26 79q30 21 79 35.5t101 14.5q63 0 107.5 -21.5t66.5 -57.5t22 -78q0 -52 -30 -92t-89 -61v-2
q62 -12 102.5 -56t40.5 -108q0 -54 -29 -99t-84.5 -71t-132.5 -26q-54 0 -101 13.5t-76 31.5l26 83q26 -15 65.5 -28z" />
    <glyph glyph-name="four" unicode="4" horiz-adv-x="527" 
d="M315 170h-297v71l275 409h125v-396h87v-84h-87v-170h-103v170zM315 446q0 60 4 109h-4q-33 -65 -56 -105l-135 -194v-2h191v192z" />
    <glyph glyph-name="five" unicode="5" horiz-adv-x="527" 
d="M198 559l-21 -145q28 4 49 4q89 0 150 -39q41 -25 65 -67t24 -99q0 -62 -32 -113.5t-90 -81t-133 -29.5q-51 0 -96 11.5t-72 27.5l24 83q23 -14 61.5 -24.5t79.5 -10.5q61 0 103.5 34.5t42.5 92.5q0 61 -45.5 96.5t-139.5 35.5q-46 0 -90 -7l43 322h326v-91h-249z" />
    <glyph glyph-name="six" unicode="6" horiz-adv-x="527" 
d="M366 569q-97 -13 -153 -70t-68 -136h3q25 31 63 49.5t87 18.5q57 0 102 -26t70.5 -73.5t25.5 -111.5q0 -61 -28 -114t-79 -85t-117 -32q-74 0 -128 35.5t-82.5 98.5t-28.5 145q0 92 30 167t81 125q88 84 223 96q35 4 63 4v-87q-29 2 -64 -4zM353.5 111.5
q31.5 39.5 31.5 102.5q0 62 -32.5 99.5t-88.5 37.5q-36 0 -67 -20.5t-47 -52.5q-9 -13 -9 -39q2 -74 35.5 -120.5t94.5 -46.5q51 0 82.5 39.5z" />
    <glyph glyph-name="seven" unicode="7" horiz-adv-x="527" 
d="M481 579l-278 -579h-115l278 558v2h-312v90h427v-71z" />
    <glyph glyph-name="eight" unicode="8" horiz-adv-x="527" 
d="M139.5 13.5q-51.5 24.5 -78 65t-26.5 88.5q0 59 33 102t92 68l-1 3q-50 24 -75 62t-25 83q0 52 27.5 92t75.5 62t108 22q64 0 108.5 -23t66.5 -60t22 -79q0 -45 -24.5 -84t-77.5 -65v-3q59 -24 93 -66t34 -100q0 -57 -30 -100.5t-82.5 -67.5t-118.5 -24
q-70 0 -121.5 24.5zM189 557.5q-27 -27.5 -27 -67.5q0 -41 29.5 -67.5t84.5 -41.5q39 13 63.5 40.5t24.5 65.5q0 40 -25 69t-75 29q-48 0 -75 -27.5zM349 96q32 29 32 75q0 51 -33.5 81.5t-96.5 48.5q-51 -14 -77.5 -47t-26.5 -78t32.5 -77t84.5 -32q53 0 85 29z" />
    <glyph glyph-name="nine" unicode="9" horiz-adv-x="527" 
d="M115 77q19 0 48 3q80 10 134 55q67 57 84 156h-3q-52 -62 -145 -62q-57 0 -101.5 25.5t-69.5 71.5t-25 103q0 62 29.5 115t82 85t118.5 32q70 0 121 -35t77.5 -97.5t26.5 -143.5q0 -101 -30 -177t-82 -126q-40 -38 -94.5 -60.5t-114.5 -27.5q-43 -6 -77 -4v88q7 -1 21 -1
zM178.5 539q-32.5 -40 -32.5 -103q0 -56 31 -91.5t83 -35.5q38 0 67.5 16.5t45.5 43.5q8 13 8 34q0 78 -30 127t-90 49q-50 0 -82.5 -40z" />
    <glyph glyph-name="colon" unicode=":" horiz-adv-x="225" 
d="M70.5 352.5q-19.5 20.5 -19.5 51.5q0 32 19.5 52t50.5 20t49.5 -20t19.5 -52q0 -31 -19 -51.5t-51 -20.5q-30 0 -49.5 20.5zM70.5 9.5q-19.5 20.5 -19.5 51.5q0 32 19.5 52t50.5 20q30 0 49 -20t20 -52q0 -31 -19 -51.5t-51 -20.5q-30 0 -49.5 20.5z" />
    <glyph glyph-name="semicolon" unicode=";" horiz-adv-x="225" 
d="M78.5 352q-19.5 20 -19.5 50q0 33 19 53.5t50 20.5t49.5 -20t19.5 -52q0 -31 -19 -51.5t-50 -20.5q-30 0 -49.5 20zM49 1.5q18 71.5 27 130.5l116 10q-21 -69 -50.5 -141.5t-55.5 -115.5l-74 -7q19 52 37 123.5z" />
    <glyph glyph-name="less" unicode="&#x3c;" horiz-adv-x="596" 
d="M533 532v-81l-382 -184v-2l382 -184v-81l-470 234v64z" />
    <glyph glyph-name="equal" unicode="=" horiz-adv-x="596" 
d="M40 404h516v-71h-516v71zM40 204h516v-71h-516v71z" />
    <glyph glyph-name="greater" unicode="&#x3e;" horiz-adv-x="596" 
d="M63 0v81l387 184v2l-387 184v81l470 -232v-68z" />
    <glyph glyph-name="question" unicode="?" horiz-adv-x="419" 
d="M138 226q-1 6 -1 17q0 76 62 151q34 40 50 68.5t16 57.5q0 35 -22.5 55.5t-64.5 21.5q-26 0 -54 -8.5t-47 -22.5l-27 79q26 18 67 29t84 11q86 0 130.5 -43.5t44.5 -106.5q0 -48 -21 -84.5t-64 -87.5q-31 -36 -44 -69.5t-11 -70.5v-23h-96zM136.5 9.5
q-19.5 20.5 -19.5 51.5t19.5 51.5t49.5 20.5q31 0 50 -20t20 -52q0 -31 -19.5 -51.5t-50.5 -20.5q-30 0 -49.5 20.5z" />
    <glyph glyph-name="at" unicode="@" horiz-adv-x="748" 
d="M447.5 -95q-42.5 -9 -95.5 -9q-83 0 -153 38.5t-111.5 109.5t-41.5 165q0 103 46 191t129.5 140t192.5 52q86 0 152.5 -37.5t104 -103t37.5 -148.5q0 -72 -24.5 -126t-66 -83t-91.5 -29q-34 0 -56 21.5t-22 62.5h-3q-51 -84 -137 -84q-47 0 -78 34.5t-31 92.5
q0 62 30 116.5t84 87t122 32.5q31 0 60.5 -6t50.5 -16l-33 -183q-6 -30 -6 -51q0 -52 35 -52q25 0 49 21t39.5 61.5t15.5 95.5q0 71 -28.5 126t-82.5 86t-130 31q-80 0 -148 -40t-108 -114t-40 -171q0 -82 33 -142.5t91 -92.5t133 -32q88 0 149 34l16 -48q-41 -21 -83.5 -30
zM421 366q-39 0 -72.5 -23t-53 -61.5t-19.5 -82.5q0 -33 15.5 -52t45.5 -19q37 0 69 39t40 86l19 107q-18 6 -44 6z" />
    <glyph glyph-name="A" unicode="A" horiz-adv-x="627" 
d="M135 0h-113l222 674h136l223 -674h-116l-66 199h-223zM344 459q-15 46 -35 126h-2l-7 -28q-18 -73 -26 -97l-57 -178h185z" />
    <glyph glyph-name="B" unicode="B" horiz-adv-x="563" 
d="M149 675q47 4 95 4q67 0 112 -10.5t78 -34.5q30 -20 47 -51.5t17 -72.5q0 -48 -29.5 -87.5t-83.5 -58.5v-2q58 -15 98 -58.5t40 -109.5q0 -83 -62 -138q-35 -32 -95 -47t-148 -15q-85 0 -145 8v663q29 6 76 10zM250 395q65 0 102 28.5t37 74.5q0 51 -35.5 75t-99.5 24
q-50 0 -73 -5v-197h69zM249 77q69 0 114 28.5t45 90.5q0 60 -45 89.5t-117 29.5h-65v-235q16 -3 68 -3z" />
    <glyph glyph-name="C" unicode="C" horiz-adv-x="585" 
d="M479 -1q-47 -9 -104 -9q-102 0 -178.5 41t-118.5 117.5t-42 181.5q0 107 46 187.5t127 124t184 43.5q56 0 98 -9t64 -21l-24 -88q-59 27 -134 27q-73 0 -129 -30t-87 -88.5t-31 -140.5q0 -117 65 -185.5t180 -68.5q38 0 75 7t62 19l20 -86q-26 -13 -73 -22z" />
    <glyph glyph-name="D" unicode="D" horiz-adv-x="676" 
d="M265 679q93 0 160.5 -20t113.5 -60q101 -87 101 -246q0 -85 -26.5 -152.5t-75.5 -113.5t-126.5 -69.5t-175.5 -23.5q-96 0 -163 8v663q94 14 192 14zM258 80q129 0 198 70t69 202q0 115 -65 178.5t-187 63.5q-53 0 -91 -8v-502q25 -4 76 -4z" />
    <glyph glyph-name="E" unicode="E" horiz-adv-x="506" 
d="M182 306v-216h287v-90h-396v674h381v-90h-272v-189h257v-89h-257z" />
    <glyph glyph-name="F" unicode="F" horiz-adv-x="500" 
d="M452 674v-90h-270v-201h250v-89h-250v-294h-109v674h379z" />
    <glyph glyph-name="G" unicode="G" horiz-adv-x="658" 
d="M389 -7q-165 0 -259 90q-44 42 -69 106t-25 139q0 104 45.5 184t129.5 124.5t196 44.5q56 0 102 -9.5t73 -22.5l-25 -88q-65 29 -152 29q-76 0 -133.5 -30t-89.5 -87t-32 -136t30.5 -136.5t85.5 -88t128 -30.5q69 0 103 15v181h-126v87h231v-335q-108 -37 -213 -37z" />
    <glyph glyph-name="H" unicode="H" horiz-adv-x="664" 
d="M182 400h301v274h109v-674h-109v305h-301v-305h-109v674h109v-274z" />
    <glyph glyph-name="I" unicode="I" horiz-adv-x="254" 
d="M182 0h-109v674h109v-674z" />
    <glyph glyph-name="J" unicode="J" horiz-adv-x="384" 
d="M317 674v-443q0 -130 -56.5 -186t-159.5 -56q-24 0 -52 4.5t-47 11.5l15 88q33 -12 74 -12q59 0 88.5 34t29.5 122v437h108z" />
    <glyph glyph-name="K" unicode="K" horiz-adv-x="566" 
d="M181 674v-316h3q23 35 51 73l188 243h134l-237 -286l254 -388h-128l-203 318l-62 -73v-245h-108v674h108z" />
    <glyph glyph-name="L" unicode="L" horiz-adv-x="485" 
d="M182 674v-583h281v-91h-390v674h109z" />
    <glyph glyph-name="M" unicode="M" horiz-adv-x="818" 
d="M633 570h-3q-35 -124 -82 -258l-107 -306h-83l-97 301q-46 142 -72 263h-2q-7 -190 -13 -292l-16 -278h-102l45 674h142l99 -292q47 -153 64 -232h3q29 116 69 232l104 292h140l40 -674h-106l-15 283q-9 202 -8 287z" />
    <glyph glyph-name="N" unicode="N" horiz-adv-x="669" 
d="M73 674h122l191 -310q69 -112 117 -223l3 1q-11 110 -11 278v254h101v-674h-112l-191 315q-81 136 -123 229l-3 -1q7 -120 7 -283v-260h-101v674z" />
    <glyph glyph-name="O" unicode="O" horiz-adv-x="698" 
d="M517 641q70 -44 107.5 -121.5t37.5 -175.5q0 -111 -41.5 -191.5t-114 -122t-163.5 -41.5t-161 43.5t-108 121.5t-38 177q0 104 40.5 184.5t112.5 125t165 44.5t163 -44zM242 561.5q-45 -35.5 -68 -95t-23 -132.5q0 -71 24 -129.5t68.5 -93t105.5 -34.5q62 0 106.5 34.5
t68 94.5t23.5 134q0 67 -22.5 125.5t-67 95t-107.5 36.5t-108 -35.5z" />
    <glyph glyph-name="P" unicode="P" horiz-adv-x="548" 
d="M253 679q131 0 194 -55q30 -25 47 -63t17 -83q0 -94 -56 -150q-35 -36 -89.5 -54.5t-120.5 -18.5q-41 0 -64 5v-260h-108v666q80 13 180 13zM246 341q73 0 114.5 35t41.5 98q0 59 -38.5 90t-106.5 31q-52 0 -76 -7v-241q25 -6 65 -6z" />
    <glyph glyph-name="Q" unicode="Q" horiz-adv-x="698" 
d="M375 -21q-30 10 -43 10q-81 4 -148.5 44t-107.5 116t-40 181t40 185.5t112.5 125t166.5 44.5q93 0 162.5 -44.5t107 -122t37.5 -174.5q0 -120 -50 -202.5t-131 -112.5v-4q70 -19 186 -42l-32 -88q-150 42 -260 84zM455 111.5q45 34.5 68.5 94.5t23.5 134
q0 68 -22.5 126.5t-67 94.5t-106.5 36q-64 0 -109 -36.5t-68 -97t-23 -133.5q0 -69 24 -127t68.5 -92t104.5 -34q62 0 107 34.5z" />
    <glyph glyph-name="R" unicode="R" horiz-adv-x="556" 
d="M252 679q72 0 120.5 -13t81.5 -41q27 -23 41.5 -57t14.5 -76q0 -63 -35 -107.5t-89 -62.5v-3q71 -25 96 -132q6 -22 8 -33q32 -128 45 -154h-112q-13 23 -46 160q-14 67 -42.5 94t-83.5 29h-70v-283h-108v665q70 14 179 14zM260 364q66 0 104 31.5t38 85.5q0 57 -37.5 86
t-103.5 30q-50 0 -80 -7v-226h79z" />
    <glyph glyph-name="S" unicode="S" horiz-adv-x="509" 
d="M141 92q42 -12 86 -12q61 0 95 27.5t34 73.5q0 42 -27.5 69t-94.5 52q-88 31 -134 77.5t-46 115.5q0 54 28.5 97.5t80.5 68t121 24.5q91 0 157 -33l-28 -89q-22 13 -56 22.5t-76 9.5q-58 0 -87.5 -26.5t-29.5 -62.5q0 -40 29.5 -65t101.5 -53q89 -34 131 -80.5t42 -118.5
q0 -55 -28 -100t-84 -72t-136 -27q-50 0 -100 12t-79 30l25 91q33 -19 75 -31z" />
    <glyph glyph-name="T" unicode="T" horiz-adv-x="514" 
d="M4 582v92h506v-92h-199v-582h-110v582h-197z" />
    <glyph glyph-name="U" unicode="U" horiz-adv-x="659" 
d="M181 279q0 -101 39.5 -151.5t106.5 -50.5q72 0 111 50t39 152v395h110v-388q0 -150 -71 -223.5t-193 -73.5q-118 0 -184.5 71.5t-66.5 223.5v390h109v-395z" />
    <glyph glyph-name="V" unicode="V" horiz-adv-x="584" 
d="M6 674h118l97 -316q50 -162 68 -249h3q20 90 71 247l105 318h116l-236 -674h-124z" />
    <glyph glyph-name="W" unicode="W" horiz-adv-x="860" 
d="M15 674h116l70 -320q28 -127 47 -234h2q13 81 51 235l79 319h115l72 -323q31 -137 44 -229h2q12 72 49 233l77 319h111l-185 -674h-116l-75 331q-30 125 -40 216h-2q-19 -110 -48 -216l-85 -331h-117z" />
    <glyph glyph-name="X" unicode="X" horiz-adv-x="585" 
d="M359 140q-41 71 -72 129h-2q-25 -57 -66 -130l-72 -139h-125l202 341l-194 333h125l79 -146q28 -49 59 -114h2q19 44 56 114l81 146h124l-200 -328l207 -346h-126z" />
    <glyph glyph-name="Y" unicode="Y" horiz-adv-x="562" 
d="M225 283l-213 391h124l86 -178q30 -63 62 -136h2q19 46 62 136l88 178h123l-225 -389v-285h-109v283z" />
    <glyph glyph-name="Z" unicode="Z" horiz-adv-x="561" 
d="M384 580v3h-325v91h466v-65l-352 -515v-3h357v-91h-502v61z" />
    <glyph glyph-name="bracketleft" unicode="[" horiz-adv-x="294" 
d="M77 685h191v-65h-109v-668h109v-64h-191v797z" />
    <glyph glyph-name="backslash" unicode="\" horiz-adv-x="337" 
d="M5 685h79l249 -725h-79z" />
    <glyph glyph-name="bracketright" unicode="]" horiz-adv-x="294" 
d="M217 -112h-190v65h108v668h-108v65h190v-798z" />
    <glyph glyph-name="asciicircum" unicode="^" horiz-adv-x="596" 
d="M299 562h-2l-161 -377h-82l208 465h72l208 -465h-83z" />
    <glyph glyph-name="underscore" unicode="_" horiz-adv-x="500" 
d="M500 -125h-500v50h500v-50z" />
    <glyph glyph-name="grave" unicode="`" 
d="M214 550h-76l-122 146h111z" />
    <glyph glyph-name="a" unicode="a" horiz-adv-x="497" 
d="M333 57h-3q-23 -30 -61 -49t-85 -19t-81 20t-52 53t-18 70q0 89 76 136t214 46v9q0 37 -21.5 66.5t-81.5 29.5q-35 0 -69.5 -10t-59.5 -27l-23 72q31 19 75.5 31t93.5 12q106 0 150.5 -57t44.5 -146v-177q0 -74 7 -117h-99zM142 143q0 -37 21 -56t54 -19q39 0 66.5 21
t37.5 52q5 13 5 27v74q-184 2 -184 -99z" />
    <glyph glyph-name="b" unicode="b" horiz-adv-x="579" 
d="M69 132v578h109v-296h2q23 39 63.5 61t95.5 22q59 0 105 -30.5t72 -86t26 -127.5q0 -84 -31 -144t-81 -90t-107 -30q-106 0 -157 87h-3l-4 -76h-94q4 66 4 132zM181 168q11 -41 43.5 -66.5t74.5 -25.5q62 0 97.5 46t35.5 124q0 71 -34.5 118t-96.5 47q-41 0 -74.5 -26.5
t-44.5 -70.5q-4 -20 -4 -33v-82q0 -16 3 -31z" />
    <glyph glyph-name="c" unicode="c" horiz-adv-x="449" 
d="M363 -2q-37 -8 -80 -8q-74 0 -130 30.5t-86.5 87t-30.5 130.5t32.5 132.5t93 92t141.5 33.5q34 0 66 -6.5t54 -16.5l-21 -83q-36 20 -97 20q-73 0 -115.5 -47t-41.5 -120q0 -77 44 -122t112 -45q51 0 101 21l16 -81q-21 -10 -58 -18z" />
    <glyph glyph-name="d" unicode="d" horiz-adv-x="575" 
d="M506 132q0 -88 4 -132h-98l-5 80h-2q-21 -41 -64 -66t-97 -25q-59 0 -106.5 31.5t-74.5 88t-27 130.5q0 78 29.5 136.5t79.5 90t109 31.5q49 0 85.5 -19t54.5 -49h2v281h110v-578zM393 319q-9 40 -40 66.5t-74 26.5q-61 0 -96.5 -48t-35.5 -123q0 -72 34.5 -118t95.5 -46
q41 0 73 25.5t42 68.5q4 16 4 37v77q0 19 -3 34z" />
    <glyph glyph-name="e" unicode="e" horiz-adv-x="510" 
d="M187 109q44 -36 110 -36q42 0 73 6t62 17l16 -76q-69 -30 -166 -30q-115 0 -180.5 66.5t-65.5 179.5q0 70 27.5 130t80.5 95.5t126 35.5q74 0 120 -35.5t66 -89t20 -109.5q0 -27 -4 -47h-331q2 -71 46 -107zM347.5 381q-25.5 40 -85.5 40q-54 0 -85 -39.5t-36 -88.5h231
q1 48 -24.5 88z" />
    <glyph glyph-name="f" unicode="f" horiz-adv-x="308" 
d="M81 404h-67v82h67v21q0 52 14 95.5t44 72.5q24 23 56.5 34.5t66.5 11.5q44 0 77 -13l-10 -84q-26 10 -53 10q-47 0 -67 -34t-20 -89v-25h111v-82h-110v-404h-109v404z" />
    <glyph glyph-name="g" unicode="g" horiz-adv-x="568" 
d="M499 349v-279q0 -80 -17 -133.5t-54 -86.5q-64 -59 -184 -59q-46 0 -91 10.5t-75 28.5l25 83q27 -16 64 -26.5t78 -10.5q67 0 106.5 38t39.5 117v47h-2q-21 -34 -59 -54.5t-87 -20.5q-60 0 -107 30.5t-73.5 84.5t-26.5 122q0 78 30.5 136t81 89.5t108.5 31.5
q54 0 90 -22.5t55 -56.5h2l4 68h96q-4 -68 -4 -137zM386 328q-12 37 -40.5 60.5t-69.5 23.5q-57 0 -93 -45.5t-36 -122.5q0 -69 34 -114t95 -45q37 0 66.5 21.5t41.5 58.5q6 21 6 45v82q0 21 -4 36z" />
    <glyph glyph-name="h" unicode="h" horiz-adv-x="565" 
d="M178 710v-294h2q23 36 62 58q41 23 87 23q42 0 80 -20.5t63.5 -67.5t25.5 -122v-287h-109v275q0 59 -24.5 95.5t-76.5 36.5q-37 0 -65 -22t-39 -54q-6 -14 -6 -40v-291h-109v710h109z" />
    <glyph glyph-name="i" unicode="i" horiz-adv-x="247" 
d="M169 666.5q17 -17.5 18 -44.5q0 -26 -18 -44t-47 -18q-27 0 -44.5 18t-17.5 44q0 27 18 44.5t46 17.5t45 -17.5zM69 486h109v-486h-109v486z" />
    <glyph glyph-name="j" unicode="j" horiz-adv-x="259" 
d="M183 666.5q17 -17.5 17 -44.5q1 -26 -16.5 -44t-47.5 -18q-28 0 -45 18t-17 44q0 27 18 44.5t46 17.5t45 -17.5zM51 -88q18 20 25 57t7 117v400h109v-434q0 -75 -14.5 -123.5t-46.5 -80.5q-29 -28 -73.5 -42.5t-89.5 -14.5l-11 86q65 5 94 35z" />
    <glyph glyph-name="k" unicode="k" horiz-adv-x="493" 
d="M180 269q11 18 40 56l128 161h131l-183 -199l209 -287h-134l-150 222l-43 -50v-172h-109v710h109v-441h2z" />
    <glyph glyph-name="l" unicode="l" horiz-adv-x="249" 
d="M178 710v-710h-109v710h109z" />
    <glyph glyph-name="m" unicode="m" horiz-adv-x="843" 
d="M65 486h94l5 -74h3q52 85 151 85q48 0 84 -25.5t52 -67.5h2q22 37 57 62q43 31 102 31q41 0 77.5 -20.5t60 -67.5t23.5 -123v-286h-107v271q0 66 -23.5 101.5t-70.5 35.5q-32 0 -57 -20.5t-35 -50.5q-7 -21 -7 -42v-295h-107v285q0 56 -23 89.5t-67 33.5
q-35 0 -60.5 -22.5t-36.5 -54.5q-6 -16 -6 -41v-290h-107v346q0 85 -4 140z" />
    <glyph glyph-name="n" unicode="n" horiz-adv-x="565" 
d="M65 486h96l6 -76h2q20 35 61 61t96 26q43 0 82 -20t64.5 -66.5t25.5 -121.5v-289h-109v276q0 59 -24 95t-76 36q-38 0 -66 -22.5t-39 -56.5q-6 -15 -6 -40v-288h-109v346q0 85 -4 140z" />
    <glyph glyph-name="o" unicode="o" horiz-adv-x="558" 
d="M408 465.5q54 -31.5 84 -88.5t30 -130q0 -85 -35 -143.5t-91.5 -86.5t-120.5 -28q-68 0 -122.5 30.5t-85.5 87t-31 132.5q0 79 32 137.5t88 89.5t127 31t125 -31.5zM181.5 365.5q-33.5 -51.5 -33.5 -123.5q0 -75 36.5 -124t94.5 -49q38 0 67.5 22.5t46.5 62.5t17 90
q0 42 -13.5 82t-43 65.5t-72.5 25.5q-66 0 -99.5 -51.5z" />
    <glyph glyph-name="p" unicode="p" horiz-adv-x="579" 
d="M65 486h97l5 -78h2q57 89 169 89q57 0 103.5 -30.5t73.5 -87t27 -129.5q0 -84 -31 -143t-81 -88.5t-109 -29.5q-46 0 -83.5 18.5t-57.5 50.5h-2v-256h-109v524q0 68 -4 160zM181 167q11 -41 43 -67t75 -26q62 0 97.5 46.5t35.5 124.5q0 71 -34.5 118t-95.5 47
q-42 0 -75.5 -27t-43.5 -71q-5 -17 -5 -33v-78q0 -19 3 -34z" />
    <glyph glyph-name="q" unicode="q" horiz-adv-x="574" 
d="M394 70q-21 -37 -60.5 -59t-92.5 -22q-56 0 -103 30.5t-74.5 86.5t-27.5 129q0 85 32 144t82 88.5t104 29.5q51 0 88 -21.5t57 -57.5h2l3 68h105q-3 -64 -3 -138v-546h-110v268h-2zM393 320q-9 39 -39.5 65t-73.5 26q-62 0 -97.5 -47t-35.5 -123q0 -72 34 -118.5
t96 -46.5q39 0 70 23.5t43 63.5q6 17 6 39v85q0 18 -3 33z" />
    <glyph glyph-name="r" unicode="r" horiz-adv-x="345" 
d="M65 486h95l4 -94h4q17 49 53.5 77t79.5 28q14 0 27 -3v-103q-13 3 -33 3q-44 0 -74.5 -27.5t-39.5 -73.5q-3 -16 -3 -38v-255h-109v331q0 96 -4 155z" />
    <glyph glyph-name="s" unicode="s" horiz-adv-x="409" 
d="M116 79.5q34 -10.5 66 -10.5q42 0 63 16.5t21 44.5q0 27 -18.5 44t-65.5 34q-67 23 -99.5 59.5t-32.5 81.5q0 41 22 75t62 53.5t94 19.5q37 0 69.5 -8.5t55.5 -21.5l-23 -77q-19 11 -45.5 19.5t-56.5 8.5q-34 0 -53.5 -16t-19.5 -42q0 -24 19.5 -39.5t68.5 -33.5
q66 -24 97 -59.5t32 -88.5q0 -67 -50.5 -108t-141.5 -41q-41 0 -78.5 9t-64.5 24l24 81q21 -14 55 -24.5z" />
    <glyph glyph-name="t" unicode="t" horiz-adv-x="343" 
d="M196 486h121v-82h-121v-233q0 -47 14.5 -69.5t49.5 -22.5q27 0 49 6l3 -83q-31 -12 -85 -12q-32 0 -58 10t-43 29q-37 38 -37 132v243h-71v82h71v112l107 27v-139z" />
    <glyph glyph-name="u" unicode="u" horiz-adv-x="562" 
d="M497 0h-96l-6 76h-2q-21 -35 -60.5 -61t-97.5 -26q-72 0 -120.5 49.5t-48.5 162.5v285h110v-267q0 -140 97 -140q37 0 64 21t39 50q7 15 7 41v295h110v-346q0 -88 4 -140z" />
    <glyph glyph-name="v" unicode="v" horiz-adv-x="497" 
d="M215 229q24 -73 35 -123h3q12 46 36 123l84 257h115l-188 -486h-106l-182 486h117z" />
    <glyph glyph-name="w" unicode="w" horiz-adv-x="744" 
d="M183 255q24 -98 33 -156h3q13 59 41 155l70 232h89l66 -227q23 -79 41 -160h3q9 64 34 160l60 227h107l-154 -486h-101l-64 211q-24 78 -39 157h-2q-12 -63 -40 -157l-69 -211h-101l-144 486h111z" />
    <glyph glyph-name="x" unicode="x" horiz-adv-x="482" 
d="M197 389q13 -20 46 -77h3q20 38 44 79l60 95h118l-163 -234l167 -252h-124l-63 102q-12 18 -48 81h-2q-19 -35 -46 -81l-62 -102h-121l170 248l-163 238h122z" />
    <glyph glyph-name="y" unicode="y" horiz-adv-x="488" 
d="M223 215q22 -69 29 -96h2q5 14 8 26.5t6 21.5q5 21 14 49l84 270h117l-126 -338q-50 -133 -87.5 -202t-80.5 -107q-32 -27 -64 -41.5t-57 -18.5l-26 92q41 12 74 38q19 13 38 35.5t32 49.5q7 16 7 22q0 10 -6 23l-179 447h120z" />
    <glyph glyph-name="z" unicode="z" horiz-adv-x="442" 
d="M217 317q18 23 68 79v2h-247v88h380l-1 -67l-193 -249q-31 -41 -68 -81v-2h267v-87h-404v63z" />
    <glyph glyph-name="braceleft" unicode="{" horiz-adv-x="294" 
d="M92 338q16 20 16 51q0 22 -3 48t-4 34q-7 49 -7 82q0 67 39 99.5t108 32.5h26v-65h-18q-40 0 -56.5 -20.5t-16.5 -60.5q0 -20 6 -66t6 -73q1 -49 -18.5 -75.5t-57.5 -35.5v-2q76 -18 76 -109q0 -29 -6 -77q-6 -46 -6 -66q0 -40 17 -61t56 -21h18v-65h-26
q-68 0 -107.5 32.5t-39.5 104.5q0 34 7 81q1 9 4 34t3 46q0 71 -79 72v59q47 1 63 21z" />
    <glyph glyph-name="bar" unicode="|" horiz-adv-x="254" 
d="M167 -250h-80v1000h80v-1000z" />
    <glyph glyph-name="braceright" unicode="}" horiz-adv-x="294" 
d="M186 186q0 -21 3 -46t4 -34q8 -54 8 -81q0 -72 -39.5 -104.5t-108.5 -32.5h-26v65h18q38 1 55.5 21.5t17.5 60.5q0 20 -6 66q-7 54 -7 74q0 94 77 112v2q-38 9 -57.5 35.5t-19.5 75.5q0 22 3 44.5t4 28.5q6 46 6 66q0 40 -17 60t-56 21h-18v65h25q69 0 109 -32.5
t40 -99.5q0 -26 -8 -82q-1 -8 -4 -34t-3 -48q0 -31 16 -51t63 -21v-59q-79 -1 -79 -72z" />
    <glyph glyph-name="asciitilde" unicode="~" horiz-adv-x="596" 
d="M80 325.5q35 41.5 93 41.5q31 0 60 -10t80 -36q46 -23 69.5 -32t45.5 -9q24 0 36.5 20t13.5 63h72q3 -85 -31.5 -124.5t-89.5 -39.5q-31 0 -62 10.5t-82 35.5q-48 25 -69 34t-42 9q-26 0 -40 -19.5t-16 -64.5h-71q-2 80 33 121.5z" />
    <glyph glyph-name="uni00A0" unicode="&#xa0;" horiz-adv-x="209" 
 />
    <glyph glyph-name="exclamdown" unicode="&#xa1;" horiz-adv-x="243" 
d="M171.5 470q18.5 -20 18.5 -52q0 -31 -19 -51t-50 -20q-30 0 -49.5 20.5t-19.5 50.5q0 32 19.5 52t50.5 20t49.5 -20zM80 272h83l18 -470h-118z" />
    <glyph glyph-name="cent" unicode="&#xa2;" horiz-adv-x="527" 
d="M272 87q-91 11 -146 72q-27 30 -41.5 72.5t-14.5 94.5q0 95 54.5 163.5t147.5 84.5v99h74v-96q28 0 56.5 -6.5t47.5 -16.5l-21 -82q-40 23 -99 23q-68 0 -109 -46.5t-41 -117.5q0 -76 42 -119t106 -43q54 0 109 22l16 -78q-19 -10 -47.5 -18t-59.5 -9v-99h-74v100z" />
    <glyph glyph-name="sterling" unicode="&#xa3;" horiz-adv-x="527" 
d="M54 60q49 24 81.5 68.5t32.5 97.5q0 33 -5 60h-101v76h89q-10 58 -10 99q0 60 26 105t72 70t105 25q37 0 65.5 -7t46.5 -18l-22 -82q-34 19 -87 19q-54 0 -79 -31.5t-25 -82.5q0 -42 11 -97h141v-76h-132q2 -26 2 -38q0 -33 -7 -60q-17 -57 -63 -96v-2h288v-90h-429v60z
" />
    <glyph glyph-name="currency" unicode="&#xa4;" horiz-adv-x="527" 
d="M327 529q30 -10 52 -28l73 78l52 -54l-81 -73q34 -54 34 -117q0 -38 -10 -69.5t-25 -52.5l78 -76l-52 -52l-70 81q-22 -20 -53.5 -31t-63.5 -11q-31 0 -62.5 10.5t-51.5 28.5l-69 -78l-50 52l75 73q-16 21 -26 52.5t-10 67.5q0 69 37 122l-79 73l52 54l72 -79
q21 18 51 28.5t63 10.5q34 0 64 -10zM182.5 425.5q-30.5 -37.5 -30.5 -94.5q0 -43 16.5 -72.5t41.5 -44t51 -14.5q45 0 78 34t33 100q0 53 -30 91t-80 38q-49 0 -79.5 -37.5z" />
    <glyph glyph-name="yen" unicode="&#xa5;" horiz-adv-x="527" 
d="M206 170h-155v57h155v69h-155v57h127l-167 297h117l93 -191q11 -22 33 -78l8 -19h2q20 54 41 99l96 189h115l-177 -297h127v-57h-157v-69h157v-57h-157v-170h-103v170z" />
    <glyph glyph-name="brokenbar" unicode="&#xa6;" horiz-adv-x="254" 
d="M167 324h-80v350h80v-350zM167 -176h-80v350h80v-350z" />
    <glyph glyph-name="section" unicode="&#xa7;" horiz-adv-x="533" 
d="M288 613q-45 0 -72.5 -17.5t-27.5 -47.5q0 -31 27.5 -48.5t91.5 -38.5q84 -27 128 -63t44 -101q0 -72 -67 -121q15 -13 27.5 -37t12.5 -53q0 -52 -29.5 -86.5t-75.5 -50.5t-96 -16q-47 0 -91 10.5t-76 32.5l26 68q24 -16 61 -28.5t77 -12.5q47 0 76 19t29 53
q0 31 -25.5 51.5t-90.5 42.5q-91 30 -137 65t-46 98q0 32 19.5 64t57.5 55q-16 12 -27 36t-11 50q0 67 55.5 106.5t140.5 39.5q83 0 144 -32l-22 -68q-54 30 -123 30zM164.5 299.5q23.5 -21.5 76.5 -40.5q6 -2 13.5 -5t15.5 -6q68 -24 86 -35q16 11 25.5 29.5t9.5 38.5
q0 57 -82 86q-34 12 -36 13q-65 24 -89 38q-43 -28 -43 -70q0 -27 23.5 -48.5z" />
    <glyph glyph-name="dieresis" unicode="&#xa8;" 
d="M12.5 582.5q-16.5 16.5 -16.5 40.5t17 41t41 17q23 0 39 -16.5t16 -41.5q0 -24 -15.5 -40.5t-39.5 -16.5q-25 0 -41.5 16.5zM206.5 582.5q-16.5 16.5 -16.5 40.5t16.5 41t40.5 17t40 -16.5t16 -41.5q0 -24 -16 -40.5t-40 -16.5t-40.5 16.5z" />
    <glyph glyph-name="copyright" unicode="&#xa9;" horiz-adv-x="677" 
d="M492.5 606.5q69.5 -41.5 109.5 -112t40 -154.5q0 -85 -40 -156t-109 -112.5t-153 -41.5t-154 41.5t-110.5 112.5t-40.5 156q0 84 40.5 154.5t110.5 112t154 41.5q83 0 152.5 -41.5zM213.5 567q-57.5 -35 -90.5 -95.5t-33 -133.5q0 -72 33 -132t90.5 -95t126.5 -35
q68 0 124.5 35t89.5 95.5t33 133.5q0 72 -33 132t-89.5 95t-124.5 35q-69 0 -126.5 -35zM420.5 464.5q-25.5 7.5 -55.5 7.5q-65 0 -100 -37t-35 -98q0 -59 36 -97.5t99 -38.5q29 0 56 7t45 19l13 -43q-47 -31 -124 -31q-56 0 -97.5 24t-63.5 65t-22 92q0 55 26.5 97.5
t70.5 65.5t95 23q36 0 67.5 -8.5t42.5 -18.5l-13 -44q-15 8 -40.5 15.5z" />
    <glyph glyph-name="ordfeminine" unicode="&#xaa;" horiz-adv-x="357" 
d="M239 305h-2q-16 -20 -41.5 -32t-58.5 -12q-48 0 -76 27.5t-28 68.5q0 55 53 86t147 29v9q0 17 -15.5 35.5t-54.5 18.5q-51 0 -88 -27l-17 50q21 15 52.5 24t67.5 9q72 0 102.5 -39t30.5 -101v-107q0 -45 6 -78h-71zM146.5 410q-35.5 -14 -35.5 -48q0 -21 15 -33.5
t38 -12.5q20 0 36.5 9.5t25.5 24.5q9 16 9 25v48q-53 1 -88.5 -13z" />
    <glyph glyph-name="guillemotleft" unicode="&#xab;" horiz-adv-x="434" 
d="M237 66h-82l-127 186l127 186h82l-129 -186zM411 66h-82l-127 186l127 186h82l-129 -186z" />
    <glyph glyph-name="logicalnot" unicode="&#xac;" horiz-adv-x="596" 
d="M556 116h-75v220h-441v71h516v-291z" />
    <glyph glyph-name="uni00AD" unicode="&#xad;" horiz-adv-x="312" 
d="M282 229h-252v77h252v-77z" />
    <glyph glyph-name="registered" unicode="&#xae;" horiz-adv-x="432" 
d="M303.5 662.5q39.5 -22.5 62 -60.5t22.5 -84t-22.5 -84.5t-62 -61t-86.5 -22.5t-86.5 22.5t-62.5 61t-23 84.5t23 84t62.5 60.5t86.5 22.5t86.5 -22.5zM126 611q-36 -38 -36 -93t36.5 -92.5t90.5 -37.5t89.5 37.5t35.5 92.5t-36 93t-90 38t-90 -38zM150 434v162q23 5 66 5
q38 0 59 -12q16 -12 16 -36q0 -13 -9.5 -22.5t-25.5 -14.5v-2q13 -4 20 -13.5t11 -26.5q6 -31 12 -40h-46q-5 6 -12 38q-2 13 -9.5 19t-22.5 6h-17v-63h-42zM210 526q16 0 25.5 5.5t9.5 16.5t-8 17.5t-24 6.5q-12 0 -20 -2v-44h17z" />
    <glyph glyph-name="macron" unicode="&#xaf;" 
d="M267 585h-233v65h233v-65z" />
    <glyph glyph-name="degree" unicode="&#xb0;" horiz-adv-x="331" 
d="M240.5 666.5q31.5 -18.5 48.5 -49.5t17 -67q0 -40 -19.5 -72t-51.5 -49.5t-69 -17.5q-40 0 -71.5 18.5t-49 49.5t-17.5 68q0 38 19 70t51 50t70 18q41 0 72.5 -18.5zM111.5 605q-20.5 -25 -20.5 -59t22 -57t54 -23q33 0 54.5 23.5t21.5 59.5q0 31 -19.5 56t-56.5 25
q-35 0 -55.5 -25z" />
    <glyph glyph-name="plusminus" unicode="&#xb1;" horiz-adv-x="596" 
d="M336 387h220v-71h-220v-192h-76v192h-220v71h220v187h76v-187zM556 0h-516v71h516v-71z" />
    <glyph glyph-name="uni00B2" unicode="&#xb2;" horiz-adv-x="325" 
d="M75 543q69 63 96 97t27 67q0 28 -18 45.5t-52 17.5q-42 0 -85 -30l-24 56q24 18 58.5 30t71.5 12q68 0 104 -34t36 -82q0 -50 -31 -90t-96 -96l-29 -26v-2h163v-65h-283v43z" />
    <glyph glyph-name="uni00B3" unicode="&#xb3;" horiz-adv-x="319" 
d="M81 828.5q33 9.5 69 9.5q64 0 97 -27.5t33 -68.5q0 -30 -21 -54t-58 -36v-2q42 -5 68 -31t26 -64q0 -50 -44.5 -83.5t-120.5 -33.5q-36 0 -69 7.5t-52 19.5l20 59q16 -9 42.5 -17.5t51.5 -8.5q38 0 60 17.5t22 40.5q0 33 -28.5 49.5t-70.5 16.5h-28v54h28q32 0 58.5 13.5
t27.5 41.5q0 20 -15 33t-45 13q-24 0 -47 -8.5t-39 -18.5l-19 56q21 13 54 22.5z" />
    <glyph glyph-name="acute" unicode="&#xb4;" 
d="M169 550h-77l88 146h111z" />
    <glyph glyph-name="uni00B5" unicode="&#xb5;" horiz-adv-x="564" 
d="M344.5 16q-34.5 -24 -81.5 -24q-30 0 -55 11.5t-39 33.5v-54q0 -133 11 -181h-97q-14 39 -14 178v506h109v-282q0 -57 24 -91.5t73 -34.5q36 0 64 21.5t40 50.5q7 19 7 41v295h108v-344q0 -37 10 -52.5t35 -17.5l-8 -77q-15 -6 -38 -6q-37 0 -62 20.5t-32 62.5h-3
q-17 -32 -51.5 -56z" />
    <glyph glyph-name="paragraph" unicode="&#xb6;" horiz-adv-x="522" 
d="M222 264h-7q-39 0 -81.5 22t-71.5 65.5t-29 103.5q0 93 64 157.5t218 64.5q87 0 126 -10v-715h-74v653h-71v-653h-74v312z" />
    <glyph glyph-name="periodcentered" unicode="&#xb7;" horiz-adv-x="225" 
d="M62.5 209q-19.5 20 -19.5 51q0 33 19.5 54t50.5 21t49.5 -20t19.5 -53q0 -32 -19.5 -52.5t-50.5 -20.5q-30 0 -49.5 20z" />
    <glyph glyph-name="cedilla" unicode="&#xb8;" 
d="M163 -48q30 -4 50.5 -23t20.5 -47q0 -43 -31 -63t-79 -20q-43 0 -72 18l17 47q24 -15 54 -15q18 0 29.5 7t10.5 23q0 34 -77 40l45 84h63z" />
    <glyph glyph-name="uni00B9" unicode="&#xb9;" horiz-adv-x="263" 
d="M111 760h-2l-75 -35l-12 63l100 45h74v-390h-85v317z" />
    <glyph glyph-name="ordmasculine" unicode="&#xba;" horiz-adv-x="365" 
d="M301 545.5q44 -45.5 44 -117.5q0 -54 -23.5 -92t-60.5 -56.5t-79 -18.5q-45 0 -82 20t-58.5 57t-21.5 85q0 50 22 88.5t59 59t83 20.5q73 0 117 -45.5zM121 500q-21 -33 -21 -75q0 -45 24 -75.5t59 -30.5q36 0 59 29.5t23 77.5q0 41 -21.5 74t-61.5 33t-61 -33z" />
    <glyph glyph-name="guillemotright" unicode="&#xbb;" horiz-adv-x="434" 
d="M105 438l128 -186l-128 -186h-81l128 186l-129 186h82zM278 438l127 -186l-127 -186h-82l129 186l-130 186h83z" />
    <glyph glyph-name="onequarter" unicode="&#xbc;" horiz-adv-x="783" 
d="M526 661h65l-376 -672h-65zM129 584h-1l-75 -35l-13 62l100 45h75v-390h-86v318zM609 99h-190v48l174 245h97v-236h54v-57h-54v-99h-81v99zM610.5 295.5q1.5 20.5 1.5 30.5h-2q-20 -39 -35 -61l-75 -107l1 -2h108v103q0 16 1.5 36.5z" />
    <glyph glyph-name="onehalf" unicode="&#xbd;" horiz-adv-x="783" 
d="M505 661h65l-376 -672h-65zM116 584h-2l-74 -35l-13 62l99 45h76v-390h-86v318zM517 101q68 62 95.5 96t27.5 68q0 27 -18 44.5t-52 17.5q-42 0 -85 -30l-24 56q23 18 57.5 30t72.5 12q68 0 103.5 -34t35.5 -82q0 -49 -30.5 -89.5t-95.5 -96.5l-29 -25v-2h163v-66h-283
v43z" />
    <glyph glyph-name="threequarters" unicode="&#xbe;" horiz-adv-x="783" 
d="M100 652q33 9 70 9q64 0 97 -27.5t33 -68.5q0 -30 -21 -54t-57 -35v-2q41 -5 67 -31t26 -64q0 -51 -44.5 -84.5t-120.5 -33.5q-36 0 -68.5 8t-52.5 20l19 59q16 -10 43 -18t52 -8q39 0 61 18t22 42q-1 32 -30 47.5t-70 15.5h-29v54h28q32 0 59.5 14t27.5 42q0 19 -15 32
t-45 13q-24 0 -47.5 -8t-39.5 -18l-18 56q20 13 53 22zM561 661h65l-376 -672h-65zM619 99h-190v48l173 245h98v-236h55v-57h-55v-99h-81v99zM621 301q2 18 2 25h-3q-24 -46 -34 -61l-76 -107l2 -2h107v103q0 16 2 42z" />
    <glyph glyph-name="questiondown" unicode="&#xbf;" horiz-adv-x="419" 
d="M291 471q19 -20 19 -52q0 -31 -19 -51.5t-50 -20.5t-50 20.5t-20 51.5q0 32 19.5 52t50.5 20t50 -20zM289 251q1 -6 1 -17q0 -73 -62 -148q-35 -42 -50.5 -69t-15.5 -56q0 -35 22.5 -55.5t65.5 -20.5q27 0 54 8t47 22l27 -79q-28 -17 -69 -28.5t-83 -11.5q-85 0 -130 43
t-45 107q0 47 21 83t65 87q31 37 43.5 69t11.5 69l-1 23h96z" />
    <glyph glyph-name="Agrave" unicode="&#xc0;" horiz-adv-x="627" 
d="M372 711h-88l-126 118h124zM135 0h-113l222 674h136l223 -674h-116l-66 199h-223zM344 459q-15 46 -35 126h-2l-7 -28q-18 -73 -26 -97l-57 -178h185z" />
    <glyph glyph-name="Aacute" unicode="&#xc1;" horiz-adv-x="627" 
d="M343 710h-89l90 119h124zM135 0h-113l222 674h136l223 -674h-116l-66 199h-223zM344 459q-15 46 -35 126h-2l-7 -28q-18 -73 -26 -97l-57 -178h185z" />
    <glyph glyph-name="Acircumflex" unicode="&#xc2;" horiz-adv-x="627" 
d="M461 710h-85l-59 67h-2l-59 -67h-83l101 117h83zM135 0h-113l222 674h136l223 -674h-116l-66 199h-223zM344 459q-15 46 -35 126h-2l-7 -28q-18 -73 -26 -97l-57 -178h185z" />
    <glyph glyph-name="Atilde" unicode="&#xc3;" horiz-adv-x="627" 
d="M205 795.5q19 29.5 53 29.5q16 0 29 -5t32 -15q12 -7 24.5 -12.5t21.5 -5.5q13 0 19.5 8.5t7.5 31.5h54q3 -106 -71 -106q-27 0 -63 19q-4 2 -14 8t-17.5 8.5t-13.5 2.5q-22 0 -25 -44h-55q-1 51 18 80.5zM135 0h-113l222 674h136l223 -674h-116l-66 199h-223zM344 459
q-15 46 -35 126h-2l-7 -28q-18 -73 -26 -97l-57 -178h185z" />
    <glyph glyph-name="Adieresis" unicode="&#xc4;" horiz-adv-x="627" 
d="M181 733.5q-16 16.5 -16 40.5q0 23 16 39.5t40 16.5q23 0 38.5 -16.5t15.5 -39.5q0 -24 -15 -40.5t-39 -16.5t-40 16.5zM373.5 733.5q-15.5 16.5 -15.5 40.5q0 23 16 39.5t40 16.5q23 0 38.5 -16.5t15.5 -39.5q0 -24 -15.5 -40.5t-39.5 -16.5t-39.5 16.5zM135 0h-113
l222 674h136l223 -674h-116l-66 199h-223zM344 459q-15 46 -35 126h-2l-7 -28q-18 -73 -26 -97l-57 -178h185z" />
    <glyph glyph-name="Aring" unicode="&#xc5;" horiz-adv-x="627" 
d="M390 858.5q28 -26.5 28 -66.5t-29 -66t-75 -26q-48 0 -77 26t-29 65q0 40 28.5 67t77.5 27q48 0 76 -26.5zM278.5 828.5q-12.5 -15.5 -12.5 -37.5q0 -20 13 -34.5t33 -14.5q21 0 34 14t13 36t-13 37t-34 15t-33.5 -15.5zM135 0h-113l222 674h136l223 -674h-116l-66 199
h-223zM344 459q-15 46 -35 126h-2l-7 -28q-18 -73 -26 -97l-57 -178h185z" />
    <glyph glyph-name="AE" unicode="&#xc6;" horiz-adv-x="815" 
d="M301 674h453v-90h-284l23 -191h253v-90h-239l27 -213h250v-90h-344l-28 220h-203l-97 -220h-112zM379 491q-11 82 -12 105h-4l-40 -103l-80 -186h157z" />
    <glyph glyph-name="Ccedilla" unicode="&#xc7;" horiz-adv-x="585" 
d="M480 -1q-45 -9 -100 -9l-21 -38q31 -6 51 -26t20 -51q0 -43 -31.5 -64t-76.5 -21q-21 0 -41.5 5t-34.5 13l16 50q24 -13 56 -13q18 0 29 7t11 21q0 18 -20 27.5t-59 13.5l41 79q-131 17 -207.5 106t-76.5 231q0 107 46 187.5t127 124t184 43.5q56 0 98 -9t64 -21l-24 -88
q-59 27 -134 27q-73 0 -129 -30t-87 -88.5t-31 -140.5q0 -117 65 -185.5t180 -68.5q38 0 75 7t62 19l20 -86q-27 -13 -72 -22z" />
    <glyph glyph-name="Egrave" unicode="&#xc8;" horiz-adv-x="506" 
d="M330 711h-88l-126 118h124zM182 306v-216h287v-90h-396v674h381v-90h-272v-189h257v-89h-257z" />
    <glyph glyph-name="Eacute" unicode="&#xc9;" horiz-adv-x="506" 
d="M296 710h-88l90 119h124zM182 306v-216h287v-90h-396v674h381v-90h-272v-189h257v-89h-257z" />
    <glyph glyph-name="Ecircumflex" unicode="&#xca;" horiz-adv-x="506" 
d="M409 710h-85l-60 67h-2l-58 -67h-84l102 117h83zM182 306v-216h287v-90h-396v674h381v-90h-272v-189h257v-89h-257z" />
    <glyph glyph-name="Edieresis" unicode="&#xcb;" horiz-adv-x="506" 
d="M124.5 734.5q-16.5 16.5 -16.5 40.5q0 23 16.5 39.5t40.5 16.5q23 0 38.5 -16t15.5 -40t-15 -40.5t-39 -16.5t-40.5 16.5zM317.5 734.5q-15.5 16.5 -15.5 40.5q0 23 16 39.5t39 16.5q24 0 39.5 -16t15.5 -40t-15.5 -40.5t-39.5 -16.5t-39.5 16.5zM182 306v-216h287v-90
h-396v674h381v-90h-272v-189h257v-89h-257z" />
    <glyph glyph-name="Igrave" unicode="&#xcc;" horiz-adv-x="254" 
d="M187 711h-87l-126 118h124zM182 0h-109v674h109v-674z" />
    <glyph glyph-name="Iacute" unicode="&#xcd;" horiz-adv-x="254" 
d="M155 710h-88l90 119h125zM182 0h-109v674h109v-674z" />
    <glyph glyph-name="Icircumflex" unicode="&#xce;" horiz-adv-x="254" 
d="M271 710h-84l-59 67h-2l-60 -67h-82l101 117h83zM182 0h-109v674h109v-674z" />
    <glyph glyph-name="Idieresis" unicode="&#xcf;" horiz-adv-x="254" 
d="M-8 734.5q-16 16.5 -16 40.5q0 23 16 39.5t40 16.5q23 0 38.5 -16t15.5 -40t-15 -40.5t-39 -16.5t-40 16.5zM184.5 734.5q-15.5 16.5 -15.5 40.5q0 23 16 39.5t40 16.5q23 0 38.5 -16t15.5 -40t-15.5 -40.5t-39.5 -16.5t-39.5 16.5zM182 0h-109v674h109v-674z" />
    <glyph glyph-name="Eth" unicode="&#xd0;" horiz-adv-x="682" 
d="M79 386v281q90 15 192 15q182 0 274 -80q101 -87 101 -249q0 -86 -26.5 -153.5t-75.5 -113.5t-126.5 -70t-175.5 -24q-96 0 -163 8v299h-79v87h79zM187 299v-217q20 -3 76 -3q130 0 199 70t69 205q0 116 -64.5 179t-188.5 63q-51 0 -91 -8v-202h165v-87h-165z" />
    <glyph glyph-name="Ntilde" unicode="&#xd1;" horiz-adv-x="669" 
d="M227 795.5q19 29.5 53 29.5q16 0 29 -5t32 -15q12 -7 24.5 -12.5t21.5 -5.5q13 0 19 8.5t8 31.5h54q1 -106 -71 -106q-27 0 -62 19q-5 3 -15 8.5t-17.5 8t-13.5 2.5q-22 0 -25 -44h-55q-1 51 18 80.5zM73 674h122l191 -310q69 -112 117 -223l3 1q-11 110 -11 278v254h101
v-674h-112l-191 315q-81 136 -123 229l-3 -1q7 -120 7 -283v-260h-101v674z" />
    <glyph glyph-name="Ograve" unicode="&#xd2;" horiz-adv-x="698" 
d="M409 713h-87l-127 118h125zM517 641q70 -44 107.5 -121.5t37.5 -175.5q0 -111 -41.5 -191.5t-114 -122t-163.5 -41.5t-161 43.5t-108 121.5t-38 177q0 104 40.5 184.5t112.5 125t165 44.5t163 -44zM242 561.5q-45 -35.5 -68 -95t-23 -132.5q0 -71 24 -129.5t68.5 -93
t105.5 -34.5q62 0 106.5 34.5t68 94.5t23.5 134q0 67 -22.5 125.5t-67 95t-107.5 36.5t-108 -35.5z" />
    <glyph glyph-name="Oacute" unicode="&#xd3;" horiz-adv-x="698" 
d="M379 712h-89l90 119h124zM517 641q70 -44 107.5 -121.5t37.5 -175.5q0 -111 -41.5 -191.5t-114 -122t-163.5 -41.5t-161 43.5t-108 121.5t-38 177q0 104 40.5 184.5t112.5 125t165 44.5t163 -44zM242 561.5q-45 -35.5 -68 -95t-23 -132.5q0 -71 24 -129.5t68.5 -93
t105.5 -34.5q62 0 106.5 34.5t68 94.5t23.5 134q0 67 -22.5 125.5t-67 95t-107.5 36.5t-108 -35.5z" />
    <glyph glyph-name="Ocircumflex" unicode="&#xd4;" horiz-adv-x="698" 
d="M494 712h-85l-60 67h-2l-58 -67h-84l102 117h83zM517 641q70 -44 107.5 -121.5t37.5 -175.5q0 -111 -41.5 -191.5t-114 -122t-163.5 -41.5t-161 43.5t-108 121.5t-38 177q0 104 40.5 184.5t112.5 125t165 44.5t163 -44zM242 561.5q-45 -35.5 -68 -95t-23 -132.5
q0 -71 24 -129.5t68.5 -93t105.5 -34.5q62 0 106.5 34.5t68 94.5t23.5 134q0 67 -22.5 125.5t-67 95t-107.5 36.5t-108 -35.5z" />
    <glyph glyph-name="Otilde" unicode="&#xd5;" horiz-adv-x="698" 
d="M237 797q19 30 54 30q16 0 28.5 -5t31.5 -15q30 -19 47 -19q12 0 18.5 8.5t8.5 31.5h53q3 -106 -71 -106q-15 0 -28 4.5t-34 14.5q-3 2 -13.5 8t-18 8.5t-13.5 2.5q-23 0 -26 -44h-54q-2 51 17 81zM517 641q70 -44 107.5 -121.5t37.5 -175.5q0 -111 -41.5 -191.5
t-114 -122t-163.5 -41.5t-161 43.5t-108 121.5t-38 177q0 104 40.5 184.5t112.5 125t165 44.5t163 -44zM242 561.5q-45 -35.5 -68 -95t-23 -132.5q0 -71 24 -129.5t68.5 -93t105.5 -34.5q62 0 106.5 34.5t68 94.5t23.5 134q0 67 -22.5 125.5t-67 95t-107.5 36.5t-108 -35.5z
" />
    <glyph glyph-name="Odieresis" unicode="&#xd6;" horiz-adv-x="698" 
d="M213.5 734.5q-15.5 16.5 -15.5 40.5q0 23 16 39.5t39 16.5t38.5 -16t15.5 -40t-15 -40.5t-39 -16.5t-39.5 16.5zM406 734.5q-16 16.5 -16 40.5q0 23 16 39.5t40 16.5t39.5 -16t15.5 -40t-15.5 -40.5t-39.5 -16.5t-40 16.5zM517 641q70 -44 107.5 -121.5t37.5 -175.5
q0 -111 -41.5 -191.5t-114 -122t-163.5 -41.5t-161 43.5t-108 121.5t-38 177q0 104 40.5 184.5t112.5 125t165 44.5t163 -44zM242 561.5q-45 -35.5 -68 -95t-23 -132.5q0 -71 24 -129.5t68.5 -93t105.5 -34.5q62 0 106.5 34.5t68 94.5t23.5 134q0 67 -22.5 125.5t-67 95
t-107.5 36.5t-108 -35.5z" />
    <glyph glyph-name="multiply" unicode="&#xd7;" horiz-adv-x="596" 
d="M298 314l207 212l51 -52l-207 -211l207 -211l-51 -52l-207 211l-207 -211l-51 52l207 211l-207 211l51 52z" />
    <glyph glyph-name="Oslash" unicode="&#xd8;" horiz-adv-x="698" 
d="M126 84q-43 46 -66.5 110.5t-23.5 139.5q0 102 40.5 182t112.5 124.5t162 44.5q92 0 162 -47l58 81l64 -43l-60 -86q42 -45 64.5 -109.5t22.5 -138.5q0 -111 -41.5 -191t-112.5 -121t-158 -41q-90 0 -162 47l-62 -87l-60 48zM351 599q-65 0 -111 -35.5t-70 -95
t-24 -130.5q0 -47 10.5 -85t31.5 -77l1 1l272 382q-48 40 -110 40zM349 75q63 0 109 35t70 95.5t24 134.5q0 85 -39 154l-3 1l-270 -380q45 -40 109 -40z" />
    <glyph glyph-name="Ugrave" unicode="&#xd9;" horiz-adv-x="659" 
d="M394 711h-89l-125 118h124zM181 279q0 -101 39.5 -151.5t106.5 -50.5q72 0 111 50t39 152v395h110v-388q0 -150 -71 -223.5t-193 -73.5q-118 0 -184.5 71.5t-66.5 223.5v390h109v-395z" />
    <glyph glyph-name="Uacute" unicode="&#xda;" horiz-adv-x="659" 
d="M359 710h-88l89 119h125zM181 279q0 -101 39.5 -151.5t106.5 -50.5q72 0 111 50t39 152v395h110v-388q0 -150 -71 -223.5t-193 -73.5q-118 0 -184.5 71.5t-66.5 223.5v390h109v-395z" />
    <glyph glyph-name="Ucircumflex" unicode="&#xdb;" horiz-adv-x="659" 
d="M481 710h-85l-59 67h-2l-59 -67h-83l102 117h82zM181 279q0 -101 39.5 -151.5t106.5 -50.5q72 0 111 50t39 152v395h110v-388q0 -150 -71 -223.5t-193 -73.5q-118 0 -184.5 71.5t-66.5 223.5v390h109v-395z" />
    <glyph glyph-name="Udieresis" unicode="&#xdc;" horiz-adv-x="659" 
d="M197 734.5q-16 16.5 -16 40.5q0 23 16.5 39.5t39.5 16.5t38.5 -16t15.5 -40t-15 -40.5t-39 -16.5t-40 16.5zM389.5 734.5q-15.5 16.5 -15.5 40.5q0 23 16 39.5t40 16.5q23 0 38.5 -16t15.5 -40t-15 -40.5t-39 -16.5q-25 0 -40.5 16.5zM181 279q0 -101 39.5 -151.5
t106.5 -50.5q72 0 111 50t39 152v395h110v-388q0 -150 -71 -223.5t-193 -73.5q-118 0 -184.5 71.5t-66.5 223.5v390h109v-395z" />
    <glyph glyph-name="Yacute" unicode="&#xdd;" horiz-adv-x="562" 
d="M318 706h-88l90 119h124zM225 283l-213 391h124l86 -178q30 -63 62 -136h2q19 46 62 136l88 178h123l-225 -389v-285h-109v283z" />
    <glyph glyph-name="Thorn" unicode="&#xde;" horiz-adv-x="547" 
d="M180 674v-128q36 6 92 6q117 0 180 -54q28 -26 43 -61t15 -75q0 -108 -70.5 -163.5t-185.5 -55.5q-42 0 -74 5v-148h-107v674h107zM251 229q73 0 112 33t39 90t-37.5 86.5t-103.5 29.5q-46 0 -81 -7v-226q31 -6 71 -6z" />
    <glyph glyph-name="germandbls" unicode="&#xdf;" horiz-adv-x="565" 
d="M69 445q0 82 18.5 135t54.5 86q61 55 158 55q53 0 96 -21t68.5 -60.5t25.5 -92.5q0 -24 -6.5 -46t-16.5 -36q-32 -14 -49.5 -34t-17.5 -43q0 -21 10.5 -38t34.5 -43q39 -39 60 -72.5t21 -82.5q0 -73 -50 -118t-137 -45q-65 0 -106 19l17 82q38 -18 79 -18t64.5 21
t23.5 53q0 26 -11.5 46t-36.5 45q-39 38 -58.5 67.5t-19.5 68.5q0 38 22.5 70t63.5 53q9 22 9 41q0 46 -26 72.5t-70 26.5q-55 0 -83.5 -43t-28.5 -141v-452h-109v445z" />
    <glyph glyph-name="agrave" unicode="&#xe0;" horiz-adv-x="497" 
d="M295 550h-76l-122 146h111zM333 57h-3q-23 -30 -61 -49t-85 -19t-81 20t-52 53t-18 70q0 89 76 136t214 46v9q0 37 -21.5 66.5t-81.5 29.5q-35 0 -69.5 -10t-59.5 -27l-23 72q31 19 75.5 31t93.5 12q106 0 150.5 -57t44.5 -146v-177q0 -74 7 -117h-99zM142 143
q0 -37 21 -56t54 -19q39 0 66.5 21t37.5 52q5 13 5 27v74q-184 2 -184 -99z" />
    <glyph glyph-name="aacute" unicode="&#xe1;" horiz-adv-x="497" 
d="M267 550h-77l87 146h112zM333 57h-3q-23 -30 -61 -49t-85 -19t-81 20t-52 53t-18 70q0 89 76 136t214 46v9q0 37 -21.5 66.5t-81.5 29.5q-35 0 -69.5 -10t-59.5 -27l-23 72q31 19 75.5 31t93.5 12q106 0 150.5 -57t44.5 -146v-177q0 -74 7 -117h-99zM142 143
q0 -37 21 -56t54 -19q39 0 66.5 21t37.5 52q5 13 5 27v74q-184 2 -184 -99z" />
    <glyph glyph-name="acircumflex" unicode="&#xe2;" horiz-adv-x="497" 
d="M378 550h-77l-56 92h-2l-55 -92h-77l96 146h74zM333 57h-3q-23 -30 -61 -49t-85 -19t-81 20t-52 53t-18 70q0 89 76 136t214 46v9q0 37 -21.5 66.5t-81.5 29.5q-35 0 -69.5 -10t-59.5 -27l-23 72q31 19 75.5 31t93.5 12q106 0 150.5 -57t44.5 -146v-177q0 -74 7 -117h-99
zM142 143q0 -37 21 -56t54 -19q39 0 66.5 21t37.5 52q5 13 5 27v74q-184 2 -184 -99z" />
    <glyph glyph-name="atilde" unicode="&#xe3;" horiz-adv-x="497" 
d="M132.5 647q19.5 30 54.5 30q16 0 29.5 -5t33.5 -16q29 -18 42 -18t19.5 9.5t7.5 33.5h54q4 -110 -72 -110q-16 0 -29.5 5t-34.5 16q-13 8 -23 12.5t-18 4.5q-23 0 -26 -45h-56q-1 53 18.5 83zM333 57h-3q-23 -30 -61 -49t-85 -19t-81 20t-52 53t-18 70q0 89 76 136
t214 46v9q0 37 -21.5 66.5t-81.5 29.5q-35 0 -69.5 -10t-59.5 -27l-23 72q31 19 75.5 31t93.5 12q106 0 150.5 -57t44.5 -146v-177q0 -74 7 -117h-99zM142 143q0 -37 21 -56t54 -19q39 0 66.5 21t37.5 52q5 13 5 27v74q-184 2 -184 -99z" />
    <glyph glyph-name="adieresis" unicode="&#xe4;" horiz-adv-x="497" 
d="M111.5 582.5q-16.5 16.5 -16.5 40.5t17 41t41 17q23 0 39 -16.5t16 -41.5q0 -24 -15.5 -40.5t-39.5 -16.5q-25 0 -41.5 16.5zM305 582.5q-16 16.5 -16 40.5t16.5 41t40.5 17t40 -16.5t16 -41.5q0 -24 -16 -40.5t-40 -16.5q-25 0 -41 16.5zM333 57h-3q-23 -30 -61 -49
t-85 -19t-81 20t-52 53t-18 70q0 89 76 136t214 46v9q0 37 -21.5 66.5t-81.5 29.5q-35 0 -69.5 -10t-59.5 -27l-23 72q31 19 75.5 31t93.5 12q106 0 150.5 -57t44.5 -146v-177q0 -74 7 -117h-99zM142 143q0 -37 21 -56t54 -19q39 0 66.5 21t37.5 52q5 13 5 27v74
q-184 2 -184 -99z" />
    <glyph glyph-name="aring" unicode="&#xe5;" horiz-adv-x="497" 
d="M172.5 564q-29.5 26 -29.5 66q0 42 29 69.5t78 27.5q47 0 75 -27t28 -69q0 -40 -29.5 -66.5t-74.5 -26.5q-47 0 -76.5 26zM284 594.5q14 15.5 14 37.5q0 23 -14 38t-37 15q-22 0 -34.5 -15.5t-12.5 -38.5q0 -20 13.5 -36t34.5 -16q22 0 36 15.5zM333 57h-3
q-23 -30 -61 -49t-85 -19t-81 20t-52 53t-18 70q0 89 76 136t214 46v9q0 37 -21.5 66.5t-81.5 29.5q-35 0 -69.5 -10t-59.5 -27l-23 72q31 19 75.5 31t93.5 12q106 0 150.5 -57t44.5 -146v-177q0 -74 7 -117h-99zM142 143q0 -37 21 -56t54 -19q39 0 66.5 21t37.5 52
q5 13 5 27v74q-184 2 -184 -99z" />
    <glyph glyph-name="ae" unicode="&#xe6;" horiz-adv-x="783" 
d="M466.5 112q40.5 -40 106.5 -40q44 0 75 7t59 20l18 -75q-67 -35 -166 -35q-63 0 -113 26.5t-72 73.5h-3q-25 -47 -72 -73.5t-108 -26.5q-49 0 -85 20t-54 52.5t-18 70.5q0 86 76.5 132t214.5 45v18q0 15 -9 36t-33 38t-65 17q-34 0 -68.5 -10.5t-57.5 -26.5l-24 71
q32 20 75 32.5t83 12.5q120 0 158 -95h2q27 45 70.5 70t98.5 25q68 0 112 -36t63 -88.5t19 -105.5q0 -29 -3 -44h-319q-1 -71 39.5 -111zM637.5 352.5q-9.5 28.5 -33 49t-61.5 20.5q-37 0 -63 -19.5t-39.5 -48t-14.5 -55.5h220q1 25 -8.5 53.5zM194.5 218
q-53.5 -22 -53.5 -78q0 -33 22 -52.5t55 -19.5q39 0 66 20.5t38 51.5q5 13 5 34v64q-79 2 -132.5 -20z" />
    <glyph glyph-name="ccedilla" unicode="&#xe7;" horiz-adv-x="449" 
d="M371 -1q-32 -8 -70 -9l-24 -38q29 -4 50 -23t21 -47q0 -43 -31 -63t-79 -20q-43 0 -72 18l16 47q26 -15 55 -15q17 0 28.5 7t11.5 23q-1 34 -78 40l41 74q-94 13 -149 78.5t-55 166.5q0 74 32.5 132.5t93 92t141.5 33.5q34 0 66 -6.5t54 -16.5l-21 -83q-36 20 -97 20
q-73 0 -115.5 -47t-41.5 -120q0 -77 44 -122t112 -45q51 0 101 21l16 -81q-18 -9 -50 -17z" />
    <glyph glyph-name="egrave" unicode="&#xe8;" horiz-adv-x="510" 
d="M329 550h-77l-122 146h111zM187 109q44 -36 110 -36q42 0 73 6t62 17l16 -76q-69 -30 -166 -30q-115 0 -180.5 66.5t-65.5 179.5q0 70 27.5 130t80.5 95.5t126 35.5q74 0 120 -35.5t66 -89t20 -109.5q0 -27 -4 -47h-331q2 -71 46 -107zM347.5 381q-25.5 40 -85.5 40
q-54 0 -85 -39.5t-36 -88.5h231q1 48 -24.5 88z" />
    <glyph glyph-name="eacute" unicode="&#xe9;" horiz-adv-x="510" 
d="M292 550h-77l88 146h111zM187 109q44 -36 110 -36q42 0 73 6t62 17l16 -76q-69 -30 -166 -30q-115 0 -180.5 66.5t-65.5 179.5q0 70 27.5 130t80.5 95.5t126 35.5q74 0 120 -35.5t66 -89t20 -109.5q0 -27 -4 -47h-331q2 -71 46 -107zM347.5 381q-25.5 40 -85.5 40
q-54 0 -85 -39.5t-36 -88.5h231q1 48 -24.5 88z" />
    <glyph glyph-name="ecircumflex" unicode="&#xea;" horiz-adv-x="510" 
d="M400 550h-77l-56 92h-2l-55 -92h-77l96 146h74zM187 109q44 -36 110 -36q42 0 73 6t62 17l16 -76q-69 -30 -166 -30q-115 0 -180.5 66.5t-65.5 179.5q0 70 27.5 130t80.5 95.5t126 35.5q74 0 120 -35.5t66 -89t20 -109.5q0 -27 -4 -47h-331q2 -71 46 -107zM347.5 381
q-25.5 40 -85.5 40q-54 0 -85 -39.5t-36 -88.5h231q1 48 -24.5 88z" />
    <glyph glyph-name="edieresis" unicode="&#xeb;" horiz-adv-x="510" 
d="M134.5 582.5q-16.5 16.5 -16.5 40.5t17 41t41 17q23 0 39 -16.5t16 -41.5q0 -24 -15.5 -40.5t-39.5 -16.5q-25 0 -41.5 16.5zM328.5 582.5q-16.5 16.5 -16.5 40.5t16.5 41t40.5 17t40 -16.5t16 -41.5q0 -24 -16 -40.5t-40 -16.5t-40.5 16.5zM187 109q44 -36 110 -36
q42 0 73 6t62 17l16 -76q-69 -30 -166 -30q-115 0 -180.5 66.5t-65.5 179.5q0 70 27.5 130t80.5 95.5t126 35.5q74 0 120 -35.5t66 -89t20 -109.5q0 -27 -4 -47h-331q2 -71 46 -107zM347.5 381q-25.5 40 -85.5 40q-54 0 -85 -39.5t-36 -88.5h231q1 48 -24.5 88z" />
    <glyph glyph-name="igrave" unicode="&#xec;" horiz-adv-x="247" 
d="M170 550h-76l-123 146h112zM69 486h109v-486h-109v486z" />
    <glyph glyph-name="iacute" unicode="&#xed;" horiz-adv-x="247" 
d="M146 550h-77l87 146h112zM69 486h109v-486h-109v486z" />
    <glyph glyph-name="icircumflex" unicode="&#xee;" horiz-adv-x="247" 
d="M258 550h-78l-56 92h-2l-55 -92h-77l96 146h75zM69 486h109v-486h-109v486z" />
    <glyph glyph-name="idieresis" unicode="&#xef;" horiz-adv-x="247" 
d="M-13.5 582.5q-16.5 16.5 -16.5 40.5t17 41t41 17q23 0 39 -16.5t16 -41.5q0 -24 -15.5 -40.5t-39.5 -16.5q-25 0 -41.5 16.5zM180 582.5q-16 16.5 -16 40.5t16.5 41t40.5 17t40 -16.5t16 -41.5q0 -24 -16 -40.5t-40 -16.5q-25 0 -41 16.5zM69 486h109v-486h-109v486z" />
    <glyph glyph-name="eth" unicode="&#xf0;" horiz-adv-x="552" 
d="M204 598q-43 30 -101 56l47 65q79 -33 147 -80l131 60l24 -49l-106 -48q84 -68 127 -156q41 -85 41 -192q0 -88 -33.5 -147.5t-88.5 -88.5t-119 -29q-67 0 -121 30.5t-85 86.5t-31 130t32 130t84.5 85.5t112.5 29.5q27 0 50.5 -8t45.5 -28l2 3q-41 66 -107 114l-143 -65
l-22 49zM367.5 117.5q34.5 48.5 34.5 125.5q0 45 -7 74.5t-24 49.5q-36 43 -94 43q-44 0 -73 -26.5t-42.5 -66t-13.5 -80.5q0 -71 35.5 -119.5t90.5 -48.5q59 0 93.5 48.5z" />
    <glyph glyph-name="ntilde" unicode="&#xf1;" horiz-adv-x="565" 
d="M172.5 647q19.5 30 54.5 30q16 0 29.5 -5t33.5 -16q29 -18 42 -18t19.5 9.5t7.5 33.5h55q1 -110 -74 -110q-15 0 -28.5 5t-34.5 16q-13 8 -23.5 12.5t-18.5 4.5q-22 0 -25 -45h-56q-1 53 18.5 83zM65 486h96l6 -76h2q20 35 61 61t96 26q43 0 82 -20t64.5 -66.5
t25.5 -121.5v-289h-109v276q0 59 -24 95t-76 36q-38 0 -66 -22.5t-39 -56.5q-6 -15 -6 -40v-288h-109v346q0 85 -4 140z" />
    <glyph glyph-name="ograve" unicode="&#xf2;" horiz-adv-x="558" 
d="M339 550h-76l-122 146h111zM408 465.5q54 -31.5 84 -88.5t30 -130q0 -85 -35 -143.5t-91.5 -86.5t-120.5 -28q-68 0 -122.5 30.5t-85.5 87t-31 132.5q0 79 32 137.5t88 89.5t127 31t125 -31.5zM181.5 365.5q-33.5 -51.5 -33.5 -123.5q0 -75 36.5 -124t94.5 -49
q38 0 67.5 22.5t46.5 62.5t17 90q0 42 -13.5 82t-43 65.5t-72.5 25.5q-66 0 -99.5 -51.5z" />
    <glyph glyph-name="oacute" unicode="&#xf3;" horiz-adv-x="558" 
d="M298 550h-77l87 146h112zM408 465.5q54 -31.5 84 -88.5t30 -130q0 -85 -35 -143.5t-91.5 -86.5t-120.5 -28q-68 0 -122.5 30.5t-85.5 87t-31 132.5q0 79 32 137.5t88 89.5t127 31t125 -31.5zM181.5 365.5q-33.5 -51.5 -33.5 -123.5q0 -75 36.5 -124t94.5 -49
q38 0 67.5 22.5t46.5 62.5t17 90q0 42 -13.5 82t-43 65.5t-72.5 25.5q-66 0 -99.5 -51.5z" />
    <glyph glyph-name="ocircumflex" unicode="&#xf4;" horiz-adv-x="558" 
d="M413 550h-78l-56 92h-2l-55 -92h-77l96 146h75zM408 465.5q54 -31.5 84 -88.5t30 -130q0 -85 -35 -143.5t-91.5 -86.5t-120.5 -28q-68 0 -122.5 30.5t-85.5 87t-31 132.5q0 79 32 137.5t88 89.5t127 31t125 -31.5zM181.5 365.5q-33.5 -51.5 -33.5 -123.5q0 -75 36.5 -124
t94.5 -49q38 0 67.5 22.5t46.5 62.5t17 90q0 42 -13.5 82t-43 65.5t-72.5 25.5q-66 0 -99.5 -51.5z" />
    <glyph glyph-name="otilde" unicode="&#xf5;" horiz-adv-x="558" 
d="M167.5 647q19.5 30 54.5 30q16 0 29.5 -5t33.5 -16q29 -18 42 -18t19.5 9.5t7.5 33.5h55q3 -110 -73 -110q-16 0 -29.5 5t-34.5 16q-13 8 -23 12.5t-18 4.5q-23 0 -26 -45h-56q-1 53 18.5 83zM408 465.5q54 -31.5 84 -88.5t30 -130q0 -85 -35 -143.5t-91.5 -86.5
t-120.5 -28q-68 0 -122.5 30.5t-85.5 87t-31 132.5q0 79 32 137.5t88 89.5t127 31t125 -31.5zM181.5 365.5q-33.5 -51.5 -33.5 -123.5q0 -75 36.5 -124t94.5 -49q38 0 67.5 22.5t46.5 62.5t17 90q0 42 -13.5 82t-43 65.5t-72.5 25.5q-66 0 -99.5 -51.5z" />
    <glyph glyph-name="odieresis" unicode="&#xf6;" horiz-adv-x="558" 
d="M141.5 582.5q-16.5 16.5 -16.5 40.5t17 41t41 17q23 0 39 -16.5t16 -41.5q0 -24 -15.5 -40.5t-39.5 -16.5q-25 0 -41.5 16.5zM335 582.5q-16 16.5 -16 40.5t16.5 41t40.5 17t40 -16.5t16 -41.5q0 -24 -16 -40.5t-40 -16.5q-25 0 -41 16.5zM408 465.5q54 -31.5 84 -88.5
t30 -130q0 -85 -35 -143.5t-91.5 -86.5t-120.5 -28q-68 0 -122.5 30.5t-85.5 87t-31 132.5q0 79 32 137.5t88 89.5t127 31t125 -31.5zM181.5 365.5q-33.5 -51.5 -33.5 -123.5q0 -75 36.5 -124t94.5 -49q38 0 67.5 22.5t46.5 62.5t17 90q0 42 -13.5 82t-43 65.5t-72.5 25.5
q-66 0 -99.5 -51.5z" />
    <glyph glyph-name="divide" unicode="&#xf7;" horiz-adv-x="596" 
d="M254.5 398q-16.5 17 -16.5 44q0 28 17 45t44 17q26 0 42 -17t17 -45q0 -27 -16.5 -44t-43.5 -17t-43.5 17zM40 303h516v-72h-516v72zM254.5 47q-16.5 17 -16.5 44q0 28 17 45t44 17q26 0 42 -17t17 -45q0 -27 -16.5 -44t-43.5 -17t-43.5 17z" />
    <glyph glyph-name="oslash" unicode="&#xf8;" horiz-adv-x="558" 
d="M402 465l43 63l44 -31l-43 -63q37 -34 56.5 -82t19.5 -106q0 -84 -35 -142t-90 -86.5t-117 -28.5q-70 0 -122 31l-45 -64l-41 33l43 62q-38 34 -58.5 82t-20.5 108q0 77 32 135t87.5 89.5t124.5 31.5q67 0 122 -32zM279 417q-69 0 -103 -52.5t-34 -122.5q0 -63 30 -106
l2 -1l179 256q-31 26 -74 26zM277 69q63 0 101 48.5t38 125.5q0 26 -6.5 53.5t-21.5 50.5h-2l-180 -253q28 -25 71 -25z" />
    <glyph glyph-name="ugrave" unicode="&#xf9;" horiz-adv-x="562" 
d="M336 550h-77l-122 146h112zM497 0h-96l-6 76h-2q-21 -35 -60.5 -61t-97.5 -26q-72 0 -120.5 49.5t-48.5 162.5v285h110v-267q0 -140 97 -140q37 0 64 21t39 50q7 15 7 41v295h110v-346q0 -88 4 -140z" />
    <glyph glyph-name="uacute" unicode="&#xfa;" horiz-adv-x="562" 
d="M309 550h-77l87 146h112zM497 0h-96l-6 76h-2q-21 -35 -60.5 -61t-97.5 -26q-72 0 -120.5 49.5t-48.5 162.5v285h110v-267q0 -140 97 -140q37 0 64 21t39 50q7 15 7 41v295h110v-346q0 -88 4 -140z" />
    <glyph glyph-name="ucircumflex" unicode="&#xfb;" horiz-adv-x="562" 
d="M415 550h-78l-55 92h-2l-56 -92h-77l96 146h75zM497 0h-96l-6 76h-2q-21 -35 -60.5 -61t-97.5 -26q-72 0 -120.5 49.5t-48.5 162.5v285h110v-267q0 -140 97 -140q37 0 64 21t39 50q7 15 7 41v295h110v-346q0 -88 4 -140z" />
    <glyph glyph-name="udieresis" unicode="&#xfc;" horiz-adv-x="562" 
d="M146.5 582.5q-16.5 16.5 -16.5 40.5t17 41t41 17q23 0 39 -16.5t16 -41.5q0 -24 -15.5 -40.5t-39.5 -16.5q-25 0 -41.5 16.5zM340 582.5q-16 16.5 -16 40.5t16.5 41t40.5 17t40 -16.5t16 -41.5q0 -24 -16 -40.5t-40 -16.5q-25 0 -41 16.5zM497 0h-96l-6 76h-2
q-21 -35 -60.5 -61t-97.5 -26q-72 0 -120.5 49.5t-48.5 162.5v285h110v-267q0 -140 97 -140q37 0 64 21t39 50q7 15 7 41v295h110v-346q0 -88 4 -140z" />
    <glyph glyph-name="yacute" unicode="&#xfd;" horiz-adv-x="488" 
d="M278 550h-77l88 146h111zM223 215q22 -69 29 -96h2q5 14 8 26.5t6 21.5q5 21 14 49l84 270h117l-126 -338q-50 -133 -87.5 -202t-80.5 -107q-32 -27 -64 -41.5t-57 -18.5l-26 92q41 12 74 38q19 13 38 35.5t32 49.5q7 16 7 22q0 10 -6 23l-179 447h120z" />
    <glyph glyph-name="thorn" unicode="&#xfe;" horiz-adv-x="579" 
d="M178 414h2q24 39 64.5 61t95.5 22t101.5 -30.5t73.5 -87.5t27 -131q0 -85 -31.5 -143.5t-82 -87t-106.5 -28.5q-46 0 -83 18.5t-59 51.5h-2v-257h-109v908h109v-296zM189 149q13 -34 43.5 -54.5t68.5 -20.5q59 0 95 47t36 126q0 69 -35 116t-94 47q-38 0 -69.5 -22
t-45.5 -60q-10 -26 -10 -47v-87q0 -25 11 -45z" />
    <glyph glyph-name="ydieresis" unicode="&#xff;" horiz-adv-x="488" 
d="M118.5 582.5q-16.5 16.5 -16.5 40.5t16.5 41t41.5 17q23 0 39 -16.5t16 -41.5q0 -24 -15.5 -40.5t-39.5 -16.5q-25 0 -41.5 16.5zM312 582.5q-16 16.5 -16 40.5t16.5 41t41.5 17q23 0 39 -16.5t16 -41.5q0 -24 -16 -40.5t-40 -16.5q-25 0 -41 16.5zM223 215
q22 -69 29 -96h2q5 14 8 26.5t6 21.5q5 21 14 49l84 270h117l-126 -338q-50 -133 -87.5 -202t-80.5 -107q-32 -27 -64 -41.5t-57 -18.5l-26 92q41 12 74 38q19 13 38 35.5t32 49.5q7 16 7 22q0 10 -6 23l-179 447h120z" />
    <glyph glyph-name="Amacron" unicode="&#x100;" horiz-adv-x="627" 
d="M434 733h-246v64h246v-64zM135 0h-113l222 674h136l223 -674h-116l-66 199h-223zM344 459q-15 46 -35 126h-2l-7 -28q-18 -73 -26 -97l-57 -178h185z" />
    <glyph glyph-name="amacron" unicode="&#x101;" horiz-adv-x="497" 
d="M366 585h-233v65h233v-65zM333 57h-3q-23 -30 -61 -49t-85 -19t-81 20t-52 53t-18 70q0 89 76 136t214 46v9q0 37 -21.5 66.5t-81.5 29.5q-35 0 -69.5 -10t-59.5 -27l-23 72q31 19 75.5 31t93.5 12q106 0 150.5 -57t44.5 -146v-177q0 -74 7 -117h-99zM142 143
q0 -37 21 -56t54 -19q39 0 66.5 21t37.5 52q5 13 5 27v74q-184 2 -184 -99z" />
    <glyph glyph-name="Abreve" unicode="&#x102;" horiz-adv-x="627" 
d="M312 775q60 0 69 48h60q-1 -51 -33.5 -82t-96.5 -31t-95.5 31t-32.5 82h61q10 -48 68 -48zM135 0h-113l222 674h136l223 -674h-116l-66 199h-223zM344 459q-15 46 -35 126h-2l-7 -28q-18 -73 -26 -97l-57 -178h185z" />
    <glyph glyph-name="abreve" unicode="&#x103;" horiz-adv-x="497" 
d="M202.5 637.5q17.5 -18.5 45.5 -18.5q31 0 48.5 19.5t20.5 46.5h61q-1 -59 -35.5 -94.5t-94.5 -35.5q-63 0 -95.5 37.5t-32.5 92.5h61q4 -29 21.5 -47.5zM333 57h-3q-23 -30 -61 -49t-85 -19t-81 20t-52 53t-18 70q0 89 76 136t214 46v9q0 37 -21.5 66.5t-81.5 29.5
q-35 0 -69.5 -10t-59.5 -27l-23 72q31 19 75.5 31t93.5 12q106 0 150.5 -57t44.5 -146v-177q0 -74 7 -117h-99zM142 143q0 -37 21 -56t54 -19q39 0 66.5 21t37.5 52q5 13 5 27v74q-184 2 -184 -99z" />
    <glyph glyph-name="Aogonek" unicode="&#x104;" horiz-adv-x="627" 
d="M554 0q-45 -51 -45 -86q0 -24 14.5 -38.5t37.5 -14.5q28 0 44 9l17 -54q-16 -12 -41 -19t-47 -7q-46 0 -73 24t-27 69q0 32 16 64t36 56l-65 196h-223l-63 -199h-113l222 674h136l223 -674h-49zM344 459q-15 46 -35 126h-2l-7 -28q-18 -73 -26 -97l-57 -178h185z" />
    <glyph glyph-name="aogonek" unicode="&#x105;" horiz-adv-x="497" 
d="M143.5 485q44.5 12 93.5 12q106 0 150.5 -57t44.5 -146v-177q0 -77 8 -117h-35q-13 -18 -23 -42.5t-10 -45.5q0 -24 13 -37t35 -13q23 0 45 10l17 -55q-36 -27 -91 -27q-42 0 -68 23.5t-26 66.5q0 33 11.5 60.5t31.5 61.5l-7 55h-3q-23 -30 -61 -49t-85 -19t-81 20
t-52 53t-18 70q0 89 76 136t214 46v9q0 37 -21.5 66.5t-81.5 29.5q-35 0 -69.5 -10t-59.5 -27l-23 72q31 19 75.5 31zM142 143q0 -37 21 -56t54 -19q39 0 66.5 21t37.5 52q5 13 5 27v74q-184 2 -184 -99z" />
    <glyph glyph-name="Cacute" unicode="&#x106;" horiz-adv-x="585" 
d="M391 712h-88l89 119h124zM479 -1q-47 -9 -104 -9q-102 0 -178.5 41t-118.5 117.5t-42 181.5q0 107 46 187.5t127 124t184 43.5q56 0 98 -9t64 -21l-24 -88q-59 27 -134 27q-73 0 -129 -30t-87 -88.5t-31 -140.5q0 -117 65 -185.5t180 -68.5q38 0 75 7t62 19l20 -86
q-26 -13 -73 -22z" />
    <glyph glyph-name="cacute" unicode="&#x107;" horiz-adv-x="449" 
d="M288 550h-77l87 146h112zM363 -2q-37 -8 -80 -8q-74 0 -130 30.5t-86.5 87t-30.5 130.5t32.5 132.5t93 92t141.5 33.5q34 0 66 -6.5t54 -16.5l-21 -83q-36 20 -97 20q-73 0 -115.5 -47t-41.5 -120q0 -77 44 -122t112 -45q51 0 101 21l16 -81q-21 -10 -58 -18z" />
    <glyph glyph-name="Ccircumflex" unicode="&#x108;" horiz-adv-x="585" 
d="M508 714h-85l-59 67h-2l-59 -67h-84l103 117h82zM479 -1q-47 -9 -104 -9q-102 0 -178.5 41t-118.5 117.5t-42 181.5q0 107 46 187.5t127 124t184 43.5q56 0 98 -9t64 -21l-24 -88q-59 27 -134 27q-73 0 -129 -30t-87 -88.5t-31 -140.5q0 -117 65 -185.5t180 -68.5
q38 0 75 7t62 19l20 -86q-26 -13 -73 -22z" />
    <glyph glyph-name="ccircumflex" unicode="&#x109;" horiz-adv-x="449" 
d="M396 550h-78l-56 92h-2l-55 -92h-77l96 146h75zM363 -2q-37 -8 -80 -8q-74 0 -130 30.5t-86.5 87t-30.5 130.5t32.5 132.5t93 92t141.5 33.5q34 0 66 -6.5t54 -16.5l-21 -83q-36 20 -97 20q-73 0 -115.5 -47t-41.5 -120q0 -77 44 -122t112 -45q51 0 101 21l16 -81
q-21 -10 -58 -18z" />
    <glyph glyph-name="Cdotaccent" unicode="&#x10a;" horiz-adv-x="585" 
d="M323.5 734q-16.5 17 -16.5 40t16.5 39.5t40.5 16.5q23 0 39 -16.5t16 -39.5t-16 -40t-39 -17q-24 0 -40.5 17zM479 -1q-47 -9 -104 -9q-102 0 -178.5 41t-118.5 117.5t-42 181.5q0 107 46 187.5t127 124t184 43.5q56 0 98 -9t64 -21l-24 -88q-59 27 -134 27
q-73 0 -129 -30t-87 -88.5t-31 -140.5q0 -117 65 -185.5t180 -68.5q38 0 75 7t62 19l20 -86q-26 -13 -73 -22z" />
    <glyph glyph-name="cdotaccent" unicode="&#x10b;" horiz-adv-x="449" 
d="M228.5 582.5q-16.5 16.5 -16.5 40.5q0 25 16.5 41.5t41.5 16.5q23 0 39 -16.5t16 -41.5q0 -24 -16 -40.5t-40 -16.5t-40.5 16.5zM363 -2q-37 -8 -80 -8q-74 0 -130 30.5t-86.5 87t-30.5 130.5t32.5 132.5t93 92t141.5 33.5q34 0 66 -6.5t54 -16.5l-21 -83q-36 20 -97 20
q-73 0 -115.5 -47t-41.5 -120q0 -77 44 -122t112 -45q51 0 101 21l16 -81q-21 -10 -58 -18z" />
    <glyph glyph-name="Ccaron" unicode="&#x10c;" horiz-adv-x="585" 
d="M222 829h85l60 -67h2l58 67h84l-102 -117h-83zM479 -1q-47 -9 -104 -9q-102 0 -178.5 41t-118.5 117.5t-42 181.5q0 107 46 187.5t127 124t184 43.5q56 0 98 -9t64 -21l-24 -88q-59 27 -134 27q-73 0 -129 -30t-87 -88.5t-31 -140.5q0 -117 65 -185.5t180 -68.5
q38 0 75 7t62 19l20 -86q-26 -13 -73 -22z" />
    <glyph glyph-name="ccaron" unicode="&#x10d;" horiz-adv-x="449" 
d="M129 696h78l56 -92h2l56 92h78l-96 -146h-77zM363 -2q-37 -8 -80 -8q-74 0 -130 30.5t-86.5 87t-30.5 130.5t32.5 132.5t93 92t141.5 33.5q34 0 66 -6.5t54 -16.5l-21 -83q-36 20 -97 20q-73 0 -115.5 -47t-41.5 -120q0 -77 44 -122t112 -45q51 0 101 21l16 -81
q-21 -10 -58 -18z" />
    <glyph glyph-name="Dcaron" unicode="&#x10e;" horiz-adv-x="676" 
d="M168 828h85l59 -66h2l59 66h83l-102 -116h-82zM265 679q93 0 160.5 -20t113.5 -60q101 -87 101 -246q0 -85 -26.5 -152.5t-75.5 -113.5t-126.5 -69.5t-175.5 -23.5q-96 0 -163 8v663q94 14 192 14zM258 80q129 0 198 70t69 202q0 115 -65 178.5t-187 63.5q-53 0 -91 -8
v-502q25 -4 76 -4z" />
    <glyph glyph-name="dcaron" unicode="&#x10f;" horiz-adv-x="585" 
d="M582 639q0 18 -8 35.5t-20 30.5l74 15q14 -9 24.5 -29.5t10.5 -44.5q0 -50 -20.5 -80t-47.5 -53l-47 33q34 45 34 93zM506 132q0 -88 4 -132h-98l-5 80h-2q-21 -41 -64 -66t-97 -25q-59 0 -106.5 31.5t-74.5 88t-27 130.5q0 78 29.5 136.5t79.5 90t109 31.5
q49 0 85.5 -19t54.5 -49h2v281h110v-578zM393 319q-9 40 -40 66.5t-74 26.5q-61 0 -96.5 -48t-35.5 -123q0 -72 34.5 -118t95.5 -46q41 0 73 25.5t42 68.5q4 16 4 37v77q0 19 -3 34z" />
    <glyph glyph-name="Dcroat" unicode="&#x110;" horiz-adv-x="682" 
d="M79 386v281q90 15 192 15q182 0 274 -80q101 -87 101 -249q0 -86 -26.5 -153.5t-75.5 -113.5t-126.5 -70t-175.5 -24q-96 0 -163 8v299h-79v87h79zM187 299v-217q20 -3 76 -3q130 0 199 70t69 205q0 116 -64.5 179t-188.5 63q-51 0 -91 -8v-202h165v-87h-165z" />
    <glyph glyph-name="dcroat" unicode="&#x111;" horiz-adv-x="575" 
d="M506 132q0 -88 4 -132h-98l-5 80h-2q-21 -41 -64 -66t-97 -25q-59 0 -106.5 31.5t-74.5 88t-27 130.5q0 78 29.5 136.5t79.5 90t109 31.5q49 0 85.5 -19t54.5 -49h2v119h-191v64h191v98h110v-98h78v-64h-78v-416zM393 319q-9 40 -40 66.5t-74 26.5q-61 0 -96.5 -48
t-35.5 -123q0 -72 34.5 -118t95.5 -46q41 0 73 25.5t42 68.5q4 16 4 37v77q0 19 -3 34z" />
    <glyph glyph-name="Emacron" unicode="&#x112;" horiz-adv-x="506" 
d="M386 733h-246v64h246v-64zM182 306v-216h287v-90h-396v674h381v-90h-272v-189h257v-89h-257z" />
    <glyph glyph-name="emacron" unicode="&#x113;" horiz-adv-x="510" 
d="M375 585h-234v65h234v-65zM187 109q44 -36 110 -36q42 0 73 6t62 17l16 -76q-69 -30 -166 -30q-115 0 -180.5 66.5t-65.5 179.5q0 70 27.5 130t80.5 95.5t126 35.5q74 0 120 -35.5t66 -89t20 -109.5q0 -27 -4 -47h-331q2 -71 46 -107zM347.5 381q-25.5 40 -85.5 40
q-54 0 -85 -39.5t-36 -88.5h231q1 48 -24.5 88z" />
    <glyph glyph-name="Ebreve" unicode="&#x114;" horiz-adv-x="506" 
d="M261 781q61 0 70 48h60q-1 -51 -33.5 -82t-96.5 -31t-95.5 31t-33.5 82h62q10 -48 67 -48zM182 306v-216h287v-90h-396v674h381v-90h-272v-189h257v-89h-257z" />
    <glyph glyph-name="ebreve" unicode="&#x115;" horiz-adv-x="510" 
d="M212.5 637.5q17.5 -18.5 45.5 -18.5q31 0 48 19.5t20 46.5h61q0 -58 -35 -94t-94 -36q-64 0 -96.5 37.5t-32.5 92.5h61q5 -29 22.5 -47.5zM187 109q44 -36 110 -36q42 0 73 6t62 17l16 -76q-69 -30 -166 -30q-115 0 -180.5 66.5t-65.5 179.5q0 70 27.5 130t80.5 95.5
t126 35.5q74 0 120 -35.5t66 -89t20 -109.5q0 -27 -4 -47h-331q2 -71 46 -107zM347.5 381q-25.5 40 -85.5 40q-54 0 -85 -39.5t-36 -88.5h231q1 48 -24.5 88z" />
    <glyph glyph-name="Edotaccent" unicode="&#x116;" horiz-adv-x="506" 
d="M223.5 735.5q-16.5 17.5 -16.5 39.5q0 23 16.5 39.5t39.5 16.5t39 -16.5t16 -39.5q0 -22 -16 -39.5t-39 -17.5t-39.5 17.5zM182 306v-216h287v-90h-396v674h381v-90h-272v-189h257v-89h-257z" />
    <glyph glyph-name="edotaccent" unicode="&#x117;" horiz-adv-x="510" 
d="M219.5 582.5q-16.5 16.5 -16.5 40.5q0 25 16.5 41.5t40.5 16.5t40 -16.5t16 -41.5q0 -24 -16 -40.5t-40 -16.5t-40.5 16.5zM187 109q44 -36 110 -36q42 0 73 6t62 17l16 -76q-69 -30 -166 -30q-115 0 -180.5 66.5t-65.5 179.5q0 70 27.5 130t80.5 95.5t126 35.5
q74 0 120 -35.5t66 -89t20 -109.5q0 -27 -4 -47h-331q2 -71 46 -107zM347.5 381q-25.5 40 -85.5 40q-54 0 -85 -39.5t-36 -88.5h231q1 48 -24.5 88z" />
    <glyph glyph-name="Eogonek" unicode="&#x118;" horiz-adv-x="506" 
d="M385 -210q-45 0 -70.5 22t-25.5 63q0 38 23 71t54 54h-293v674h381v-90h-272v-189h257v-89h-257v-216h287v-90h-19q-32 -21 -55 -48.5t-23 -52.5q0 -18 12 -28t31 -10q24 0 44 8l15 -55q-36 -24 -89 -24z" />
    <glyph glyph-name="eogonek" unicode="&#x119;" horiz-adv-x="510" 
d="M324 -210q-43 0 -68.5 22t-25.5 60q0 34 21.5 64.5t49.5 53.5v1q-7 -1 -22 -1q-75 0 -130 30.5t-84 86t-29 129.5q0 70 27.5 130t80.5 95.5t126 35.5q74 0 120 -35.5t66 -89t20 -109.5q0 -27 -4 -47h-331q2 -71 46 -107t110 -36q42 0 73 6t62 17l16 -76q-12 -6 -45 -16
q-32 -14 -61.5 -45.5t-29.5 -58.5q0 -19 11.5 -29t27.5 -10q23 0 46 10l17 -53q-37 -28 -90 -28zM347.5 381q-25.5 40 -85.5 40q-54 0 -85 -39.5t-36 -88.5h231q1 48 -24.5 88z" />
    <glyph glyph-name="Ecaron" unicode="&#x11a;" horiz-adv-x="506" 
d="M117 827h85l59 -67h2l59 67h83l-102 -117h-82zM182 306v-216h287v-90h-396v674h381v-90h-272v-189h257v-89h-257z" />
    <glyph glyph-name="ecaron" unicode="&#x11b;" horiz-adv-x="510" 
d="M123 696h78l56 -92h2l57 92h76l-96 -146h-76zM187 109q44 -36 110 -36q42 0 73 6t62 17l16 -76q-69 -30 -166 -30q-115 0 -180.5 66.5t-65.5 179.5q0 70 27.5 130t80.5 95.5t126 35.5q74 0 120 -35.5t66 -89t20 -109.5q0 -27 -4 -47h-331q2 -71 46 -107zM347.5 381
q-25.5 40 -85.5 40q-54 0 -85 -39.5t-36 -88.5h231q1 48 -24.5 88z" />
    <glyph glyph-name="Gcircumflex" unicode="&#x11c;" horiz-adv-x="658" 
d="M511 713h-85l-59 67h-2l-59 -67h-83l102 117h83zM389 -7q-165 0 -259 90q-44 42 -69 106t-25 139q0 104 45.5 184t129.5 124.5t196 44.5q56 0 102 -9.5t73 -22.5l-25 -88q-65 29 -152 29q-76 0 -133.5 -30t-89.5 -87t-32 -136t30.5 -136.5t85.5 -88t128 -30.5
q69 0 103 15v181h-126v87h231v-335q-108 -37 -213 -37z" />
    <glyph glyph-name="gcircumflex" unicode="&#x11d;" horiz-adv-x="568" 
d="M418 552h-78l-56 93h-2l-55 -93h-77l96 147h75zM499 349v-279q0 -80 -17 -133.5t-54 -86.5q-64 -59 -184 -59q-46 0 -91 10.5t-75 28.5l25 83q27 -16 64 -26.5t78 -10.5q67 0 106.5 38t39.5 117v47h-2q-21 -34 -59 -54.5t-87 -20.5q-60 0 -107 30.5t-73.5 84.5t-26.5 122
q0 78 30.5 136t81 89.5t108.5 31.5q54 0 90 -22.5t55 -56.5h2l4 68h96q-4 -68 -4 -137zM386 328q-12 37 -40.5 60.5t-69.5 23.5q-57 0 -93 -45.5t-36 -122.5q0 -69 34 -114t95 -45q37 0 66.5 21.5t41.5 58.5q6 21 6 45v82q0 21 -4 36z" />
    <glyph glyph-name="Gbreve" unicode="&#x11e;" horiz-adv-x="658" 
d="M320.5 798q15.5 -14 47.5 -14q60 0 69 48h60q-1 -51 -33.5 -82t-96.5 -31t-95.5 30.5t-32.5 82.5h62q4 -20 19.5 -34zM389 -7q-165 0 -259 90q-44 42 -69 106t-25 139q0 104 45.5 184t129.5 124.5t196 44.5q56 0 102 -9.5t73 -22.5l-25 -88q-65 29 -152 29
q-76 0 -133.5 -30t-89.5 -87t-32 -136t30.5 -136.5t85.5 -88t128 -30.5q69 0 103 15v181h-126v87h231v-335q-108 -37 -213 -37z" />
    <glyph glyph-name="gbreve" unicode="&#x11f;" horiz-adv-x="568" 
d="M232.5 637.5q17.5 -18.5 45.5 -18.5q31 0 48.5 19.5t20.5 46.5h61q-1 -59 -35.5 -94.5t-94.5 -35.5q-63 0 -95.5 37.5t-32.5 92.5h61q4 -29 21.5 -47.5zM499 349v-279q0 -80 -17 -133.5t-54 -86.5q-64 -59 -184 -59q-46 0 -91 10.5t-75 28.5l25 83q27 -16 64 -26.5
t78 -10.5q67 0 106.5 38t39.5 117v47h-2q-21 -34 -59 -54.5t-87 -20.5q-60 0 -107 30.5t-73.5 84.5t-26.5 122q0 78 30.5 136t81 89.5t108.5 31.5q54 0 90 -22.5t55 -56.5h2l4 68h96q-4 -68 -4 -137zM386 328q-12 37 -40.5 60.5t-69.5 23.5q-57 0 -93 -45.5t-36 -122.5
q0 -69 34 -114t95 -45q37 0 66.5 21.5t41.5 58.5q6 21 6 45v82q0 21 -4 36z" />
    <glyph glyph-name="Gdotaccent" unicode="&#x120;" horiz-adv-x="658" 
d="M326.5 734q-16.5 17 -16.5 40t16.5 39.5t40.5 16.5q23 0 38.5 -16.5t15.5 -39.5t-15.5 -40t-38.5 -17q-24 0 -40.5 17zM389 -7q-165 0 -259 90q-44 42 -69 106t-25 139q0 104 45.5 184t129.5 124.5t196 44.5q56 0 102 -9.5t73 -22.5l-25 -88q-65 29 -152 29
q-76 0 -133.5 -30t-89.5 -87t-32 -136t30.5 -136.5t85.5 -88t128 -30.5q69 0 103 15v181h-126v87h231v-335q-108 -37 -213 -37z" />
    <glyph glyph-name="gdotaccent" unicode="&#x121;" horiz-adv-x="568" 
d="M241.5 585q-16.5 17 -16.5 40q0 25 16.5 42t41.5 17q24 0 39.5 -17t15.5 -42q0 -23 -15.5 -40t-39.5 -17q-25 0 -41.5 17zM499 349v-279q0 -80 -17 -133.5t-54 -86.5q-64 -59 -184 -59q-46 0 -91 10.5t-75 28.5l25 83q27 -16 64 -26.5t78 -10.5q67 0 106.5 38t39.5 117
v47h-2q-21 -34 -59 -54.5t-87 -20.5q-60 0 -107 30.5t-73.5 84.5t-26.5 122q0 78 30.5 136t81 89.5t108.5 31.5q54 0 90 -22.5t55 -56.5h2l4 68h96q-4 -68 -4 -137zM386 328q-12 37 -40.5 60.5t-69.5 23.5q-57 0 -93 -45.5t-36 -122.5q0 -69 34 -114t95 -45q37 0 66.5 21.5
t41.5 58.5q6 21 6 45v82q0 21 -4 36z" />
    <glyph glyph-name="uni0122" unicode="&#x122;" horiz-adv-x="658" 
d="M389 -7q-165 0 -259 90q-44 42 -69 106t-25 139q0 104 45.5 184t129.5 124.5t196 44.5q56 0 102 -9.5t73 -22.5l-25 -88q-65 29 -152 29q-76 0 -133.5 -30t-89.5 -87t-32 -136t30.5 -136.5t85.5 -88t128 -30.5q69 0 103 15v181h-126v87h231v-335q-108 -37 -213 -37z
M326.5 -157.5q20.5 16.5 20.5 42.5q0 30 -32 60l79 15q17 -12 28 -31.5t11 -43.5q0 -54 -40.5 -82t-98.5 -31l-18 48q30 6 50.5 22.5z" />
    <glyph glyph-name="uni0123" unicode="&#x123;" horiz-adv-x="568" 
d="M311 650.5q-21 -15.5 -21 -42.5t33 -58l-75 -14q-17 12 -28.5 31t-11.5 41q0 51 40 77t99 29l19 -43q-34 -5 -55 -20.5zM499 349v-279q0 -80 -17 -133.5t-54 -86.5q-64 -59 -184 -59q-46 0 -91 10.5t-75 28.5l25 83q27 -16 64 -26.5t78 -10.5q67 0 106.5 38t39.5 117v47
h-2q-21 -34 -59 -54.5t-87 -20.5q-60 0 -107 30.5t-73.5 84.5t-26.5 122q0 78 30.5 136t81 89.5t108.5 31.5q54 0 90 -22.5t55 -56.5h2l4 68h96q-4 -68 -4 -137zM386 328q-12 37 -40.5 60.5t-69.5 23.5q-57 0 -93 -45.5t-36 -122.5q0 -69 34 -114t95 -45q37 0 66.5 21.5
t41.5 58.5q6 21 6 45v82q0 21 -4 36z" />
    <glyph glyph-name="Hcircumflex" unicode="&#x124;" horiz-adv-x="664" 
d="M477 710h-85l-59 67h-2l-59 -67h-83l101 117h83zM182 400h301v274h109v-674h-109v305h-301v-305h-109v674h109v-274z" />
    <glyph glyph-name="hcircumflex" unicode="&#x125;" horiz-adv-x="565" 
d="M272 731h-85l-59 66h-2l-59 -66h-83l101 117h83zM178 710v-294h2q23 36 62 58q41 23 87 23q42 0 80 -20.5t63.5 -67.5t25.5 -122v-287h-109v275q0 59 -24.5 95.5t-76.5 36.5q-37 0 -65 -22t-39 -54q-6 -14 -6 -40v-291h-109v710h109z" />
    <glyph glyph-name="Hbar" unicode="&#x126;" horiz-adv-x="672" 
d="M595 0h-109v287h-301v-287h-109v476h-59v69h59v129h109v-129h301v129h109v-129h60v-69h-60v-476zM185 476v-95h301v95h-301z" />
    <glyph glyph-name="hbar" unicode="&#x127;" horiz-adv-x="565" 
d="M389 275q0 59 -24.5 95.5t-76.5 36.5q-37 0 -65 -22t-39 -54q-6 -14 -6 -40v-291h-109v548h-78v64h78v98h109v-98h190v-64h-190v-132h2q25 38 62 58q41 23 87 23q42 0 80 -20.5t63.5 -67.5t25.5 -122v-287h-109v275z" />
    <glyph glyph-name="Itilde" unicode="&#x128;" horiz-adv-x="254" 
d="M16 795.5q19 29.5 53 29.5q16 0 29 -5t32 -15q16 -9 26.5 -13.5t20.5 -4.5q12 0 18 8.5t9 31.5h53q1 -106 -71 -106q-27 0 -62 19q-5 3 -15 8.5t-17.5 8t-13.5 2.5q-22 0 -25 -44h-55q-1 51 18 80.5zM182 0h-109v674h109v-674z" />
    <glyph glyph-name="itilde" unicode="&#x129;" horiz-adv-x="247" 
d="M12.5 647q19.5 30 54.5 30q16 0 29.5 -5t33.5 -16q29 -18 42 -18t19.5 9.5t7.5 33.5h55q3 -110 -73 -110q-16 0 -29.5 5t-34.5 16q-13 8 -23 12.5t-18 4.5q-23 0 -26 -45h-56q-1 53 18.5 83zM69 486h109v-486h-109v486z" />
    <glyph glyph-name="Imacron" unicode="&#x12a;" horiz-adv-x="254" 
d="M251 733h-246v64h246v-64zM182 0h-109v674h109v-674z" />
    <glyph glyph-name="imacron" unicode="&#x12b;" horiz-adv-x="247" 
d="M241 585h-234v65h234v-65zM69 486h109v-486h-109v486z" />
    <glyph glyph-name="Ibreve" unicode="&#x12c;" horiz-adv-x="254" 
d="M79.5 794q15.5 -14 47.5 -14q59 0 69 48h60q-1 -50 -33 -81t-96 -31t-96 30.5t-33 81.5h62q4 -20 19.5 -34zM182 0h-109v674h109v-674z" />
    <glyph glyph-name="ibreve" unicode="&#x12d;" horiz-adv-x="247" 
d="M80.5 637.5q17.5 -18.5 45.5 -18.5q31 0 48 19.5t20 46.5h61q0 -58 -35 -94t-94 -36q-64 0 -96.5 37.5t-32.5 92.5h61q5 -29 22.5 -47.5zM69 486h109v-486h-109v486z" />
    <glyph glyph-name="Iogonek" unicode="&#x12e;" horiz-adv-x="254" 
d="M139 0q-35 -50 -35 -88q0 -25 15 -39.5t37 -14.5q25 0 45 9l16 -54q-16 -13 -40.5 -19.5t-47.5 -6.5q-45 0 -72 24t-27 69q0 51 43 120v674h109v-674h-43z" />
    <glyph glyph-name="iogonek" unicode="&#x12f;" horiz-adv-x="247" 
d="M76 582.5q-18 18.5 -17 44.5q-1 27 17.5 45.5t47.5 18.5t47 -18.5t18 -45.5q0 -26 -18.5 -44.5t-47.5 -18.5t-47 18.5zM136 0q-36 -51 -36 -88q0 -25 15 -39.5t37 -14.5q24 0 46 9l15 -54q-16 -13 -40.5 -19.5t-47.5 -6.5q-45 0 -71.5 24t-26.5 69q0 53 42 120v486h109
v-486h-42z" />
    <glyph glyph-name="Idotaccent" unicode="&#x130;" horiz-adv-x="254" 
d="M88.5 735.5q-16.5 17.5 -16.5 39.5q0 23 16.5 39.5t40.5 16.5q22 0 38 -16.5t16 -39.5q0 -22 -16 -39.5t-38 -17.5q-24 0 -40.5 17.5zM182 0h-109v674h109v-674z" />
    <glyph glyph-name="dotlessi" unicode="&#x131;" horiz-adv-x="247" 
d="M69 486h109v-486h-109v486z" />
    <glyph glyph-name="IJ" unicode="&#x132;" horiz-adv-x="638" 
d="M182 0h-109v674h109v-674zM572 674v-443q0 -130 -56.5 -186t-159.5 -56q-25 0 -53 4.5t-46 11.5l14 88q33 -12 75 -12q59 0 88 34t29 122v437h109z" />
    <glyph glyph-name="ij" unicode="&#x133;" horiz-adv-x="506" 
d="M169 666.5q17 -17.5 18 -44.5q0 -26 -18 -44t-47 -18q-27 0 -44.5 18t-17.5 44q0 27 18 44.5t46 17.5t45 -17.5zM430 666.5q17 -17.5 18 -44.5q0 -26 -17.5 -44t-46.5 -18q-28 0 -45.5 18t-17.5 44q0 27 18 44.5t47 17.5q27 0 44 -17.5zM69 486h109v-486h-109v486z
M297 -88q18 20 25.5 57t7.5 117v400h110v-434q0 -75 -14.5 -123.5t-47.5 -80.5q-29 -28 -73.5 -42.5t-89.5 -14.5l-11 86q66 5 93 35z" />
    <glyph glyph-name="Jcircumflex" unicode="&#x134;" horiz-adv-x="384" 
d="M404 710h-84l-60 67h-2l-59 -67h-83l102 117h82zM317 674v-443q0 -130 -56.5 -186t-159.5 -56q-24 0 -52 4.5t-47 11.5l15 88q33 -12 74 -12q59 0 88.5 34t29.5 122v437h108z" />
    <glyph glyph-name="jcircumflex" unicode="&#x135;" horiz-adv-x="259" 
d="M264 545h-77l-56 92h-2l-55 -92h-77l96 146h75zM51 -88q18 20 25 57t7 117v400h109v-434q0 -75 -14.5 -123.5t-46.5 -80.5q-29 -28 -73.5 -42.5t-89.5 -14.5l-11 86q65 5 94 35z" />
    <glyph glyph-name="uni0136" unicode="&#x136;" horiz-adv-x="566" 
d="M181 674v-316h3q23 35 51 73l188 243h134l-237 -286l254 -388h-128l-203 318l-62 -73v-245h-108v674h108zM256.5 -157q20.5 16 20.5 42q0 17 -9.5 33t-23.5 28l79 15q16 -10 27.5 -31t11.5 -44q0 -54 -40 -82t-99 -31l-18 49q31 5 51.5 21z" />
    <glyph glyph-name="uni0137" unicode="&#x137;" horiz-adv-x="493" 
d="M180 269q11 18 40 56l128 161h131l-183 -199l209 -287h-134l-150 222l-43 -50v-172h-109v710h109v-441h2zM218.5 -158.5q20.5 16.5 20.5 43.5q0 29 -33 60l79 15q16 -11 27.5 -31.5t11.5 -43.5q0 -54 -40 -82.5t-99 -31.5l-18 49q31 5 51.5 21.5z" />
    <glyph glyph-name="kgreenlandic" unicode="&#x138;" horiz-adv-x="493" 
d="M180 269q11 18 40 56l128 161h131l-183 -199l209 -287h-134l-150 222l-43 -50v-172h-109v486h109v-217h2z" />
    <glyph glyph-name="Lacute" unicode="&#x139;" horiz-adv-x="485" 
d="M173 710h-89l90 119h124zM182 674v-583h281v-91h-390v674h109z" />
    <glyph glyph-name="lacute" unicode="&#x13a;" horiz-adv-x="249" 
d="M149 739h-88l90 119h124zM178 710v-710h-109v710h109z" />
    <glyph glyph-name="uni013B" unicode="&#x13b;" horiz-adv-x="485" 
d="M182 674v-583h281v-91h-390v674h109zM223.5 -157.5q20.5 16.5 20.5 42.5q0 29 -33 60l79 15q17 -12 28 -31.5t11 -43.5q0 -54 -40.5 -82t-98.5 -31l-18 48q31 6 51.5 22.5z" />
    <glyph glyph-name="uni013C" unicode="&#x13c;" horiz-adv-x="249" 
d="M178 710v-710h-109v710h109zM86.5 -158.5q20.5 16.5 20.5 43.5q0 30 -32 60l78 15q17 -12 28.5 -32t11.5 -43q0 -54 -40 -82.5t-99 -31.5l-19 49q31 5 51.5 21.5z" />
    <glyph glyph-name="Lcaron" unicode="&#x13d;" horiz-adv-x="485" 
d="M303.5 568q20.5 16 20.5 42q0 31 -32 61l78 15q17 -12 28.5 -32t11.5 -44q0 -53 -40.5 -81.5t-98.5 -30.5l-19 48q31 6 51.5 22zM182 674v-583h281v-91h-390v674h109z" />
    <glyph glyph-name="lcaron" unicode="&#x13e;" horiz-adv-x="258" 
d="M241.5 590q9.5 22 9.5 49q0 18 -8 35.5t-20 30.5l74 15q14 -9 24 -30t10 -47q0 -49 -19 -77.5t-45 -52.5l-50 33q15 22 24.5 44zM178 710v-710h-109v710h109z" />
    <glyph glyph-name="Ldot" unicode="&#x13f;" horiz-adv-x="485" 
d="M182 674v-583h281v-91h-390v674h109zM321.5 333.5q-16.5 16.5 -16.5 39.5t16.5 39.5t40.5 16.5q23 0 38.5 -16.5t15.5 -39.5t-15.5 -39.5t-39.5 -16.5q-23 0 -39.5 16.5z" />
    <glyph glyph-name="ldot" unicode="&#x140;" horiz-adv-x="299" 
d="M178 710v-710h-109v710h109zM235.5 344.5q-15.5 16.5 -15.5 39.5q0 24 15.5 40t38.5 16q22 0 36.5 -16t14.5 -40q0 -23 -14.5 -39.5t-36.5 -16.5q-23 0 -38.5 16.5z" />
    <glyph glyph-name="Lslash" unicode="&#x141;" horiz-adv-x="490" 
d="M78 258l-82 -58v80l82 58v336h108v-262l132 93v-81l-132 -93v-240h282v-91h-390v258z" />
    <glyph glyph-name="lslash" unicode="&#x142;" horiz-adv-x="257" 
d="M74 268l-67 -55v82l67 56v359h109v-276l71 59v-83l-71 -59v-351h-109v268z" />
    <glyph glyph-name="Nacute" unicode="&#x143;" horiz-adv-x="669" 
d="M363 710h-88l89 119h125zM73 674h122l191 -310q69 -112 117 -223l3 1q-11 110 -11 278v254h101v-674h-112l-191 315q-81 136 -123 229l-3 -1q7 -120 7 -283v-260h-101v674z" />
    <glyph glyph-name="nacute" unicode="&#x144;" horiz-adv-x="565" 
d="M303 550h-77l87 146h112zM65 486h96l6 -76h2q20 35 61 61t96 26q43 0 82 -20t64.5 -66.5t25.5 -121.5v-289h-109v276q0 59 -24 95t-76 36q-38 0 -66 -22.5t-39 -56.5q-6 -15 -6 -40v-288h-109v346q0 85 -4 140z" />
    <glyph glyph-name="uni0145" unicode="&#x145;" horiz-adv-x="669" 
d="M73 674h122l191 -310q69 -112 117 -223l3 1q-11 110 -11 278v254h101v-674h-112l-191 315q-81 136 -123 229l-3 -1q7 -120 7 -283v-260h-101v674zM304.5 -157q20.5 16 20.5 42q0 16 -9.5 32.5t-22.5 28.5l78 15q16 -11 27.5 -31.5t11.5 -44.5q0 -53 -40 -81.5t-98 -30.5
l-19 49q31 5 51.5 21z" />
    <glyph glyph-name="uni0146" unicode="&#x146;" horiz-adv-x="565" 
d="M65 486h96l6 -76h2q20 35 61 61t96 26q43 0 82 -20t64.5 -66.5t25.5 -121.5v-289h-109v276q0 59 -24 95t-76 36q-38 0 -66 -22.5t-39 -56.5q-6 -15 -6 -40v-288h-109v346q0 85 -4 140zM254.5 -157.5q20.5 15.5 20.5 42.5q0 31 -32 61l78 15q16 -11 28 -31.5t12 -44.5
q0 -53 -40.5 -81.5t-98.5 -30.5l-19 49q31 5 51.5 20.5z" />
    <glyph glyph-name="Ncaron" unicode="&#x147;" horiz-adv-x="669" 
d="M192 823h85l60 -67h2l58 67h83l-102 -117h-83zM73 674h122l191 -310q69 -112 117 -223l3 1q-11 110 -11 278v254h101v-674h-112l-191 315q-81 136 -123 229l-3 -1q7 -120 7 -283v-260h-101v674z" />
    <glyph glyph-name="ncaron" unicode="&#x148;" horiz-adv-x="565" 
d="M148 696h78l56 -92h2l56 92h77l-96 -146h-76zM65 486h96l6 -76h2q20 35 61 61t96 26q43 0 82 -20t64.5 -66.5t25.5 -121.5v-289h-109v276q0 59 -24 95t-76 36q-38 0 -66 -22.5t-39 -56.5q-6 -15 -6 -40v-288h-109v346q0 85 -4 140z" />
    <glyph glyph-name="napostrophe" unicode="&#x149;" horiz-adv-x="565" 
d="M40.5 605.5q9.5 19.5 9.5 43.5q0 16 -8 31.5t-20 25.5l75 20q13 -8 23.5 -28t10.5 -45q0 -44 -22 -73.5t-47 -47.5l-47 33q16 21 25.5 40.5zM65 486h96l6 -76h2q20 35 61 61t96 26q43 0 82 -20t64.5 -66.5t25.5 -121.5v-289h-109v276q0 59 -24 95t-76 36q-38 0 -66 -22.5
t-39 -56.5q-6 -15 -6 -40v-288h-109v346q0 85 -4 140z" />
    <glyph glyph-name="Eng" unicode="&#x14a;" horiz-adv-x="669" 
d="M73 674h122l191 -310q69 -112 117 -223l3 1q-11 110 -11 278v254h101v-633q0 -218 -205 -246l-23 84q57 12 86.5 39t35.5 73l-197 324q-81 136 -123 229l-3 -1q7 -120 7 -283v-260h-101v674z" />
    <glyph glyph-name="eng" unicode="&#x14b;" horiz-adv-x="565" 
d="M65 486h96l6 -76h2q20 35 61 61t96 26q43 0 82 -20t64.5 -66.5t25.5 -121.5v-230q0 -115 -53 -173.5t-142 -69.5l-21 86q55 11 81 45.5t26 98.5v230q0 59 -24 95t-76 36q-38 0 -66 -22.5t-39 -56.5q-6 -15 -6 -40v-288h-109v346q0 85 -4 140z" />
    <glyph glyph-name="Omacron" unicode="&#x14c;" horiz-adv-x="698" 
d="M473 738h-246v64h246v-64zM517 641q70 -44 107.5 -121.5t37.5 -175.5q0 -111 -41.5 -191.5t-114 -122t-163.5 -41.5t-161 43.5t-108 121.5t-38 177q0 104 40.5 184.5t112.5 125t165 44.5t163 -44zM242 561.5q-45 -35.5 -68 -95t-23 -132.5q0 -71 24 -129.5t68.5 -93
t105.5 -34.5q62 0 106.5 34.5t68 94.5t23.5 134q0 67 -22.5 125.5t-67 95t-107.5 36.5t-108 -35.5z" />
    <glyph glyph-name="omacron" unicode="&#x14d;" horiz-adv-x="558" 
d="M396 585h-234v65h234v-65zM408 465.5q54 -31.5 84 -88.5t30 -130q0 -85 -35 -143.5t-91.5 -86.5t-120.5 -28q-68 0 -122.5 30.5t-85.5 87t-31 132.5q0 79 32 137.5t88 89.5t127 31t125 -31.5zM181.5 365.5q-33.5 -51.5 -33.5 -123.5q0 -75 36.5 -124t94.5 -49
q38 0 67.5 22.5t46.5 62.5t17 90q0 42 -13.5 82t-43 65.5t-72.5 25.5q-66 0 -99.5 -51.5z" />
    <glyph glyph-name="Obreve" unicode="&#x14e;" horiz-adv-x="698" 
d="M301 800q16 -14 48 -14q59 0 69 48h60q-2 -50 -34 -81t-96 -31t-95.5 30.5t-33.5 81.5h62q4 -20 20 -34zM517 641q70 -44 107.5 -121.5t37.5 -175.5q0 -111 -41.5 -191.5t-114 -122t-163.5 -41.5t-161 43.5t-108 121.5t-38 177q0 104 40.5 184.5t112.5 125t165 44.5
t163 -44zM242 561.5q-45 -35.5 -68 -95t-23 -132.5q0 -71 24 -129.5t68.5 -93t105.5 -34.5q62 0 106.5 34.5t68 94.5t23.5 134q0 67 -22.5 125.5t-67 95t-107.5 36.5t-108 -35.5z" />
    <glyph glyph-name="obreve" unicode="&#x14f;" horiz-adv-x="558" 
d="M232.5 637.5q17.5 -18.5 45.5 -18.5q31 0 48.5 19.5t20.5 46.5h61q-1 -59 -35.5 -94.5t-94.5 -35.5q-63 0 -95.5 37.5t-32.5 92.5h61q4 -29 21.5 -47.5zM408 465.5q54 -31.5 84 -88.5t30 -130q0 -85 -35 -143.5t-91.5 -86.5t-120.5 -28q-68 0 -122.5 30.5t-85.5 87
t-31 132.5q0 79 32 137.5t88 89.5t127 31t125 -31.5zM181.5 365.5q-33.5 -51.5 -33.5 -123.5q0 -75 36.5 -124t94.5 -49q38 0 67.5 22.5t46.5 62.5t17 90q0 42 -13.5 82t-43 65.5t-72.5 25.5q-66 0 -99.5 -51.5z" />
    <glyph glyph-name="Ohungarumlaut" unicode="&#x150;" horiz-adv-x="698" 
d="M309 718h-78l75 114h111zM468 718h-78l75 114h110zM517 641q70 -44 107.5 -121.5t37.5 -175.5q0 -111 -41.5 -191.5t-114 -122t-163.5 -41.5t-161 43.5t-108 121.5t-38 177q0 104 40.5 184.5t112.5 125t165 44.5t163 -44zM242 561.5q-45 -35.5 -68 -95t-23 -132.5
q0 -71 24 -129.5t68.5 -93t105.5 -34.5q62 0 106.5 34.5t68 94.5t23.5 134q0 67 -22.5 125.5t-67 95t-107.5 36.5t-108 -35.5z" />
    <glyph glyph-name="ohungarumlaut" unicode="&#x151;" horiz-adv-x="558" 
d="M217 555h-66l74 141h98zM370 555h-65l74 141h98zM408 465.5q54 -31.5 84 -88.5t30 -130q0 -85 -35 -143.5t-91.5 -86.5t-120.5 -28q-68 0 -122.5 30.5t-85.5 87t-31 132.5q0 79 32 137.5t88 89.5t127 31t125 -31.5zM181.5 365.5q-33.5 -51.5 -33.5 -123.5
q0 -75 36.5 -124t94.5 -49q38 0 67.5 22.5t46.5 62.5t17 90q0 42 -13.5 82t-43 65.5t-72.5 25.5q-66 0 -99.5 -51.5z" />
    <glyph glyph-name="OE" unicode="&#x152;" horiz-adv-x="908" 
d="M514 0q-17 0 -65 -6q-60 -5 -83 -5q-105 0 -179.5 45.5t-112.5 123t-38 174.5q0 108 42 188t118 122.5t174 42.5q27 0 89 -5q50 -6 64 -6h333v-90h-273v-189h257v-90h-257v-215h287v-90h-356zM377 597q-68 0 -119 -32.5t-79 -92t-28 -139.5q0 -76 28 -134t81 -90t126 -32
q57 0 88 12v494q-37 14 -97 14z" />
    <glyph glyph-name="oe" unicode="&#x153;" horiz-adv-x="865" 
d="M548.5 111q42.5 -38 108.5 -38q41 0 70.5 6.5t61.5 19.5l18 -76q-31 -17 -76.5 -25.5t-87.5 -8.5q-62 0 -110.5 25.5t-77.5 79.5h-3q-27 -52 -76.5 -78.5t-108.5 -26.5q-65 0 -117.5 30.5t-83 88t-30.5 133.5t31 134.5t85.5 90t121.5 31.5q60 0 108 -28t71 -79h2
q27 52 72.5 79.5t101.5 27.5q73 0 118 -36t64.5 -89t19.5 -108q0 -32 -3 -46h-323q1 -69 43.5 -107zM703.5 380.5q-24.5 39.5 -83.5 39.5q-53 0 -82.5 -39.5t-32.5 -86.5h222q1 47 -23.5 86.5zM179.5 364q-31.5 -53 -31.5 -122q0 -74 35.5 -123.5t93.5 -49.5q57 0 91.5 48
t34.5 126q0 72 -32 123t-94 51q-66 0 -97.5 -53z" />
    <glyph glyph-name="Racute" unicode="&#x154;" horiz-adv-x="556" 
d="M298 712h-88l90 119h124zM252 679q72 0 120.5 -13t81.5 -41q27 -23 41.5 -57t14.5 -76q0 -63 -35 -107.5t-89 -62.5v-3q71 -25 96 -132q6 -22 8 -33q32 -128 45 -154h-112q-13 23 -46 160q-14 67 -42.5 94t-83.5 29h-70v-283h-108v665q70 14 179 14zM260 364
q66 0 104 31.5t38 85.5q0 57 -37.5 86t-103.5 30q-50 0 -80 -7v-226h79z" />
    <glyph glyph-name="racute" unicode="&#x155;" horiz-adv-x="345" 
d="M204 550h-76l87 146h111zM65 486h95l4 -94h4q17 49 53.5 77t79.5 28q14 0 27 -3v-103q-13 3 -33 3q-44 0 -74.5 -27.5t-39.5 -73.5q-3 -16 -3 -38v-255h-109v331q0 96 -4 155z" />
    <glyph glyph-name="uni0156" unicode="&#x156;" horiz-adv-x="556" 
d="M252 679q72 0 120.5 -13t81.5 -41q27 -23 41.5 -57t14.5 -76q0 -63 -35 -107.5t-89 -62.5v-3q71 -25 96 -132q6 -22 8 -33q32 -128 45 -154h-112q-13 23 -46 160q-14 67 -42.5 94t-83.5 29h-70v-283h-108v665q70 14 179 14zM260 364q66 0 104 31.5t38 85.5q0 57 -37.5 86
t-103.5 30q-50 0 -80 -7v-226h79zM249.5 -152q20.5 16 20.5 42q0 16 -9.5 32t-22.5 28l78 15q16 -11 27.5 -31t11.5 -44q0 -54 -40 -82.5t-98 -30.5l-19 49q31 6 51.5 22z" />
    <glyph glyph-name="uni0157" unicode="&#x157;" horiz-adv-x="345" 
d="M65 486h95l4 -94h4q17 49 53.5 77t79.5 28q14 0 27 -3v-103q-13 3 -33 3q-44 0 -74.5 -27.5t-39.5 -73.5q-3 -16 -3 -38v-255h-109v331q0 96 -4 155zM94.5 -158.5q20.5 16.5 20.5 43.5q0 30 -32 60l79 15q16 -11 27.5 -31.5t11.5 -43.5q0 -54 -40 -82.5t-99 -31.5l-19 49
q31 5 51.5 21.5z" />
    <glyph glyph-name="Rcaron" unicode="&#x158;" horiz-adv-x="556" 
d="M131 829h84l59 -67h2l59 67h83l-102 -117h-82zM252 679q72 0 120.5 -13t81.5 -41q27 -23 41.5 -57t14.5 -76q0 -63 -35 -107.5t-89 -62.5v-3q71 -25 96 -132q6 -22 8 -33q32 -128 45 -154h-112q-13 23 -46 160q-14 67 -42.5 94t-83.5 29h-70v-283h-108v665q70 14 179 14z
M260 364q66 0 104 31.5t38 85.5q0 57 -37.5 86t-103.5 30q-50 0 -80 -7v-226h79z" />
    <glyph glyph-name="rcaron" unicode="&#x159;" horiz-adv-x="345" 
d="M53 696h78l56 -92h2l56 92h77l-95 -146h-77zM65 486h95l4 -94h4q17 49 53.5 77t79.5 28q14 0 27 -3v-103q-13 3 -33 3q-44 0 -74.5 -27.5t-39.5 -73.5q-3 -16 -3 -38v-255h-109v331q0 96 -4 155z" />
    <glyph glyph-name="Sacute" unicode="&#x15a;" horiz-adv-x="509" 
d="M295 712h-88l89 119h125zM141 92q42 -12 86 -12q61 0 95 27.5t34 73.5q0 42 -27.5 69t-94.5 52q-88 31 -134 77.5t-46 115.5q0 54 28.5 97.5t80.5 68t121 24.5q91 0 157 -33l-28 -89q-22 13 -56 22.5t-76 9.5q-58 0 -87.5 -26.5t-29.5 -62.5q0 -40 29.5 -65t101.5 -53
q89 -34 131 -80.5t42 -118.5q0 -55 -28 -100t-84 -72t-136 -27q-50 0 -100 12t-79 30l25 91q33 -19 75 -31z" />
    <glyph glyph-name="sacute" unicode="&#x15b;" horiz-adv-x="409" 
d="M233 550h-77l88 146h111zM116 79.5q34 -10.5 66 -10.5q42 0 63 16.5t21 44.5q0 27 -18.5 44t-65.5 34q-67 23 -99.5 59.5t-32.5 81.5q0 41 22 75t62 53.5t94 19.5q37 0 69.5 -8.5t55.5 -21.5l-23 -77q-19 11 -45.5 19.5t-56.5 8.5q-34 0 -53.5 -16t-19.5 -42
q0 -24 19.5 -39.5t68.5 -33.5q66 -24 97 -59.5t32 -88.5q0 -67 -50.5 -108t-141.5 -41q-41 0 -78.5 9t-64.5 24l24 81q21 -14 55 -24.5z" />
    <glyph glyph-name="Scircumflex" unicode="&#x15c;" horiz-adv-x="509" 
d="M400 712h-84l-60 67h-2l-58 -67h-84l102 117h83zM141 92q42 -12 86 -12q61 0 95 27.5t34 73.5q0 42 -27.5 69t-94.5 52q-88 31 -134 77.5t-46 115.5q0 54 28.5 97.5t80.5 68t121 24.5q91 0 157 -33l-28 -89q-22 13 -56 22.5t-76 9.5q-58 0 -87.5 -26.5t-29.5 -62.5
q0 -40 29.5 -65t101.5 -53q89 -34 131 -80.5t42 -118.5q0 -55 -28 -100t-84 -72t-136 -27q-50 0 -100 12t-79 30l25 91q33 -19 75 -31z" />
    <glyph glyph-name="scircumflex" unicode="&#x15d;" horiz-adv-x="409" 
d="M341 550h-78l-56 92h-2l-55 -92h-77l96 146h75zM116 79.5q34 -10.5 66 -10.5q42 0 63 16.5t21 44.5q0 27 -18.5 44t-65.5 34q-67 23 -99.5 59.5t-32.5 81.5q0 41 22 75t62 53.5t94 19.5q37 0 69.5 -8.5t55.5 -21.5l-23 -77q-19 11 -45.5 19.5t-56.5 8.5q-34 0 -53.5 -16
t-19.5 -42q0 -24 19.5 -39.5t68.5 -33.5q66 -24 97 -59.5t32 -88.5q0 -67 -50.5 -108t-141.5 -41q-41 0 -78.5 9t-64.5 24l24 81q21 -14 55 -24.5z" />
    <glyph glyph-name="Scedilla" unicode="&#x15e;" horiz-adv-x="509" 
d="M357 585.5q-34 9.5 -76 9.5q-58 0 -87.5 -26.5t-29.5 -62.5q0 -40 29.5 -65t101.5 -53q89 -34 131 -80.5t42 -118.5t-46.5 -125t-135.5 -68l-24 -44q31 -6 51 -26t20 -51q0 -43 -31.5 -64t-76.5 -21q-20 0 -41 5t-35 13l16 50q24 -13 56 -13q18 0 29 7t11 21
q0 18 -20 27.5t-59 13.5l39 76q-48 0 -99 11.5t-81 30.5l25 91q33 -19 75 -31t86 -12q61 0 95 27.5t34 73.5q0 42 -27.5 69t-94.5 52q-88 31 -134 77.5t-46 115.5q0 54 28.5 97.5t80.5 68t121 24.5q91 0 157 -33l-28 -89q-22 13 -56 22.5z" />
    <glyph glyph-name="scedilla" unicode="&#x15f;" horiz-adv-x="409" 
d="M284.5 409.5q-26.5 8.5 -56.5 8.5q-34 0 -53.5 -16t-19.5 -42q0 -24 19.5 -39.5t68.5 -33.5q66 -24 97 -59.5t32 -88.5q0 -55 -35.5 -93.5t-100.5 -50.5l-26 -43q30 -4 50.5 -23t20.5 -47q0 -43 -30.5 -63t-79.5 -20q-19 0 -39 5t-33 13l17 47q24 -15 54 -15q18 0 29.5 7
t10.5 23q0 34 -77 40l38 71q-39 2 -74 10.5t-60 22.5l24 81q21 -14 55 -24.5t66 -10.5q42 0 63 16.5t21 44.5q0 27 -18.5 44t-65.5 34q-67 23 -99.5 59.5t-32.5 81.5q0 41 22 75t62 53.5t94 19.5q37 0 69.5 -8.5t55.5 -21.5l-23 -77q-19 11 -45.5 19.5z" />
    <glyph glyph-name="Scaron" unicode="&#x160;" horiz-adv-x="509" 
d="M120 829h85l60 -67h2l59 67h82l-101 -117h-83zM141 92q42 -12 86 -12q61 0 95 27.5t34 73.5q0 42 -27.5 69t-94.5 52q-88 31 -134 77.5t-46 115.5q0 54 28.5 97.5t80.5 68t121 24.5q91 0 157 -33l-28 -89q-22 13 -56 22.5t-76 9.5q-58 0 -87.5 -26.5t-29.5 -62.5
q0 -40 29.5 -65t101.5 -53q89 -34 131 -80.5t42 -118.5q0 -55 -28 -100t-84 -72t-136 -27q-50 0 -100 12t-79 30l25 91q33 -19 75 -31z" />
    <glyph glyph-name="scaron" unicode="&#x161;" horiz-adv-x="409" 
d="M73 696h78l57 -92h2l56 92h77l-96 -146h-77zM116 79.5q34 -10.5 66 -10.5q42 0 63 16.5t21 44.5q0 27 -18.5 44t-65.5 34q-67 23 -99.5 59.5t-32.5 81.5q0 41 22 75t62 53.5t94 19.5q37 0 69.5 -8.5t55.5 -21.5l-23 -77q-19 11 -45.5 19.5t-56.5 8.5q-34 0 -53.5 -16
t-19.5 -42q0 -24 19.5 -39.5t68.5 -33.5q66 -24 97 -59.5t32 -88.5q0 -67 -50.5 -108t-141.5 -41q-41 0 -78.5 9t-64.5 24l24 81q21 -14 55 -24.5z" />
    <glyph glyph-name="uni0162" unicode="&#x162;" horiz-adv-x="514" 
d="M262 -48q31 -6 51 -26t20 -51q0 -43 -31.5 -64t-77.5 -21q-20 0 -40.5 5t-34.5 13l16 50q24 -13 56 -13q17 0 28 7t11 21q0 18 -19.5 27.5t-58.5 13.5l43 86h-24v582h-197v92h506v-92h-199v-582h-22z" />
    <glyph glyph-name="uni0163" unicode="&#x163;" horiz-adv-x="343" 
d="M196 171q0 -47 14.5 -69.5t49.5 -22.5q27 0 49 6l3 -83q-14 -6 -37.5 -9t-45.5 -3l-23 -38q29 -4 49.5 -23t20.5 -47q0 -43 -30.5 -63t-78.5 -20q-44 0 -73 18l17 47q26 -15 54 -15q18 0 29.5 7t11.5 23q-1 34 -78 40l44 80q-30 11 -46 30q-37 38 -37 132v243h-71v82h71
v112l107 27v-139h121v-82h-121v-233z" />
    <glyph glyph-name="Tcaron" unicode="&#x164;" horiz-adv-x="514" 
d="M112 827h85l59 -67h2l59 67h83l-102 -117h-83zM4 582v92h506v-92h-199v-582h-110v582h-197z" />
    <glyph glyph-name="tcaron" unicode="&#x165;" horiz-adv-x="350" 
d="M290 611q11 19 11 43q0 16 -7.5 31t-18.5 26l74 14q14 -9 24 -28t10 -41q0 -46 -29 -76t-60 -40l-30 42q15 10 26 29zM196 486h121v-82h-121v-233q0 -47 14.5 -69.5t49.5 -22.5q27 0 49 6l3 -83q-31 -12 -85 -12q-32 0 -58 10t-43 29q-37 38 -37 132v243h-71v82h71v112
l107 27v-139z" />
    <glyph glyph-name="Tbar" unicode="&#x166;" horiz-adv-x="514" 
d="M311 379h121v-69h-121v-310h-110v310h-121v69h121v203h-197v92h506v-92h-199v-203z" />
    <glyph glyph-name="tbar" unicode="&#x167;" horiz-adv-x="343" 
d="M196 304h93v-63h-93v-70q0 -47 14.5 -69.5t49.5 -22.5q27 0 49 6l3 -83q-31 -12 -85 -12q-32 0 -58 10t-43 29q-37 38 -37 132v80h-65v63h65v100h-71v82h71v112l107 27v-139h121v-82h-121v-100z" />
    <glyph glyph-name="Utilde" unicode="&#x168;" horiz-adv-x="659" 
d="M218 795.5q19 29.5 53 29.5q16 0 28.5 -5t31.5 -15q12 -7 25 -12.5t22 -5.5q13 0 19 8.5t8 31.5h54q3 -106 -72 -106q-16 0 -30 4.5t-32 14.5q-4 2 -14 8t-17.5 8.5t-13.5 2.5q-21 0 -26 -44h-54q-1 51 18 80.5zM181 279q0 -101 39.5 -151.5t106.5 -50.5q72 0 111 50
t39 152v395h110v-388q0 -150 -71 -223.5t-193 -73.5q-118 0 -184.5 71.5t-66.5 223.5v390h109v-395z" />
    <glyph glyph-name="utilde" unicode="&#x169;" horiz-adv-x="562" 
d="M169.5 647q19.5 30 54.5 30q16 0 29.5 -5t33.5 -16q29 -18 42 -18t19.5 9.5t7.5 33.5h55q3 -110 -73 -110q-16 0 -29.5 5t-34.5 16q-13 8 -23 12.5t-18 4.5q-23 0 -26 -45h-56q-1 53 18.5 83zM497 0h-96l-6 76h-2q-21 -35 -60.5 -61t-97.5 -26q-72 0 -120.5 49.5
t-48.5 162.5v285h110v-267q0 -140 97 -140q37 0 64 21t39 50q7 15 7 41v295h110v-346q0 -88 4 -140z" />
    <glyph glyph-name="Umacron" unicode="&#x16a;" horiz-adv-x="659" 
d="M452 733h-245v64h245v-64zM181 279q0 -101 39.5 -151.5t106.5 -50.5q72 0 111 50t39 152v395h110v-388q0 -150 -71 -223.5t-193 -73.5q-118 0 -184.5 71.5t-66.5 223.5v390h109v-395z" />
    <glyph glyph-name="umacron" unicode="&#x16b;" horiz-adv-x="562" 
d="M398 585h-234v65h234v-65zM497 0h-96l-6 76h-2q-21 -35 -60.5 -61t-97.5 -26q-72 0 -120.5 49.5t-48.5 162.5v285h110v-267q0 -140 97 -140q37 0 64 21t39 50q7 15 7 41v295h110v-346q0 -88 4 -140z" />
    <glyph glyph-name="Ubreve" unicode="&#x16c;" horiz-adv-x="659" 
d="M281 796q16 -14 48 -14q59 0 69 48h60q-1 -50 -33.5 -81.5t-96.5 -31.5t-95.5 31t-33.5 82h62q4 -20 20 -34zM181 279q0 -101 39.5 -151.5t106.5 -50.5q72 0 111 50t39 152v395h110v-388q0 -150 -71 -223.5t-193 -73.5q-118 0 -184.5 71.5t-66.5 223.5v390h109v-395z" />
    <glyph glyph-name="ubreve" unicode="&#x16d;" horiz-adv-x="562" 
d="M234.5 637.5q17.5 -18.5 45.5 -18.5q31 0 48.5 19.5t20.5 46.5h61q-1 -59 -35.5 -94.5t-94.5 -35.5q-63 0 -95.5 37.5t-32.5 92.5h61q4 -29 21.5 -47.5zM497 0h-96l-6 76h-2q-21 -35 -60.5 -61t-97.5 -26q-72 0 -120.5 49.5t-48.5 162.5v285h110v-267q0 -140 97 -140
q37 0 64 21t39 50q7 15 7 41v295h110v-346q0 -88 4 -140z" />
    <glyph glyph-name="Uring" unicode="&#x16e;" horiz-adv-x="659" 
d="M406 850.5q28 -26.5 28 -66.5t-29 -66t-75 -26q-47 0 -76 26.5t-29 64.5q0 40 28.5 67t76.5 27t76 -26.5zM295 820.5q-13 -15.5 -13 -37.5q0 -19 13 -34t34 -15t34 14.5t13 35.5q0 22 -13 37t-34 15t-34 -15.5zM181 279q0 -101 39.5 -151.5t106.5 -50.5q72 0 111 50
t39 152v395h110v-388q0 -150 -71 -223.5t-193 -73.5q-118 0 -184.5 71.5t-66.5 223.5v390h109v-395z" />
    <glyph glyph-name="uring" unicode="&#x16f;" horiz-adv-x="562" 
d="M205 564q-29 26 -29 66q0 42 28.5 69.5t77.5 27.5q47 0 75.5 -27t28.5 -69q0 -40 -29.5 -66.5t-75.5 -26.5q-47 0 -76 26zM316.5 594.5q13.5 15.5 13.5 37.5q0 23 -13.5 38t-36.5 15q-22 0 -35 -15.5t-13 -38.5q0 -20 14 -36t34 -16q23 0 36.5 15.5zM497 0h-96l-6 76h-2
q-21 -35 -60.5 -61t-97.5 -26q-72 0 -120.5 49.5t-48.5 162.5v285h110v-267q0 -140 97 -140q37 0 64 21t39 50q7 15 7 41v295h110v-346q0 -88 4 -140z" />
    <glyph glyph-name="Uhungarumlaut" unicode="&#x170;" horiz-adv-x="659" 
d="M277 716h-77l74 114h111zM436 716h-78l75 114h110zM181 279q0 -101 39.5 -151.5t106.5 -50.5q72 0 111 50t39 152v395h110v-388q0 -150 -71 -223.5t-193 -73.5q-118 0 -184.5 71.5t-66.5 223.5v390h109v-395z" />
    <glyph glyph-name="uhungarumlaut" unicode="&#x171;" horiz-adv-x="562" 
d="M229 555h-65l73 141h98zM382 555h-65l74 141h97zM497 0h-96l-6 76h-2q-21 -35 -60.5 -61t-97.5 -26q-72 0 -120.5 49.5t-48.5 162.5v285h110v-267q0 -140 97 -140q37 0 64 21t39 50q7 15 7 41v295h110v-346q0 -88 4 -140z" />
    <glyph glyph-name="Uogonek" unicode="&#x172;" horiz-adv-x="659" 
d="M401.5 -202q-24.5 -7 -48.5 -7q-44 0 -69 22.5t-25 60.5q0 55 57 116l-6 -1q-111 5 -174.5 76t-63.5 219v390h109v-395q0 -101 39.5 -151.5t106.5 -50.5q72 0 111 50t39 152v395h110v-388q0 -125 -50 -196.5t-139 -90.5q-24 -22 -41 -47.5t-17 -48.5q0 -20 12 -30.5
t31 -10.5q22 0 45 10l16 -54q-18 -13 -42.5 -20z" />
    <glyph glyph-name="uogonek" unicode="&#x173;" horiz-adv-x="562" 
d="M497 0h-31q-34 -49 -34 -86q0 -24 14.5 -38.5t37.5 -14.5q27 0 45 8l16 -54q-16 -12 -40.5 -18.5t-47.5 -6.5q-46 0 -72.5 23.5t-26.5 68.5q0 51 43 120l-6 74h-2q-21 -35 -60.5 -61t-97.5 -26q-72 0 -120.5 49.5t-48.5 162.5v285h110v-267q0 -140 97 -140q37 0 64 21
t39 50q7 15 7 41v295h110v-346q0 -89 4 -140z" />
    <glyph glyph-name="Wcircumflex" unicode="&#x174;" horiz-adv-x="860" 
d="M577 710h-84l-60 67h-2l-59 -67h-83l102 117h82zM15 674h116l70 -320q28 -127 47 -234h2q13 81 51 235l79 319h115l72 -323q31 -137 44 -229h2q12 72 49 233l77 319h111l-185 -674h-116l-75 331q-30 125 -40 216h-2q-19 -110 -48 -216l-85 -331h-117z" />
    <glyph glyph-name="wcircumflex" unicode="&#x175;" horiz-adv-x="744" 
d="M505 550h-77l-56 92h-2l-55 -92h-77l96 146h75zM183 255q24 -98 33 -156h3q13 59 41 155l70 232h89l66 -227q23 -79 41 -160h3q9 64 34 160l60 227h107l-154 -486h-101l-64 211q-24 78 -39 157h-2q-12 -63 -40 -157l-69 -211h-101l-144 486h111z" />
    <glyph glyph-name="Ycircumflex" unicode="&#x176;" horiz-adv-x="562" 
d="M425 710h-84l-60 67h-2l-58 -67h-84l102 117h83zM225 283l-213 391h124l86 -178q30 -63 62 -136h2q19 46 62 136l88 178h123l-225 -389v-285h-109v283z" />
    <glyph glyph-name="ycircumflex" unicode="&#x177;" horiz-adv-x="488" 
d="M382 550h-78l-56 92h-2l-55 -92h-77l96 146h75zM223 215q22 -69 29 -96h2q5 14 8 26.5t6 21.5q5 21 14 49l84 270h117l-126 -338q-50 -133 -87.5 -202t-80.5 -107q-32 -27 -64 -41.5t-57 -18.5l-26 92q41 12 74 38q19 13 38 35.5t32 49.5q7 16 7 22q0 10 -6 23l-179 447
h120z" />
    <glyph glyph-name="Ydieresis" unicode="&#x178;" horiz-adv-x="562" 
d="M154 729.5q-16 16.5 -16 40.5t16.5 40t40.5 16q22 0 37.5 -16.5t15.5 -39.5q0 -24 -15 -40.5t-39 -16.5t-40 16.5zM346.5 729.5q-15.5 16.5 -15.5 40.5q0 23 16 39.5t40 16.5q23 0 38.5 -16.5t15.5 -39.5q0 -24 -15.5 -40.5t-39.5 -16.5t-39.5 16.5zM225 283l-213 391
h124l86 -178q30 -63 62 -136h2q19 46 62 136l88 178h123l-225 -389v-285h-109v283z" />
    <glyph glyph-name="Zacute" unicode="&#x179;" horiz-adv-x="561" 
d="M315 710h-88l89 119h124zM384 580v3h-325v91h466v-65l-352 -515v-3h357v-91h-502v61z" />
    <glyph glyph-name="zacute" unicode="&#x17a;" horiz-adv-x="442" 
d="M249 550h-77l87 146h112zM217 317q18 23 68 79v2h-247v88h380l-1 -67l-193 -249q-31 -41 -68 -81v-2h267v-87h-404v63z" />
    <glyph glyph-name="Zdotaccent" unicode="&#x17b;" horiz-adv-x="561" 
d="M244.5 734q-16.5 17 -16.5 40t16.5 39.5t40.5 16.5q23 0 38.5 -16.5t15.5 -39.5t-15.5 -40t-38.5 -17q-24 0 -40.5 17zM384 580v3h-325v91h466v-65l-352 -515v-3h357v-91h-502v61z" />
    <glyph glyph-name="zdotaccent" unicode="&#x17c;" horiz-adv-x="442" 
d="M183 583q-17 17 -17 40q0 25 16.5 41.5t41.5 16.5q24 0 40 -16.5t16 -41.5q0 -24 -16 -40.5t-40 -16.5t-41 17zM217 317q18 23 68 79v2h-247v88h380l-1 -67l-193 -249q-31 -41 -68 -81v-2h267v-87h-404v63z" />
    <glyph glyph-name="Zcaron" unicode="&#x17d;" horiz-adv-x="561" 
d="M146 827h84l59 -67h2l59 67h84l-103 -117h-82zM384 580v3h-325v91h466v-65l-352 -515v-3h357v-91h-502v61z" />
    <glyph glyph-name="zcaron" unicode="&#x17e;" horiz-adv-x="442" 
d="M96 696h78l56 -92h2l56 92h78l-96 -146h-77zM217 317q18 23 68 79v2h-247v88h380l-1 -67l-193 -249q-31 -41 -68 -81v-2h267v-87h-404v63z" />
    <glyph glyph-name="florin" unicode="&#x192;" horiz-adv-x="527" 
d="M208 405l5 41q11 87 56.5 151t143.5 64q48 -2 73 -15l-19 -79q-23 10 -50 10q-44 0 -67.5 -34t-29.5 -89l-6 -49h114v-78h-124l-23 -196q-13 -105 -53.5 -161t-128.5 -56q-53 0 -83 16l18 77q23 -10 53 -10q42 1 62 35.5t30 116.5l20 178h-87v78h96z" />
    <glyph glyph-name="Ohorn" unicode="&#x1a0;" horiz-adv-x="698" 
d="M697 667q0 -45 -26.5 -72t-78.5 -24q32 -41 51 -98.5t19 -128.5q0 -111 -41.5 -191.5t-114 -122t-163.5 -41.5t-161 43.5t-108 121.5t-38 177q0 104 40.5 184.5t112.5 125t165 44.5q54 0 110 -18q6 -2 33 -13q28 -12 44 -17.5t30 -5.5q42 0 42 43q0 33 -18 67l82 15
q20 -42 20 -89zM455.5 111.5q44.5 34.5 68 94.5t23.5 134q0 67 -22.5 125.5t-67 95t-107.5 36.5q-64 0 -109 -36.5t-67.5 -97t-22.5 -132.5q0 -69 24 -127t69 -92.5t105 -34.5q62 0 106.5 34.5z" />
    <glyph glyph-name="ohorn" unicode="&#x1a1;" horiz-adv-x="565" 
d="M572 492q0 -43 -25 -68t-70 -25q45 -61 45 -152q0 -85 -35 -143.5t-91.5 -86.5t-120.5 -28q-68 0 -122.5 30.5t-85.5 87t-31 132.5q0 79 32 137.5t88 89.5t127 31q45 0 85 -14q7 -1 28 -10q36 -16 56 -16q38 0 38 38q0 32 -17 63l80 14q19 -40 19 -80zM181.5 365.5
q-33.5 -51.5 -33.5 -123.5q0 -75 36.5 -124t94.5 -49q38 0 67.5 22.5t46.5 62.5t17 90q0 42 -13.5 82t-43 65.5t-72.5 25.5q-66 0 -99.5 -51.5z" />
    <glyph glyph-name="Uhorn" unicode="&#x1af;" horiz-adv-x="694" 
d="M698 706q0 -41 -24 -65.5t-72 -27.5l-15 -1v-326q0 -150 -71 -223.5t-193 -73.5q-118 0 -184.5 71.5t-66.5 223.5v390h109v-395q0 -101 39.5 -151.5t106.5 -50.5q72 0 111 50t39 152v395h92q26 0 37 9t11 29q0 30 -18 61l80 14q19 -40 19 -81z" />
    <glyph glyph-name="uhorn" unicode="&#x1b0;" horiz-adv-x="562" 
d="M590 521q0 -39 -24.5 -63.5t-62.5 -26.5l-10 -1v-290q0 -88 4 -140h-96l-6 76h-2q-21 -35 -60.5 -61t-97.5 -26q-72 0 -120.5 49.5t-48.5 162.5v285h110v-267q0 -140 97 -140q37 0 64 21t39 50q7 15 7 41v295h77q27 0 38 10t11 29q0 28 -19 61l80 13q20 -37 20 -78z" />
    <glyph glyph-name="Aringacute" unicode="&#x1fa;" horiz-adv-x="627" 
d="M352 874h-93l106 88h132zM247.5 715q-26.5 23 -26.5 58t26.5 59t71.5 24q44 0 69 -23.5t25 -59.5q0 -35 -26 -58t-69 -23q-44 0 -70.5 23zM349 745q12 11 12 29t-12.5 30t-32.5 12t-31 -12.5t-11 -30.5q0 -16 12 -27.5t31 -11.5q20 0 32 11zM135 0h-113l222 674h136
l223 -674h-116l-66 199h-223zM344 459q-15 46 -35 126h-2l-7 -28q-18 -73 -26 -97l-57 -178h185z" />
    <glyph glyph-name="aringacute" unicode="&#x1fb;" horiz-adv-x="497" 
d="M270 734h-76l108 109h112zM172.5 548.5q-29.5 26.5 -29.5 66.5q0 41 29 68.5t78 27.5q47 0 75 -27t28 -69q0 -40 -29.5 -66.5t-74.5 -26.5q-47 0 -76.5 26.5zM284.5 578.5q13.5 15.5 13.5 37.5t-13.5 37.5t-36.5 15.5q-22 0 -35 -16t-13 -38q0 -20 13.5 -36t34.5 -16
q23 0 36.5 15.5zM333 57h-3q-23 -30 -61 -49t-85 -19t-81 20t-52 53t-18 70q0 89 76 136t214 46v9q0 37 -21.5 66.5t-81.5 29.5q-35 0 -69.5 -10t-59.5 -27l-23 72q31 19 75.5 31t93.5 12q106 0 150.5 -57t44.5 -146v-177q0 -74 7 -117h-99zM142 143q0 -37 21 -56t54 -19
q39 0 66.5 21t37.5 52q5 13 5 27v74q-184 2 -184 -99z" />
    <glyph glyph-name="AEacute" unicode="&#x1fc;" horiz-adv-x="815" 
d="M484 710h-88l90 119h124zM301 674h453v-90h-284l23 -191h253v-90h-239l27 -213h250v-90h-344l-28 220h-203l-97 -220h-112zM379 491q-11 82 -12 105h-4l-40 -103l-80 -186h157z" />
    <glyph glyph-name="aeacute" unicode="&#x1fd;" horiz-adv-x="783" 
d="M413 550h-76l87 146h111zM466.5 112q40.5 -40 106.5 -40q44 0 75 7t59 20l18 -75q-67 -35 -166 -35q-63 0 -113 26.5t-72 73.5h-3q-25 -47 -72 -73.5t-108 -26.5q-49 0 -85 20t-54 52.5t-18 70.5q0 86 76.5 132t214.5 45v18q0 15 -9 36t-33 38t-65 17q-34 0 -68.5 -10.5
t-57.5 -26.5l-24 71q32 20 75 32.5t83 12.5q120 0 158 -95h2q27 45 70.5 70t98.5 25q68 0 112 -36t63 -88.5t19 -105.5q0 -29 -3 -44h-319q-1 -71 39.5 -111zM637.5 352.5q-9.5 28.5 -33 49t-61.5 20.5q-37 0 -63 -19.5t-39.5 -48t-14.5 -55.5h220q1 25 -8.5 53.5z
M194.5 218q-53.5 -22 -53.5 -78q0 -33 22 -52.5t55 -19.5q39 0 66 20.5t38 51.5q5 13 5 34v64q-79 2 -132.5 -20z" />
    <glyph glyph-name="Oslashacute" unicode="&#x1fe;" horiz-adv-x="698" 
d="M382 717h-88l90 119h124zM126 84q-43 46 -66.5 110.5t-23.5 139.5q0 102 40.5 182t112.5 124.5t162 44.5q92 0 162 -47l58 81l64 -43l-60 -86q42 -45 64.5 -109.5t22.5 -138.5q0 -111 -41.5 -191t-112.5 -121t-158 -41q-90 0 -162 47l-62 -87l-60 48zM351 599
q-65 0 -111 -35.5t-70 -95t-24 -130.5q0 -47 10.5 -85t31.5 -77l1 1l272 382q-48 40 -110 40zM349 75q63 0 109 35t70 95.5t24 134.5q0 85 -39 154l-3 1l-270 -380q45 -40 109 -40z" />
    <glyph glyph-name="oslashacute" unicode="&#x1ff;" horiz-adv-x="558" 
d="M301 550h-77l87 146h112zM402 465l43 63l44 -31l-43 -63q37 -34 56.5 -82t19.5 -106q0 -84 -35 -142t-90 -86.5t-117 -28.5q-70 0 -122 31l-45 -64l-41 33l43 62q-38 34 -58.5 82t-20.5 108q0 77 32 135t87.5 89.5t124.5 31.5q67 0 122 -32zM279 417q-69 0 -103 -52.5
t-34 -122.5q0 -63 30 -106l2 -1l179 256q-31 26 -74 26zM277 69q63 0 101 48.5t38 125.5q0 26 -6.5 53.5t-21.5 50.5h-2l-180 -253q28 -25 71 -25z" />
    <glyph glyph-name="uni0218" unicode="&#x218;" horiz-adv-x="509" 
d="M141 92q42 -12 86 -12q61 0 95 27.5t34 73.5q0 42 -27.5 69t-94.5 52q-88 31 -134 77.5t-46 115.5q0 54 28.5 97.5t80.5 68t121 24.5q91 0 157 -33l-28 -89q-22 13 -56 22.5t-76 9.5q-58 0 -87.5 -26.5t-29.5 -62.5q0 -40 29.5 -65t101.5 -53q89 -34 131 -80.5t42 -118.5
q0 -55 -28 -100t-84 -72t-136 -27q-50 0 -100 12t-79 30l25 91q33 -19 75 -31zM222.5 -158q20.5 16 20.5 43q0 29 -33 60l79 15q17 -12 28 -31.5t11 -43.5q0 -54 -40 -82.5t-98 -30.5l-19 48q31 6 51.5 22z" />
    <glyph glyph-name="uni0219" unicode="&#x219;" horiz-adv-x="409" 
d="M116 79.5q34 -10.5 66 -10.5q42 0 63 16.5t21 44.5q0 27 -18.5 44t-65.5 34q-67 23 -99.5 59.5t-32.5 81.5q0 41 22 75t62 53.5t94 19.5q37 0 69.5 -8.5t55.5 -21.5l-23 -77q-19 11 -45.5 19.5t-56.5 8.5q-34 0 -53.5 -16t-19.5 -42q0 -24 19.5 -39.5t68.5 -33.5
q66 -24 97 -59.5t32 -88.5q0 -67 -50.5 -108t-141.5 -41q-41 0 -78.5 9t-64.5 24l24 81q21 -14 55 -24.5zM171.5 -158.5q20.5 16.5 20.5 43.5q0 30 -32 60l79 15q16 -11 27.5 -31.5t11.5 -43.5q0 -54 -40 -82.5t-99 -31.5l-19 49q31 5 51.5 21.5z" />
    <glyph glyph-name="uni021A" unicode="&#x21a;" horiz-adv-x="514" 
d="M4 582v92h506v-92h-199v-582h-110v582h-197zM216.5 -158q20.5 16 20.5 43q0 30 -32 60l78 15q17 -12 28.5 -31.5t11.5 -43.5q0 -54 -40.5 -82t-98.5 -31l-19 48q31 6 51.5 22z" />
    <glyph glyph-name="uni021B" unicode="&#x21b;" horiz-adv-x="343" 
d="M196 486h121v-82h-121v-233q0 -47 14.5 -69.5t49.5 -22.5q27 0 49 6l3 -83q-31 -12 -85 -12q-32 0 -58 10t-43 29q-37 38 -37 132v243h-71v82h71v112l107 27v-139zM155.5 -162q20.5 16 20.5 42q0 31 -32 61l78 15q17 -12 28.5 -32t11.5 -44q0 -53 -40 -81.5t-99 -31.5
l-19 49q31 6 51.5 22z" />
    <glyph glyph-name="uni021C" unicode="&#x21c;" horiz-adv-x="499" 
d="M194 5.5q67 29.5 109 74.5t42 100q0 51 -35.5 85.5t-99.5 34.5q-16 0 -45 -5t-54 -13l-13 76q84 18 140.5 60.5t56.5 97.5q0 37 -29 60t-75 23q-36 0 -73.5 -11t-62.5 -24l-22 72q31 19 81 34t99 15q84 0 137.5 -41.5t53.5 -108.5q0 -53 -34 -96t-88 -67v-3
q78 -9 128 -57t50 -125q0 -79 -50 -144.5t-139.5 -108t-203.5 -52.5l-13 84q73 10 140 39.5z" />
    <glyph glyph-name="uni021D" unicode="&#x21d;" horiz-adv-x="443" 
d="M136 -108q62 15 114 53.5t52 102.5q0 43 -29 71.5t-90 28.5q-33 0 -87 -16l-15 76q180 41 180 129q0 35 -26 55t-72 20q-53 0 -122 -37l-21 72q32 21 77.5 35.5t93.5 14.5q80 0 128 -38t48 -102q0 -47 -27.5 -81.5t-78.5 -55.5v-3q70 -8 112 -50t42 -107
q0 -71 -45.5 -129.5t-129.5 -95.5t-194 -44l-11 84q39 2 101 17z" />
    <glyph glyph-name="uni0232" unicode="&#x232;" horiz-adv-x="562" 
d="M404 733h-246v64h246v-64zM225 283l-213 391h124l86 -178q30 -63 62 -136h2q19 46 62 136l88 178h123l-225 -389v-285h-109v283z" />
    <glyph glyph-name="uni0233" unicode="&#x233;" horiz-adv-x="488" 
d="M362 585h-234v65h234v-65zM223 215q22 -69 29 -96h2q5 14 8 26.5t6 21.5q5 21 14 49l84 270h117l-126 -338q-50 -133 -87.5 -202t-80.5 -107q-32 -27 -64 -41.5t-57 -18.5l-26 92q41 12 74 38q19 13 38 35.5t32 49.5q7 16 7 22q0 10 -6 23l-179 447h120z" />
    <glyph glyph-name="circumflex" unicode="&#x2c6;" 
d="M284 550h-78l-56 92h-2l-55 -92h-76l95 146h75z" />
    <glyph glyph-name="caron" unicode="&#x2c7;" 
d="M15 696h78l57 -92h2l56 92h77l-96 -146h-77z" />
    <glyph glyph-name="uni02C9" unicode="&#x2c9;" 
d="M267 585h-233v65h233v-65z" />
    <glyph glyph-name="breve" unicode="&#x2d8;" 
d="M104.5 637.5q17.5 -18.5 45.5 -18.5q31 0 48 19.5t20 46.5h61q0 -58 -35 -94t-94 -36q-64 0 -96.5 37.5t-32.5 92.5h61q5 -29 22.5 -47.5z" />
    <glyph glyph-name="dotaccent" unicode="&#x2d9;" 
d="M92.5 582.5q-16.5 16.5 -16.5 40.5q0 25 16.5 41.5t41.5 16.5q24 0 39.5 -16.5t15.5 -41.5q0 -24 -15.5 -40.5t-39.5 -16.5q-25 0 -41.5 16.5z" />
    <glyph glyph-name="ring" unicode="&#x2da;" 
d="M65.5 564q-29.5 26 -29.5 66q0 42 29 69.5t78 27.5q47 0 75 -27t28 -69q0 -40 -29.5 -66.5t-74.5 -26.5q-47 0 -76.5 26zM177 594.5q14 15.5 14 37.5t-13.5 37.5t-36.5 15.5q-22 0 -35 -15.5t-13 -38.5q0 -20 13.5 -36t34.5 -16q22 0 36 15.5z" />
    <glyph glyph-name="ogonek" unicode="&#x2db;" 
d="M142.5 -45q-11.5 -21 -11.5 -43q0 -23 14 -37t37 -14q25 0 45 9l17 -54q-16 -12 -40.5 -19t-46.5 -7q-47 0 -74 24t-27 69q0 32 16.5 64.5t36.5 55.5h65q-20 -27 -31.5 -48z" />
    <glyph glyph-name="tilde" unicode="&#x2dc;" 
d="M38.5 647q19.5 30 54.5 30q16 0 29.5 -5t33.5 -16q29 -18 42 -18t19.5 9.5t8.5 33.5h54q3 -110 -73 -110q-15 0 -29.5 5.5t-34.5 15.5q-13 8 -23 12.5t-18 4.5q-11 0 -17.5 -11.5t-7.5 -33.5h-56q-2 53 17.5 83z" />
    <glyph glyph-name="hungarumlaut" unicode="&#x2dd;" 
d="M94 555h-65l73 141h98zM248 555h-66l74 141h97z" />
    <glyph glyph-name="uni037E" unicode="&#x37e;" horiz-adv-x="225" 
d="M78.5 352q-19.5 20 -19.5 50q0 33 19 53.5t50 20.5t49.5 -20t19.5 -52q0 -31 -19 -51.5t-50 -20.5q-30 0 -49.5 20zM49 1.5q18 71.5 27 130.5l116 10q-21 -69 -50.5 -141.5t-55.5 -115.5l-74 -7q19 52 37 123.5z" />
    <glyph glyph-name="tonos" unicode="&#x384;" horiz-adv-x="302" 
d="M156 551h-73l51 146h105z" />
    <glyph glyph-name="dieresistonos" unicode="&#x385;" horiz-adv-x="376" 
d="M198 553h-58l22 163h87zM19.5 585.5q-14.5 15.5 -14.5 37.5t15.5 37t37.5 15q21 0 35.5 -15t14.5 -37t-14.5 -37.5t-36.5 -15.5q-23 0 -37.5 15.5zM279.5 585.5q-14.5 15.5 -14.5 37.5t15 37t37 15t36.5 -14.5t14.5 -37.5q0 -22 -14.5 -37.5t-36.5 -15.5
q-23 0 -37.5 15.5z" />
    <glyph glyph-name="Alphatonos" unicode="&#x386;" horiz-adv-x="631" 
d="M140 0h-113l221 674h137l223 -674h-117l-65 199h-224zM111 513h-63l6 161h93zM348 459q-14 48 -34 126h-2q-22 -90 -33 -125l-58 -178h185z" />
    <glyph glyph-name="anoteleia" unicode="&#x387;" horiz-adv-x="237" 
d="M64 261.5q-21 22.5 -21 56.5t21.5 56.5t54.5 22.5t53.5 -22t21.5 -57q0 -34 -21 -56.5t-55 -22.5q-33 0 -54 22.5z" />
    <glyph glyph-name="Epsilontonos" unicode="&#x388;" horiz-adv-x="588" 
d="M64 513h-64l5 161h94zM264 306v-216h287v-90h-396v674h382v-90h-273v-189h257v-89h-257z" />
    <glyph glyph-name="Etatonos" unicode="&#x389;" horiz-adv-x="747" 
d="M64 513h-64l5 161h94zM264 400h301v274h109v-674h-109v305h-301v-305h-109v674h109v-274z" />
    <glyph glyph-name="Iotatonos" unicode="&#x38a;" horiz-adv-x="337" 
d="M64 513h-64l5 161h94zM264 0h-109v674h109v-674z" />
    <glyph glyph-name="Omicrontonos" unicode="&#x38c;" horiz-adv-x="749" 
d="M568.5 641q70.5 -44 108 -121.5t37.5 -175.5q0 -111 -41.5 -191t-114 -122t-163.5 -42q-92 0 -161.5 43.5t-108 121.5t-38.5 177q0 104 40.5 184.5t112.5 125t164 44.5q94 0 164.5 -44zM64 513h-64l5 161h94zM293 561.5q-45 -35.5 -68 -95t-23 -132.5q0 -71 24 -129.5
t69 -93t106 -34.5t106 35t68.5 94.5t23.5 133.5q0 67 -22.5 125.5t-67.5 95t-108 36.5t-108 -35.5z" />
    <glyph glyph-name="Upsilontonos" unicode="&#x38e;" horiz-adv-x="729" 
d="M246.5 654q49.5 -24 84.5 -65q39 -42 64.5 -102t34.5 -134h5q11 71 40.5 130.5t69.5 102.5q36 39 81 64.5t80 29.5l19 -90q-43 -15 -88 -53.5t-82.5 -98.5t-56.5 -136q-18 -69 -18 -138v-164h-109v165q0 65 -13 135q-26 123 -85 199t-135 92l19 89q40 -2 89.5 -26z
M64 513h-64l5 161h94z" />
    <glyph glyph-name="Omegatonos" unicode="&#x38f;" horiz-adv-x="766" 
d="M78 84h142v4q-54 44 -91 115t-37 159q0 92 41.5 165.5t114.5 115.5t164 42q94 0 164.5 -42t108 -114t37.5 -158q0 -93 -37.5 -165t-92.5 -118v-4h143v-84h-268v66q62 44 102.5 118t40.5 167q-1 62 -24.5 118.5t-68.5 92t-107 35.5q-63 0 -109.5 -34t-71 -90.5
t-24.5 -121.5q0 -88 41.5 -168t100.5 -117v-66h-269v84zM64 513h-64l5 161h94z" />
    <glyph glyph-name="iotadieresistonos" unicode="&#x390;" horiz-adv-x="251" 
d="M144 542h-58l22 163h87zM-34.5 573.5q-14.5 15.5 -14.5 37.5t15.5 37t37.5 15q21 0 35.5 -15t14.5 -37t-14.5 -37.5t-36.5 -15.5q-23 0 -37.5 15.5zM225.5 573.5q-14.5 15.5 -14.5 37.5t15 37t37 15t36.5 -14.5t14.5 -37.5q0 -22 -14.5 -37.5t-36.5 -15.5
q-23 0 -37.5 15.5zM188.5 84.5q10.5 -12.5 36.5 -10.5l-6 -78q-19 -7 -48 -7q-49 0 -75.5 28.5t-26.5 100.5v368h109v-357q0 -32 10.5 -44.5z" />
    <glyph glyph-name="Alpha" unicode="&#x391;" horiz-adv-x="627" 
d="M135 0h-113l222 674h136l223 -674h-116l-66 199h-223zM344 459q-15 46 -35 126h-2l-7 -28q-18 -73 -26 -97l-57 -178h185z" />
    <glyph glyph-name="Beta" unicode="&#x392;" horiz-adv-x="563" 
d="M149 675q47 4 95 4q67 0 112 -10.5t78 -34.5q30 -20 47 -51.5t17 -72.5q0 -48 -29.5 -87.5t-83.5 -58.5v-2q58 -15 98 -58.5t40 -109.5q0 -83 -62 -138q-35 -32 -95 -47t-148 -15q-85 0 -145 8v663q29 6 76 10zM250 395q65 0 102 28.5t37 74.5q0 51 -35.5 75t-99.5 24
q-50 0 -73 -5v-197h69zM249 77q69 0 114 28.5t45 90.5q0 60 -45 89.5t-117 29.5h-65v-235q16 -3 68 -3z" />
    <glyph glyph-name="Gamma" unicode="&#x393;" horiz-adv-x="461" 
d="M450 583h-268v-583h-109v674h377v-91z" />
    <glyph glyph-name="uni0394" unicode="&#x394;" horiz-adv-x="629" 
d="M251 674h127l226 -615v-59h-582v58zM358 432q-35 99 -47 148h-4q-18 -68 -42 -137l-126 -353h342z" />
    <glyph glyph-name="Epsilon" unicode="&#x395;" horiz-adv-x="506" 
d="M182 306v-216h287v-90h-396v674h381v-90h-272v-189h257v-89h-257z" />
    <glyph glyph-name="Zeta" unicode="&#x396;" horiz-adv-x="561" 
d="M384 580v3h-325v91h466v-65l-352 -515v-3h357v-91h-502v61z" />
    <glyph glyph-name="Eta" unicode="&#x397;" horiz-adv-x="664" 
d="M182 400h301v274h109v-674h-109v305h-301v-305h-109v674h109v-274z" />
    <glyph glyph-name="Theta" unicode="&#x398;" horiz-adv-x="699" 
d="M183 32.5q-70 43.5 -108.5 121.5t-38.5 177q0 104 40.5 184.5t113 125t164.5 44.5q94 0 164.5 -44t108 -121.5t37.5 -175.5q0 -111 -41.5 -191t-114 -122t-163.5 -42q-92 0 -162 43.5zM456.5 111.5q45.5 34.5 69 94.5t23.5 134q0 67 -22.5 126t-67.5 95t-108 36
q-64 0 -109.5 -36t-68.5 -96t-23 -131q0 -69 24 -128t69 -94t106 -35q62 0 107.5 34.5zM475 301h-251v89h251v-89z" />
    <glyph glyph-name="Iota" unicode="&#x399;" horiz-adv-x="254" 
d="M182 0h-109v674h109v-674z" />
    <glyph glyph-name="Kappa" unicode="&#x39a;" horiz-adv-x="566" 
d="M181 674v-316h3q23 35 51 73l188 243h134l-237 -286l254 -388h-128l-203 318l-62 -73v-245h-108v674h108z" />
    <glyph glyph-name="Lambda" unicode="&#x39b;" horiz-adv-x="622" 
d="M344 444q-17 56 -35 133h-3l-6 -24q-16 -72 -26 -109l-138 -444h-114l222 674h135l225 -674h-118z" />
    <glyph glyph-name="Mu" unicode="&#x39c;" horiz-adv-x="818" 
d="M633 570h-3q-35 -124 -82 -258l-107 -306h-83l-97 301q-46 142 -72 263h-2q-7 -190 -13 -292l-16 -278h-102l45 674h142l99 -292q47 -153 64 -232h3q29 116 69 232l104 292h140l40 -674h-106l-15 283q-9 202 -8 287z" />
    <glyph glyph-name="Nu" unicode="&#x39d;" horiz-adv-x="669" 
d="M73 674h122l191 -310q69 -112 117 -223l3 1q-11 110 -11 278v254h101v-674h-112l-191 315q-81 136 -123 229l-3 -1q7 -120 7 -283v-260h-101v674z" />
    <glyph glyph-name="Xi" unicode="&#x39e;" horiz-adv-x="551" 
d="M505 585h-450v89h450v-89zM471 303h-384v89h384v-89zM516 0h-473v90h473v-90z" />
    <glyph glyph-name="Omicron" unicode="&#x39f;" horiz-adv-x="698" 
d="M517 641q70 -44 107.5 -121.5t37.5 -175.5q0 -111 -41.5 -191.5t-114 -122t-163.5 -41.5t-161 43.5t-108 121.5t-38 177q0 104 40.5 184.5t112.5 125t165 44.5t163 -44zM242 561.5q-45 -35.5 -68 -95t-23 -132.5q0 -71 24 -129.5t68.5 -93t105.5 -34.5q62 0 106.5 34.5
t68 94.5t23.5 134q0 67 -22.5 125.5t-67 95t-107.5 36.5t-108 -35.5z" />
    <glyph glyph-name="Pi" unicode="&#x3a0;" horiz-adv-x="645" 
d="M463 0v582h-281v-582h-109v674h499v-674h-109z" />
    <glyph glyph-name="Rho" unicode="&#x3a1;" horiz-adv-x="548" 
d="M253 679q131 0 194 -55q30 -25 47 -63t17 -83q0 -94 -56 -150q-35 -36 -89.5 -54.5t-120.5 -18.5q-41 0 -64 5v-260h-108v666q80 13 180 13zM246 341q73 0 114.5 35t41.5 98q0 59 -38.5 90t-106.5 31q-52 0 -76 -7v-241q25 -6 65 -6z" />
    <glyph glyph-name="Sigma" unicode="&#x3a3;" horiz-adv-x="561" 
d="M531 90v-90h-504v63l223 272l-210 267v72h461v-90h-322v-3l190 -242l-201 -245v-4h363z" />
    <glyph glyph-name="Tau" unicode="&#x3a4;" horiz-adv-x="514" 
d="M4 582v92h506v-92h-199v-582h-110v582h-197z" />
    <glyph glyph-name="Upsilon" unicode="&#x3a5;" horiz-adv-x="600" 
d="M117.5 654q49.5 -24 84.5 -65q39 -42 65 -102.5t34 -133.5h5q11 71 40.5 130.5t69.5 102.5q36 39 81 64.5t81 29.5l18 -90q-43 -15 -87.5 -53.5t-82 -98.5t-57.5 -136q-18 -76 -18 -138v-164h-109v165q0 73 -13 135q-26 123 -84.5 199t-134.5 92l18 89q40 -2 89.5 -26z
" />
    <glyph glyph-name="Phi" unicode="&#x3a6;" horiz-adv-x="740" 
d="M317 -27v53q-74 7 -138 43.5t-104 103t-40 160.5q0 97 42.5 166.5t107.5 107t134 43.5v51h104v-51q74 -7 138.5 -44t104 -105t39.5 -162t-39.5 -162t-104.5 -105.5t-140 -45.5v-53h-104zM237 540.5q-40 -28.5 -65.5 -81t-25.5 -124.5q0 -66 24.5 -116.5t63.5 -79.5
t84 -35v469q-41 -4 -81 -32.5zM506 137q39 28 63.5 78.5t24.5 120.5q0 72 -24.5 123.5t-63.5 80t-84 33.5v-469q45 5 84 33z" />
    <glyph glyph-name="Chi" unicode="&#x3a7;" horiz-adv-x="585" 
d="M359 140q-41 71 -72 129h-2q-25 -57 -66 -130l-72 -139h-125l202 341l-194 333h125l79 -146q28 -49 59 -114h2q19 44 56 114l81 146h124l-200 -328l207 -346h-126z" />
    <glyph glyph-name="Psi" unicode="&#x3a8;" horiz-adv-x="704" 
d="M589.5 276q-70.5 -71 -186.5 -77v-199h-102v199q-110 5 -183 66.5t-73 185.5v223h106v-205q0 -95 40 -138.5t111 -47.5v391h101v-392q67 4 109 53.5t42 156.5v182h106v-195q0 -132 -70.5 -203z" />
    <glyph glyph-name="uni03A9" unicode="&#x3a9;" horiz-adv-x="718" 
d="M31 84h141v4q-55 44 -92 115t-37 159q0 92 41.5 165.5t115 115.5t164.5 42q94 0 164.5 -42t108 -114t37.5 -158q0 -93 -37.5 -165t-92.5 -118v-4h143v-84h-267v66q62 44 101.5 118t39.5 167q0 62 -23.5 118.5t-68.5 92t-107 35.5q-63 0 -109.5 -34t-71 -90.5
t-24.5 -121.5q0 -88 41.5 -168t101.5 -117v-66h-269v84z" />
    <glyph glyph-name="Iotadieresis" unicode="&#x3aa;" horiz-adv-x="254" 
d="M-9 728.5q-16 16.5 -16 40.5q0 23 16.5 40t39.5 17t38.5 -16.5t15.5 -40.5t-15 -40.5t-39 -16.5t-40 16.5zM183.5 728.5q-15.5 16.5 -15.5 40.5t16 40.5t40 16.5q23 0 39 -17t16 -40q0 -24 -15.5 -40.5t-39.5 -16.5q-25 0 -40.5 16.5zM182 0h-109v674h109v-674z" />
    <glyph glyph-name="Upsilondieresis" unicode="&#x3ab;" horiz-adv-x="600" 
d="M168 713.5q-16 16.5 -16 40.5q0 23 16.5 39.5t40.5 16.5q23 0 38.5 -16t15.5 -40t-15.5 -40.5t-39.5 -16.5t-40 16.5zM361.5 713.5q-15.5 16.5 -15.5 40.5t15.5 40t39.5 16q23 0 38.5 -16t15.5 -40t-15 -40.5t-39 -16.5t-39.5 16.5zM117.5 654q49.5 -24 84.5 -65
q39 -42 65 -102.5t34 -133.5h5q11 71 40.5 130.5t69.5 102.5q36 39 81 64.5t81 29.5l18 -90q-43 -15 -87.5 -53.5t-82 -98.5t-57.5 -136q-18 -76 -18 -138v-164h-109v165q0 73 -13 135q-26 123 -84.5 199t-134.5 92l18 89q40 -2 89.5 -26z" />
    <glyph glyph-name="alphatonos" unicode="&#x3ac;" horiz-adv-x="562" 
d="M308 545h-73l50 146h105zM494.5 332q-4.5 -101 -4.5 -183q0 -42 11.5 -59.5t35.5 -17.5l-7 -78q-12 -5 -38 -5q-38 0 -61.5 24t-29.5 74h-2q-26 -46 -68 -72t-95 -26q-57 0 -102.5 30.5t-71.5 85.5t-26 128q0 77 31 137.5t81 93.5t106 33q50 0 87.5 -23.5t56.5 -66.5h4
q4 45 10 79h91q-4 -53 -8.5 -154zM179 123q32 -47 86 -47q40 0 72.5 33t43.5 79q5 25 5 62q0 33 -4 48q-9 48 -39.5 81t-71.5 33q-55 0 -89.5 -50t-34.5 -125q0 -67 32 -114z" />
    <glyph glyph-name="epsilontonos" unicode="&#x3ad;" horiz-adv-x="449" 
d="M274 545h-73l51 146h105zM347.5 1q-50.5 -12 -100.5 -12q-86 0 -148 36t-62 112q0 45 32.5 78.5t83.5 41.5v5q-45 11 -68.5 38t-23.5 64q0 34 22.5 64.5t67.5 49.5t109 19q96 0 153 -37l-21 -71q-19 11 -52.5 20t-66.5 9q-47 0 -75 -17t-28 -46q0 -30 34.5 -45.5
t93.5 -15.5h54v-75h-56q-66 0 -104.5 -17t-38.5 -54q0 -36 34.5 -56.5t85.5 -20.5q35 0 74.5 10.5t63.5 24.5l18 -73q-31 -20 -81.5 -32z" />
    <glyph glyph-name="etatonos" unicode="&#x3ae;" horiz-adv-x="565" 
d="M319 545h-74l52 146h104zM69 346q0 96 -15 140h98q13 -27 15 -76h2q20 35 61 61t96 26q43 0 82 -20t64.5 -66.5t25.5 -121.5v-310q0 -134 11 -177h-104q-16 34 -16 176v298q0 59 -24 95t-76 36q-38 0 -66 -22.5t-39 -56.5q-6 -15 -6 -40v-288h-109v346z" />
    <glyph glyph-name="iotatonos" unicode="&#x3af;" horiz-adv-x="251" 
d="M154 546h-73l51 146h105zM188.5 84.5q10.5 -12.5 36.5 -10.5l-6 -78q-19 -7 -48 -7q-49 0 -75.5 28.5t-26.5 100.5v368h109v-357q0 -32 10.5 -44.5z" />
    <glyph glyph-name="upsilondieresistonos" unicode="&#x3b0;" horiz-adv-x="535" 
d="M277 541h-57l21 163h88zM99 573.5q-15 15.5 -15 36.5q0 22 15.5 37.5t37.5 15.5t36.5 -15t14.5 -38q0 -21 -15 -36.5t-36 -15.5q-23 0 -38 15.5zM359 573.5q-15 15.5 -15 36.5q0 23 15.5 38t37.5 15t36.5 -15t14.5 -38q0 -21 -15 -36.5t-37 -15.5t-37 15.5zM481 405.5
q11 -51.5 11 -107.5q0 -129 -54 -219t-177 -90q-88 0 -143.5 51.5t-55.5 148.5v134q0 65 -2.5 103.5t-8.5 59.5h106q14 -19 14 -93v-192q0 -61 29 -91.5t70 -30.5q56 0 85.5 56.5t29.5 153.5q0 60 -10.5 116t-20.5 81h102q14 -29 25 -80.5z" />
    <glyph glyph-name="alpha" unicode="&#x3b1;" horiz-adv-x="562" 
d="M494.5 332q-4.5 -101 -4.5 -183q0 -42 11.5 -59.5t35.5 -17.5l-7 -78q-12 -5 -38 -5q-38 0 -61.5 24t-29.5 74h-2q-26 -46 -68 -72t-95 -26q-57 0 -102.5 30.5t-71.5 85.5t-26 128q0 77 31 137.5t81 93.5t106 33q50 0 87.5 -23.5t56.5 -66.5h4q4 45 10 79h91
q-4 -53 -8.5 -154zM179 123q32 -47 86 -47q40 0 72.5 33t43.5 79q5 25 5 62q0 33 -4 48q-9 48 -39.5 81t-71.5 33q-55 0 -89.5 -50t-34.5 -125q0 -67 32 -114z" />
    <glyph glyph-name="beta" unicode="&#x3b2;" horiz-adv-x="569" 
d="M173 -19q0 -130 12 -179h-102q-16 38 -16 170v454q0 97 20.5 152t55.5 88q58 55 149 55q54 0 95.5 -22.5t64.5 -63t23 -91.5q0 -50 -24.5 -92.5t-61.5 -61.5v-4q60 -13 102 -63t42 -126q0 -63 -29 -110.5t-77 -72.5t-105 -25q-93 0 -147 56h-2v-64zM225 92.5
q33 -20.5 74 -20.5q55 0 89.5 36.5t34.5 90.5q0 63 -39 98t-101 38q-9 1 -15.5 0.5t-10.5 -0.5v71q5 0 17 2q48 5 75 38.5t27 80.5q0 48 -25.5 78t-66.5 30q-54 0 -83 -48t-29 -145v-300q20 -29 53 -49.5z" />
    <glyph glyph-name="gamma" unicode="&#x3b3;" horiz-adv-x="481" 
d="M181 -108q0 110 -19 192q-23 108 -72.5 216t-97.5 186h122q35 -54 76.5 -158t60.5 -205h4q40 78 70 164t30 162l-1 37h104q3 -13 3 -35q0 -88 -47 -199.5t-125 -227.5q-6 -8 -6 -24q3 -78 3 -198h-107q2 60 2 90z" />
    <glyph glyph-name="delta" unicode="&#x3b4;" horiz-adv-x="556" 
d="M391.5 628.5q-37.5 12.5 -73.5 12.5q-35 0 -54 -11t-19 -28q0 -15 14 -29t53 -45l81 -65q62 -48 94 -103t32 -122q0 -74 -32 -130.5t-87.5 -87.5t-122.5 -31q-66 0 -121 29.5t-87.5 84.5t-32.5 129q0 86 50 148t128 99v4l-22 18q-25 23 -42 46.5t-17 54.5q0 30 20.5 57
t61 44.5t97.5 17.5q51 0 96 -14.5t70 -33.5l-31 -71q-18 14 -55.5 26.5zM183 348.5q-35 -48.5 -35 -115.5q0 -48 19 -85.5t50 -58t66 -20.5q54 0 90.5 44t36.5 116q0 91 -84 158l-51 41q-57 -31 -92 -79.5z" />
    <glyph glyph-name="epsilon" unicode="&#x3b5;" horiz-adv-x="449" 
d="M347.5 1q-50.5 -12 -100.5 -12q-86 0 -148 36t-62 112q0 45 32.5 78.5t83.5 41.5v5q-45 11 -68.5 38t-23.5 64q0 34 22.5 64.5t67.5 49.5t109 19q96 0 153 -37l-21 -71q-19 11 -52.5 20t-66.5 9q-47 0 -75 -17t-28 -46q0 -30 34.5 -45.5t93.5 -15.5h54v-75h-56
q-66 0 -104.5 -17t-38.5 -54q0 -36 34.5 -56.5t85.5 -20.5q35 0 74.5 10.5t63.5 24.5l18 -73q-31 -20 -81.5 -32z" />
    <glyph glyph-name="zeta" unicode="&#x3b6;" horiz-adv-x="420" 
d="M296 -73.5q10 34.5 12 54.5q-63 10 -116 28q-69 24 -111.5 78t-42.5 144q0 104 61.5 211.5t168.5 184.5v4h-63q-75 0 -115 11l11 72q32 -4 128 -4h173l16 -74q-74 -36 -136 -99t-97.5 -138.5t-35.5 -146.5q0 -69 28.5 -107.5t82.5 -58.5q30 -13 63.5 -19.5t79.5 -12.5
q4 -1 6.5 -4.5t2.5 -8.5q0 -44 -20.5 -100t-44.5 -87l-70 21q9 17 19 51.5z" />
    <glyph glyph-name="eta" unicode="&#x3b7;" horiz-adv-x="565" 
d="M69 346q0 96 -15 140h98q13 -27 15 -76h2q20 35 61 61t96 26q43 0 82 -20t64.5 -66.5t25.5 -121.5v-310q0 -134 11 -177h-104q-16 34 -16 176v298q0 59 -24 95t-76 36q-38 0 -66 -22.5t-39 -56.5q-6 -15 -6 -40v-288h-109v346z" />
    <glyph glyph-name="theta" unicode="&#x3b8;" horiz-adv-x="546" 
d="M98.5 84q-62.5 95 -62.5 277q0 103 28 185t83 128.5t132 46.5q115 0 173 -96.5t58 -263.5q0 -174 -59.5 -273t-176.5 -99q-113 0 -175.5 95zM368 576q-33 66 -95 66q-39 0 -68.5 -32t-45 -86.5t-15.5 -118.5h258q-1 105 -34 171zM180.5 136.5q35.5 -68.5 96.5 -68.5
q62 0 94 70t32 187h-258q0 -120 35.5 -188.5z" />
    <glyph glyph-name="iota" unicode="&#x3b9;" horiz-adv-x="251" 
d="M188.5 84.5q10.5 -12.5 36.5 -10.5l-6 -78q-19 -7 -48 -7q-49 0 -75.5 28.5t-26.5 100.5v368h109v-357q0 -32 10.5 -44.5z" />
    <glyph glyph-name="kappa" unicode="&#x3ba;" horiz-adv-x="511" 
d="M69 374q0 34 -3 66.5t-9 45.5h107q6 -9 10 -31t4 -53v-128h4q72 73 149 165l41 47h127v-5l-218 -217v-4q33 -7 65.5 -41.5t74.5 -93.5l84 -125h-126l-69 101q-37 53 -66 80.5t-58 28.5h-8v-210h-109v374z" />
    <glyph glyph-name="lambda" unicode="&#x3bb;" horiz-adv-x="487" 
d="M241 363h-5q-7 -32 -28 -102l-88 -261h-114l174 448q5 15 5 24q0 13 -7 28q-47 133 -118 133q-12 0 -18 -1l9 85q12 4 40 4q48 0 83.5 -27.5t61.5 -75.5t55 -125l185 -493h-116l-88 258q-24 76 -31 105z" />
    <glyph glyph-name="uni03BC" unicode="&#x3bc;" horiz-adv-x="564" 
d="M344.5 16q-34.5 -24 -81.5 -24q-30 0 -55 11.5t-39 33.5v-54q0 -133 11 -181h-97q-14 39 -14 178v506h109v-282q0 -57 24 -91.5t73 -34.5q36 0 64 21.5t40 50.5q7 19 7 41v295h108v-344q0 -37 10 -52.5t35 -17.5l-8 -77q-15 -6 -38 -6q-37 0 -62 20.5t-32 62.5h-3
q-17 -32 -51.5 -56z" />
    <glyph glyph-name="nu" unicode="&#x3bd;" horiz-adv-x="483" 
d="M203 229l23 -75l15 -50h3q111 222 111 339q0 29 -1 43h103q3 -16 3 -37q0 -92 -48 -201t-131 -248h-104l-175 486h117z" />
    <glyph glyph-name="xi" unicode="&#x3be;" horiz-adv-x="446" 
d="M345 358q-94 0 -143.5 -38.5t-49.5 -100.5q0 -54 36 -88t110 -53q53 -14 131 -25q10 0 10 -12q0 -41 -20 -99.5t-44 -87.5l-70 21q9 17 18.5 52t11.5 54q-82 12 -146 33.5t-108.5 68.5t-44.5 125q0 71 44 123.5t112 71.5v5q-53 18 -81 55t-28 87q0 45 24.5 84t73.5 63
t118 24q77 0 128 -27l-20 -74q-18 9 -43.5 15.5t-52.5 6.5q-56 0 -87 -29.5t-31 -72.5q0 -48 37.5 -74.5t98.5 -29.5q13 -1 44 -1v-77h-28z" />
    <glyph glyph-name="omicron" unicode="&#x3bf;" horiz-adv-x="558" 
d="M408 465.5q54 -31.5 84 -88.5t30 -130q0 -85 -35 -143.5t-91.5 -86.5t-120.5 -28q-68 0 -122.5 30.5t-85.5 87t-31 132.5q0 79 32 137.5t88 89.5t127 31t125 -31.5zM181.5 365.5q-33.5 -51.5 -33.5 -123.5q0 -75 36.5 -124t94.5 -49q38 0 67.5 22.5t46.5 62.5t17 90
q0 42 -13.5 82t-43 65.5t-72.5 25.5q-66 0 -99.5 -51.5z" />
    <glyph glyph-name="pi" unicode="&#x3c0;" horiz-adv-x="570" 
d="M472 147q0 -97 13 -147h-105q-16 26 -16 137v264h-141q-2 -97 -20.5 -221t-42.5 -180h-105q25 70 43 189t20 212q-66 0 -95 -8l-13 64q38 29 151 29h387l-12 -85h-64v-254z" />
    <glyph glyph-name="rho" unicode="&#x3c1;" horiz-adv-x="572" 
d="M64 -23v223q0 90 21 141.5t57 87.5q68 68 166 68q68 0 120 -31.5t80 -88t28 -129.5q0 -82 -31.5 -140.5t-82.5 -88.5t-109 -30q-45 0 -81 17t-56 46h-3v-73q0 -132 8 -177h-106q-11 38 -11 175zM177 159q10 -36 42.5 -60.5t73.5 -24.5q62 0 97.5 48t35.5 124
q0 69 -33.5 115t-91.5 46q-34 0 -63 -19.5t-47 -59t-18 -97.5v-39q0 -20 4 -33z" />
    <glyph glyph-name="uni03C2" unicode="&#x3c2;" horiz-adv-x="431" 
d="M308 413q-47 0 -83.5 -23t-56.5 -62.5t-20 -86.5q0 -63 32 -101.5t94 -57.5q52 -14 132 -28q10 -1 10 -14q0 -44 -20 -101.5t-43 -85.5l-71 22q9 16 19 51.5t12 53.5l-21 4q-58 13 -71 16q-83 24 -134 81t-51 151q0 68 32 129t93.5 98.5t144.5 37.5q33 0 63 -6t51 -17
l-23 -78q-45 17 -89 17z" />
    <glyph glyph-name="sigma" unicode="&#x3c3;" horiz-adv-x="567" 
d="M476 418q-10 0 -44 2v-4q38 -29 59.5 -75.5t21.5 -96.5q0 -84 -34 -141.5t-88 -85.5t-116 -28q-68 0 -122.5 30t-85.5 86.5t-31 132.5q0 79 32 137.5t90 90t135 31.5h263l-4 -82q-22 0 -76 3zM342.5 91.5q29.5 22.5 46 63t16.5 90.5q0 42 -13.5 81.5t-42 65t-70.5 25.5
q-64 0 -97.5 -51.5t-33.5 -123.5q0 -74 36 -123.5t93 -49.5q36 0 65.5 22.5z" />
    <glyph glyph-name="tau" unicode="&#x3c4;" horiz-adv-x="426" 
d="M275 -11q-65 0 -94 38.5t-29 119.5v254h-49q-59 0 -96 -7l-14 64q39 28 145 28h280l-13 -85h-144v-250q0 -76 54 -76h20l-4 -77q-20 -9 -56 -9z" />
    <glyph glyph-name="upsilon" unicode="&#x3c5;" horiz-adv-x="535" 
d="M481 405.5q11 -51.5 11 -107.5q0 -129 -54 -219t-177 -90q-88 0 -143.5 51.5t-55.5 148.5v134q0 65 -2.5 103.5t-8.5 59.5h106q14 -19 14 -93v-192q0 -61 29 -91.5t70 -30.5q56 0 85.5 56.5t29.5 153.5q0 60 -10.5 116t-20.5 81h102q14 -29 25 -80.5z" />
    <glyph glyph-name="phi" unicode="&#x3c6;" horiz-adv-x="665" 
d="M175 361.5q-30 -47.5 -30 -113.5q0 -71 36.5 -120t103.5 -61v274q0 78 38.5 116.5t97.5 38.5q51 0 99 -30t78 -85t30 -126q0 -79 -34.5 -137t-90 -90t-119.5 -38v-188h-99v188q-65 5 -122 34t-92 84.5t-35 136.5q0 65 27 117t66 86t78 49l41 -60q-43 -28 -73 -75.5z
M486 125.5q38 49.5 38 127.5q0 45 -15 83.5t-39 60.5t-49 22q-17 0 -27 -15t-10 -44v-293q64 9 102 58.5z" />
    <glyph glyph-name="chi" unicode="&#x3c7;" horiz-adv-x="473" 
d="M244 238h4q22 50 46 100l67 148h105l-170 -329l174 -348l-103 -26l-134 282h-5l-16 -38l-27 -62l-85 -182l-93 27l173 346l-166 330h117z" />
    <glyph glyph-name="psi" unicode="&#x3c8;" horiz-adv-x="679" 
d="M63 246v123q0 84 -7 117h100q12 -16 12 -93v-138q0 -96 36 -140t94 -48v546h98v-546q62 2 98.5 63t36.5 157q0 67 -11 122.5t-23 76.5h99q17 -28 28 -78t11 -113q0 -78 -24 -145.5t-77.5 -111.5t-137.5 -49v-187h-99v187q-234 15 -234 257z" />
    <glyph glyph-name="omega" unicode="&#x3c9;" horiz-adv-x="707" 
d="M422 108.5q20 -28.5 52 -28.5q24 0 44.5 20t33 60.5t12.5 97.5q0 67 -21 128t-55 97v3h101q34 -31 58 -92.5t24 -138.5q0 -85 -26.5 -145.5t-69.5 -90.5t-94 -30q-44 0 -78 22.5t-50 60.5h-4q-18 -38 -52 -60.5t-77 -22.5q-48 0 -90 27.5t-68 85.5t-26 143
q0 78 24.5 141.5t59.5 99.5h100v-3q-35 -39 -56 -100.5t-21 -132.5q0 -58 13.5 -96t34.5 -56t43 -18q30 0 50 29t19 70l-2 182h103l-2 -181q0 -43 20 -71.5z" />
    <glyph glyph-name="iotadieresis" unicode="&#x3ca;" horiz-adv-x="251" 
d="M-10.5 569.5q-16.5 16.5 -16.5 40.5q0 25 17 41.5t41 16.5q23 0 39 -16.5t16 -41.5q0 -24 -15.5 -40.5t-39.5 -16.5q-25 0 -41.5 16.5zM183.5 569.5q-16.5 16.5 -16.5 40.5q0 25 16.5 41.5t41.5 16.5q24 0 39.5 -16.5t15.5 -41.5q0 -24 -15.5 -40.5t-40.5 -16.5
q-24 0 -40.5 16.5zM188.5 84.5q10.5 -12.5 36.5 -10.5l-6 -78q-19 -7 -48 -7q-49 0 -75.5 28.5t-26.5 100.5v368h109v-357q0 -32 10.5 -44.5z" />
    <glyph glyph-name="upsilondieresis" unicode="&#x3cb;" horiz-adv-x="535" 
d="M124.5 569.5q-16.5 16.5 -16.5 40.5t16.5 40.5t41.5 16.5q23 0 38.5 -16t15.5 -41q0 -24 -15.5 -40.5t-39.5 -16.5t-40.5 16.5zM318 569.5q-16 16.5 -16 40.5t16 40.5t41 16.5q24 0 40 -16t16 -41q0 -24 -16 -40.5t-40 -16.5q-25 0 -41 16.5zM481 405.5
q11 -51.5 11 -107.5q0 -129 -54 -219t-177 -90q-88 0 -143.5 51.5t-55.5 148.5v134q0 65 -2.5 103.5t-8.5 59.5h106q14 -19 14 -93v-192q0 -61 29 -91.5t70 -30.5q56 0 85.5 56.5t29.5 153.5q0 60 -10.5 116t-20.5 81h102q14 -29 25 -80.5z" />
    <glyph glyph-name="omicrontonos" unicode="&#x3cc;" horiz-adv-x="558" 
d="M309 545h-74l52 146h104zM408 465.5q54 -31.5 84 -88.5t30 -130q0 -85 -35 -143.5t-91.5 -86.5t-120.5 -28q-68 0 -122.5 30.5t-85.5 87t-31 132.5q0 79 32 137.5t88 89.5t127 31t125 -31.5zM181.5 365.5q-33.5 -51.5 -33.5 -123.5q0 -75 36.5 -124t94.5 -49
q38 0 67.5 22.5t46.5 62.5t17 90q0 42 -13.5 82t-43 65.5t-72.5 25.5q-66 0 -99.5 -51.5z" />
    <glyph glyph-name="upsilontonos" unicode="&#x3cd;" horiz-adv-x="535" 
d="M292 546h-73l51 146h105zM481 405.5q11 -51.5 11 -107.5q0 -129 -54 -219t-177 -90q-88 0 -143.5 51.5t-55.5 148.5v134q0 65 -2.5 103.5t-8.5 59.5h106q14 -19 14 -93v-192q0 -61 29 -91.5t70 -30.5q56 0 85.5 56.5t29.5 153.5q0 60 -10.5 116t-20.5 81h102
q14 -29 25 -80.5z" />
    <glyph glyph-name="omegatonos" unicode="&#x3ce;" horiz-adv-x="707" 
d="M382 545h-73l51 146h104zM422 108.5q20 -28.5 52 -28.5q24 0 44.5 20t33 60.5t12.5 97.5q0 67 -21 128t-55 97v3h101q34 -31 58 -92.5t24 -138.5q0 -85 -26.5 -145.5t-69.5 -90.5t-94 -30q-44 0 -78 22.5t-50 60.5h-4q-18 -38 -52 -60.5t-77 -22.5q-48 0 -90 27.5
t-68 85.5t-26 143q0 78 24.5 141.5t59.5 99.5h100v-3q-35 -39 -56 -100.5t-21 -132.5q0 -58 13.5 -96t34.5 -56t43 -18q30 0 50 29t19 70l-2 182h103l-2 -181q0 -43 20 -71.5z" />
    <glyph glyph-name="uni0401" unicode="&#x401;" horiz-adv-x="506" 
d="M124.5 734.5q-16.5 16.5 -16.5 40.5q0 23 16.5 39.5t40.5 16.5q23 0 38.5 -16t15.5 -40t-15 -40.5t-39 -16.5t-40.5 16.5zM317.5 734.5q-15.5 16.5 -15.5 40.5q0 23 16 39.5t39 16.5q24 0 39.5 -16t15.5 -40t-15.5 -40.5t-39.5 -16.5t-39.5 16.5zM182 306v-216h287v-90
h-396v674h381v-90h-272v-189h257v-89h-257z" />
    <glyph glyph-name="uni0402" unicode="&#x402;" horiz-adv-x="684" 
d="M536 584h-240v-170h3q25 15 59.5 25.5t69.5 10.5q103 0 164 -82q54 -74 54 -192q0 -83 -29 -148.5t-81 -102.5q-30 -30 -65 -46.5t-69 -21.5l-18 87q67 17 102 62q22 26 34 67t12 94q0 91 -33 139q-37 55 -103 55q-53 0 -100 -34v-327h-109v584h-183v90h532v-90z" />
    <glyph glyph-name="uni0403" unicode="&#x403;" horiz-adv-x="452" 
d="M278 710h-88l90 119h124zM447 584h-265v-584h-109v674h374v-90z" />
    <glyph glyph-name="uni0404" unicode="&#x404;" horiz-adv-x="582" 
d="M467 588.5q-35 7.5 -73 7.5q-69 0 -121 -28t-82.5 -75.5t-37.5 -106.5h332v-86h-331q3 -62 33.5 -112.5t84 -79.5t123.5 -29q36 0 71.5 7t64.5 19l18 -83q-27 -14 -72 -23.5t-100 -9.5q-100 0 -177.5 42t-120.5 120.5t-43 184.5q0 95 42 174.5t122 127t190 47.5
q96 0 162 -33l-25 -84q-25 13 -60 20.5z" />
    <glyph glyph-name="uni0405" unicode="&#x405;" horiz-adv-x="509" 
d="M141 92q42 -12 86 -12q61 0 95 27.5t34 73.5q0 42 -27.5 69t-94.5 52q-88 31 -134 77.5t-46 115.5q0 54 28.5 97.5t80.5 68t121 24.5q91 0 157 -33l-28 -89q-22 13 -56 22.5t-76 9.5q-58 0 -87.5 -26.5t-29.5 -62.5q0 -40 29.5 -65t101.5 -53q89 -34 131 -80.5t42 -118.5
q0 -55 -28 -100t-84 -72t-136 -27q-50 0 -100 12t-79 30l25 91q33 -19 75 -31z" />
    <glyph glyph-name="uni0406" unicode="&#x406;" horiz-adv-x="254" 
d="M182 0h-109v674h109v-674z" />
    <glyph glyph-name="uni0407" unicode="&#x407;" horiz-adv-x="254" 
d="M-8 734.5q-16 16.5 -16 40.5q0 23 16 39.5t40 16.5q23 0 38.5 -16t15.5 -40t-15 -40.5t-39 -16.5t-40 16.5zM184.5 734.5q-15.5 16.5 -15.5 40.5q0 23 16 39.5t40 16.5q23 0 38.5 -16t15.5 -40t-15.5 -40.5t-39.5 -16.5t-39.5 16.5zM182 0h-109v674h109v-674z" />
    <glyph glyph-name="uni0408" unicode="&#x408;" horiz-adv-x="384" 
d="M317 674v-443q0 -130 -56.5 -186t-159.5 -56q-24 0 -52 4.5t-47 11.5l15 88q33 -12 74 -12q59 0 88.5 34t29.5 122v437h108z" />
    <glyph glyph-name="uni0409" unicode="&#x409;" horiz-adv-x="902" 
d="M523 425q35 5 81 5q71 0 130.5 -22.5t95 -70.5t35.5 -119q0 -92 -59 -149q-80 -75 -248 -75q-82 0 -144 8v582h-184v-190q0 -141 -21.5 -234t-86.5 -136q-23 -14 -53 -23.5t-59 -9.5l-15 88q21 4 40.5 14t33.5 23q33 33 44.5 103t11.5 168v287h398v-249zM587 77
q70 0 117 36t47 102q0 67 -46.5 99.5t-117.5 32.5q-24 0 -64 -4v-262q27 -4 64 -4z" />
    <glyph glyph-name="uni040A" unicode="&#x40a;" horiz-adv-x="916" 
d="M182 411h246v263h108v-256q37 5 89 5q109 0 181 -52t72 -154q0 -92 -59 -149q-79 -74 -246 -74q-83 0 -145 8v317h-246v-319h-109v674h109v-263zM601 77q71 0 117.5 35t46.5 102q0 64 -45.5 95t-115.5 31q-32 0 -68 -4v-254q25 -5 65 -5z" />
    <glyph glyph-name="uni040B" unicode="&#x40b;" horiz-adv-x="693" 
d="M526 584h-232v-174h3q30 18 70 31t79 13q80 0 128 -48q52 -55 52 -158v-248h-110v233q0 69 -29 102q-30 30 -78 30q-29 0 -60.5 -11t-54.5 -27v-327h-109v584h-181v90h522v-90z" />
    <glyph glyph-name="uni040C" unicode="&#x40c;" horiz-adv-x="563" 
d="M314 705h-88l90 119h124zM180 381h23l216 293h131l-248 -306q72 -12 111 -54t66 -116q8 -21 16 -47q3 -9 21 -58.5t39 -92.5h-118q-12 24 -24 56.5t-22 64.5l-12 34q-24 72 -61 108.5t-109 36.5h-29v-300h-107v674h107v-293z" />
    <glyph glyph-name="uni040E" unicode="&#x40e;" horiz-adv-x="543" 
d="M231.5 776q11.5 -16 40.5 -16t41.5 16t15.5 45h78q-4 -55 -38 -84t-99 -29q-123 0 -132 113h79q3 -29 14.5 -45zM248 404l48 -123h2l41 125l94 268h115l-136 -340q-40 -96 -68.5 -157t-60.5 -103q-34 -42 -73.5 -63.5t-87.5 -21.5q-36 0 -58 8l10 88q11 -4 38 -4
q42 1 71.5 30t46.5 68q4 8 4 15q0 9 -7 23l-225 457h124z" />
    <glyph glyph-name="uni040F" unicode="&#x40f;" horiz-adv-x="648" 
d="M182 90h286v584h109v-674h-200l-8 -177h-89l-8 177h-199v674h109v-584z" />
    <glyph glyph-name="uni0410" unicode="&#x410;" horiz-adv-x="627" 
d="M135 0h-113l222 674h136l223 -674h-116l-66 199h-223zM344 459q-15 46 -35 126h-2l-7 -28q-18 -73 -26 -97l-57 -178h185z" />
    <glyph glyph-name="uni0411" unicode="&#x411;" horiz-adv-x="565" 
d="M474 584h-293v-159q37 5 83 5q51 0 97.5 -12t81.5 -37q84 -55 84 -163q0 -91 -59 -148q-41 -40 -106.5 -58t-143.5 -18q-85 0 -145 8v672h401v-90zM249 77q38 0 72 11.5t56 34.5q36 36 36 92q0 64 -49 99q-46 33 -119 33q-22 0 -64 -4v-261q24 -5 68 -5z" />
    <glyph glyph-name="uni0412" unicode="&#x412;" horiz-adv-x="563" 
d="M149 675q47 4 95 4q67 0 112 -10.5t78 -34.5q30 -20 47 -51.5t17 -72.5q0 -48 -29.5 -87.5t-83.5 -58.5v-2q58 -15 98 -58.5t40 -109.5q0 -83 -62 -138q-35 -32 -95 -47t-148 -15q-85 0 -145 8v663q29 6 76 10zM250 395q65 0 102 28.5t37 74.5q0 51 -35.5 75t-99.5 24
q-50 0 -73 -5v-197h69zM249 77q69 0 114 28.5t45 90.5q0 60 -45 89.5t-117 29.5h-65v-235q16 -3 68 -3z" />
    <glyph glyph-name="uni0413" unicode="&#x413;" horiz-adv-x="452" 
d="M447 584h-265v-584h-109v674h374v-90z" />
    <glyph glyph-name="uni0414" unicode="&#x414;" horiz-adv-x="649" 
d="M558 87l62 -2l-6 -250h-84l-7 165h-415l-6 -165h-84l-6 250l52 2q46 84 66 149q30 107 30 264v174h398v-587zM228 213q-17 -60 -52 -124h273v496h-188v-115q0 -152 -33 -257z" />
    <glyph glyph-name="uni0415" unicode="&#x415;" horiz-adv-x="506" 
d="M182 306v-216h287v-90h-396v674h381v-90h-272v-189h257v-89h-257z" />
    <glyph glyph-name="uni0416" unicode="&#x416;" horiz-adv-x="826" 
d="M338 381h22v293h105v-293h23l195 293h127l-236 -307q71 -8 110 -50t66 -120q16 -48 23 -72q27 -87 44 -125h-110q-19 37 -40 111q-12 38 -14 44q-16 48 -34 79t-48.5 48.5t-77.5 17.5h-28v-300h-105v300h-28q-48 0 -78.5 -17.5t-48.5 -48.5t-34 -79l-15 -49
q-21 -70 -37 -106h-111q13 28 25.5 64t22.5 70l20 61q27 77 66 119.5t110 52.5l-236 307h127z" />
    <glyph glyph-name="uni0417" unicode="&#x417;" horiz-adv-x="509" 
d="M236 685q96 0 153 -45.5t57 -122.5q0 -61 -38.5 -104.5t-99.5 -57.5v-2q71 -8 116.5 -52.5t45.5 -113.5q0 -68 -36.5 -112.5t-94.5 -65t-124 -20.5q-50 0 -98.5 11.5t-86.5 33.5l26 84q28 -16 71.5 -28t83.5 -12q69 0 107 31t38 83q0 63 -49.5 90t-119.5 27h-48v81h48
q62 0 103.5 32t41.5 79q0 45 -30.5 70.5t-83.5 25.5q-36 0 -74 -12.5t-69 -30.5l-28 79q82 52 189 52z" />
    <glyph glyph-name="uni0418" unicode="&#x418;" horiz-adv-x="669" 
d="M174 418q0 -172 -8 -292h3q47 100 123 228l194 320h110v-674h-102v258q0 166 9 277l-3 1q-41 -98 -121 -232l-186 -304h-120v674h101v-256z" />
    <glyph glyph-name="uni0419" unicode="&#x419;" horiz-adv-x="669" 
d="M293.5 774q11.5 -16 40.5 -16q28 0 40.5 15.5t15.5 45.5h79q-4 -54 -38.5 -83t-98.5 -29q-124 0 -133 112h80q3 -29 14.5 -45zM174 418q0 -172 -8 -292h3q47 100 123 228l194 320h110v-674h-102v258q0 166 9 277l-3 1q-41 -98 -121 -232l-186 -304h-120v674h101v-256z
" />
    <glyph glyph-name="uni041A" unicode="&#x41a;" horiz-adv-x="563" 
d="M180 381h23l216 293h131l-248 -306q72 -12 111 -54t66 -116q8 -21 16 -47q3 -9 21 -58.5t39 -92.5h-118q-12 24 -24 56.5t-22 64.5l-12 34q-24 72 -61 108.5t-109 36.5h-29v-300h-107v674h107v-293z" />
    <glyph glyph-name="uni041B" unicode="&#x41b;" horiz-adv-x="611" 
d="M539 0h-110v584h-199v-190q0 -142 -21.5 -235t-87.5 -135q-54 -33 -113 -33l-14 88q21 4 41 14t32 22q34 33 45 102.5t11 168.5v288h416v-674z" />
    <glyph glyph-name="uni041C" unicode="&#x41c;" horiz-adv-x="818" 
d="M633 570h-3q-35 -124 -82 -258l-107 -306h-83l-97 301q-46 142 -72 263h-2q-7 -190 -13 -292l-16 -278h-102l45 674h142l99 -292q47 -153 64 -232h3q29 116 69 232l104 292h140l40 -674h-106l-15 283q-9 202 -8 287z" />
    <glyph glyph-name="uni041D" unicode="&#x41d;" horiz-adv-x="664" 
d="M182 400h301v274h109v-674h-109v305h-301v-305h-109v674h109v-274z" />
    <glyph glyph-name="uni041E" unicode="&#x41e;" horiz-adv-x="698" 
d="M517 641q70 -44 107.5 -121.5t37.5 -175.5q0 -111 -41.5 -191.5t-114 -122t-163.5 -41.5t-161 43.5t-108 121.5t-38 177q0 104 40.5 184.5t112.5 125t165 44.5t163 -44zM242 561.5q-45 -35.5 -68 -95t-23 -132.5q0 -71 24 -129.5t68.5 -93t105.5 -34.5q62 0 106.5 34.5
t68 94.5t23.5 134q0 67 -22.5 125.5t-67 95t-107.5 36.5t-108 -35.5z" />
    <glyph glyph-name="uni041F" unicode="&#x41f;" horiz-adv-x="652" 
d="M579 0h-109v584h-288v-584h-109v674h506v-674z" />
    <glyph glyph-name="uni0420" unicode="&#x420;" horiz-adv-x="548" 
d="M253 679q131 0 194 -55q30 -25 47 -63t17 -83q0 -94 -56 -150q-35 -36 -89.5 -54.5t-120.5 -18.5q-41 0 -64 5v-260h-108v666q80 13 180 13zM246 341q73 0 114.5 35t41.5 98q0 59 -38.5 90t-106.5 31q-52 0 -76 -7v-241q25 -6 65 -6z" />
    <glyph glyph-name="uni0421" unicode="&#x421;" horiz-adv-x="585" 
d="M479 -1q-47 -9 -104 -9q-102 0 -178.5 41t-118.5 117.5t-42 181.5q0 107 46 187.5t127 124t184 43.5q56 0 98 -9t64 -21l-24 -88q-59 27 -134 27q-73 0 -129 -30t-87 -88.5t-31 -140.5q0 -117 65 -185.5t180 -68.5q38 0 75 7t62 19l20 -86q-26 -13 -73 -22z" />
    <glyph glyph-name="uni0422" unicode="&#x422;" horiz-adv-x="514" 
d="M4 582v92h506v-92h-199v-582h-110v582h-197z" />
    <glyph glyph-name="uni0423" unicode="&#x423;" horiz-adv-x="543" 
d="M248 404l48 -123h2l41 125l94 268h115l-136 -340q-40 -96 -68.5 -157t-60.5 -103q-34 -42 -73.5 -63.5t-87.5 -21.5q-36 0 -58 8l10 88q11 -4 38 -4q42 1 71.5 30t46.5 68q4 8 4 15q0 9 -7 23l-225 457h124z" />
    <glyph glyph-name="uni0424" unicode="&#x424;" horiz-adv-x="746" 
d="M426 642q76 -4 140.5 -37t104.5 -100t40 -167t-40 -166t-104.5 -99t-142.5 -38v-62h-103v62q-122 9 -203.5 80.5t-81.5 217.5q0 103 42.5 170.5t107.5 100.5t137 38v59h103v-59zM238.5 538q-39.5 -24 -65.5 -74t-26 -127q0 -105 51 -161t124 -64v453q-44 -3 -83.5 -27z
M549 173q51 55 51 165q0 113 -51 167.5t-124 59.5v-453q73 6 124 61z" />
    <glyph glyph-name="uni0425" unicode="&#x425;" horiz-adv-x="585" 
d="M359 140q-41 71 -72 129h-2q-25 -57 -66 -130l-72 -139h-125l202 341l-194 333h125l79 -146q28 -49 59 -114h2q19 44 56 114l81 146h124l-200 -328l207 -346h-126z" />
    <glyph glyph-name="uni0426" unicode="&#x426;" horiz-adv-x="666" 
d="M182 90h284v584h110v-587l62 -2l-7 -250h-84l-7 165h-467v674h109v-584z" />
    <glyph glyph-name="uni0427" unicode="&#x427;" horiz-adv-x="612" 
d="M176 466q0 -65 34 -99.5t99 -34.5q32 0 64.5 9.5t57.5 24.5v308h109v-674h-109v283h-3q-70 -39 -158 -39q-86 0 -144.5 48t-58.5 157v225h109v-208z" />
    <glyph glyph-name="uni0428" unicode="&#x428;" horiz-adv-x="869" 
d="M180 90h201v584h107v-584h201v584h108v-674h-724v674h107v-584z" />
    <glyph glyph-name="uni0429" unicode="&#x429;" horiz-adv-x="887" 
d="M180 90h201v584h107v-584h201v584h108v-587l62 -2l-7 -250h-84l-6 165h-689v674h107v-584z" />
    <glyph glyph-name="uni042A" unicode="&#x42a;" horiz-adv-x="656" 
d="M283 428q33 5 81 5q68 0 126 -23.5t93 -71.5t35 -118q0 -90 -53 -145q-77 -81 -246 -81q-84 0 -144 8v583h-172v89h280v-246zM347 77q69 0 113 36t44 102q0 67 -45 100t-111 33q-33 0 -65 -5v-261q23 -5 64 -5z" />
    <glyph glyph-name="uni042B" unicode="&#x42b;" horiz-adv-x="781" 
d="M181 428q33 5 79 5q113 0 187.5 -54t74.5 -160q0 -88 -53 -144q-41 -43 -107.5 -62t-144.5 -19q-84 0 -144 8v672h108v-246zM702 0h-109v674h109v-674zM245 77q69 0 116 36t47 102q0 67 -48 100t-115 33q-34 0 -64 -5v-261q20 -5 64 -5z" />
    <glyph glyph-name="uni042C" unicode="&#x42c;" horiz-adv-x="564" 
d="M181 428q35 5 83 5q113 0 188 -53.5t75 -159.5q0 -87 -53 -145q-41 -43 -108.5 -62t-147.5 -19q-85 0 -145 8v672h108v-246zM248 77q71 0 118 35t47 102q0 68 -46.5 101t-118.5 33q-32 0 -67 -5v-261q24 -5 67 -5z" />
    <glyph glyph-name="uni042D" unicode="&#x42d;" horiz-adv-x="574" 
d="M421 387q-9 92 -65.5 150.5t-150.5 58.5q-67 0 -142 -32l-24 82q90 39 173 39q106 0 179.5 -46t110 -125t36.5 -178q0 -108 -44 -186.5t-120 -119.5t-170 -41q-49 0 -95 9t-80 25l21 85q29 -13 67.5 -21t74.5 -8q67 0 117.5 29t79 79t32.5 114h-306v86h306z" />
    <glyph glyph-name="uni042E" unicode="&#x42e;" horiz-adv-x="885" 
d="M181 392h94q10 89 49 155.5t100.5 102t140.5 35.5q88 0 152.5 -44t98.5 -121.5t34 -175.5q0 -112 -38.5 -192t-105 -121.5t-151.5 -41.5q-81 0 -143.5 38.5t-98.5 109.5t-41 164h-91v-301h-108v674h108v-282zM656 111q41 35 62 95t21 134q0 67 -20 126t-60.5 95.5
t-97.5 36.5q-58 0 -99 -36t-62 -96t-21 -132q0 -70 21.5 -129t62 -94t96.5 -35t97 35z" />
    <glyph glyph-name="uni042F" unicode="&#x42f;" horiz-adv-x="562" 
d="M42 66l18 54q20 62 37 100t44 65q22 22 56 34v3q-63 11 -104.5 54.5t-41.5 111.5q0 44 17 79t47 60q66 52 202 52q102 0 172 -14v-665h-108v283h-55q-58 0 -89 -31q-22 -22 -37 -57.5t-31 -88.5q-12 -38 -18 -54q-15 -39 -22 -52h-116q17 29 29 66zM306 597
q-65 0 -105.5 -28.5t-40.5 -88.5q0 -54 43.5 -85.5t109.5 -31.5q36 0 68 2v224q-37 8 -75 8z" />
    <glyph glyph-name="uni0430" unicode="&#x430;" horiz-adv-x="497" 
d="M333 57h-3q-23 -30 -61 -49t-85 -19t-81 20t-52 53t-18 70q0 89 76 136t214 46v9q0 37 -21.5 66.5t-81.5 29.5q-35 0 -69.5 -10t-59.5 -27l-23 72q31 19 75.5 31t93.5 12q106 0 150.5 -57t44.5 -146v-177q0 -74 7 -117h-99zM142 143q0 -37 21 -56t54 -19q39 0 66.5 21
t37.5 52q5 13 5 27v74q-184 2 -184 -99z" />
    <glyph glyph-name="uni0431" unicode="&#x431;" horiz-adv-x="544" 
d="M348 612q-58 -9 -99 -28.5t-67 -54.5q-22 -28 -36 -69t-17 -78h4q22 48 67 76t98 28q62 0 109.5 -28.5t74 -83t26.5 -129.5q0 -118 -63 -187t-170 -69q-120 0 -178 92t-58 232q0 179 85 277q34 45 84.5 70t122.5 36q94 14 128 25l-5 -89q-32 -11 -106 -20zM367.5 356.5
q-29.5 50.5 -93.5 50.5q-65 0 -97 -57q-24 -42 -24 -101q0 -41 13 -82.5t41 -69.5t69 -28q61 0 91 50t30 120q0 67 -29.5 117.5z" />
    <glyph glyph-name="uni0432" unicode="&#x432;" horiz-adv-x="517" 
d="M141.5 488q47.5 3 94.5 3q224 0 224 -122q0 -43 -29 -71t-72 -37v-2q56 -9 89 -39.5t33 -80.5q0 -86 -80.5 -115.5t-185.5 -29.5q-83 0 -148 7v479q27 5 74.5 8zM230 287q53 0 87.5 16.5t34.5 51.5q0 65 -116 65q-23 0 -63 -4v-129h57zM237 64q53 0 92.5 17.5t39.5 59.5
q0 43 -37 60.5t-102 17.5h-58v-151q29 -4 65 -4z" />
    <glyph glyph-name="uni0433" unicode="&#x433;" horiz-adv-x="395" 
d="M379 399h-203v-399h-109v486h312v-87z" />
    <glyph glyph-name="uni0434" unicode="&#x434;" horiz-adv-x="550" 
d="M471 80l51 -2l-6 -233h-84l-4 155h-326l-5 -155h-84l-4 233l42 2q32 47 48 100q26 82 26 182v124h346v-406zM199 169q-12 -43 -38 -87h203v322h-143v-72q0 -84 -22 -163z" />
    <glyph glyph-name="uni0435" unicode="&#x435;" horiz-adv-x="510" 
d="M187 109q44 -36 110 -36q42 0 73 6t62 17l16 -76q-69 -30 -166 -30q-115 0 -180.5 66.5t-65.5 179.5q0 70 27.5 130t80.5 95.5t126 35.5q74 0 120 -35.5t66 -89t20 -109.5q0 -27 -4 -47h-331q2 -71 46 -107zM347.5 381q-25.5 40 -85.5 40q-54 0 -85 -39.5t-36 -88.5h231
q1 48 -24.5 88z" />
    <glyph glyph-name="uni0436" unicode="&#x436;" horiz-adv-x="690" 
d="M276 280h17v206h105v-206h16l144 206h123l-184 -217q93 -13 135 -127l12 -34q2 -6 15.5 -43t27.5 -65h-110q-10 18 -21 48.5t-22 62.5q-19 52 -49 74.5t-73 22.5h-14v-208h-105v208h-15q-46 0 -74.5 -22t-48.5 -75l-12 -31q-19 -56 -33 -80h-107q19 37 43 107q3 7 13 34
q21 57 53.5 89t81.5 39l-185 217h123z" />
    <glyph glyph-name="uni0437" unicode="&#x437;" horiz-adv-x="450" 
d="M164 287q52 0 82.5 19.5t30.5 49.5q0 28 -24.5 45t-65.5 17q-30 0 -61.5 -9t-57.5 -25l-25 66q38 23 83 34.5t91 11.5q69 0 122 -31.5t53 -97.5q0 -43 -32 -71.5t-76 -37.5v-3q55 -5 93 -36.5t38 -82.5q0 -75 -66 -110.5t-155 -35.5q-45 0 -89 11t-79 31l26 71
q27 -15 62.5 -24t69.5 -10q51 0 81 20.5t30 52.5q0 39 -35.5 56.5t-93.5 17.5h-54v71h52z" />
    <glyph glyph-name="uni0438" unicode="&#x438;" horiz-adv-x="568" 
d="M171 300q0 -94 -6 -196l3 -1q45 98 71 146l132 237h131v-486h-104v186q0 81 7 203h-4q-36 -79 -70 -144l-64 -117q-22 -38 -71 -128h-129v486h104v-186z" />
    <glyph glyph-name="uni0439" unicode="&#x439;" horiz-adv-x="568" 
d="M241 630q15 -20 41 -20q28 0 43.5 20t18.5 54h74q-4 -63 -40.5 -96t-97.5 -33q-63 0 -95 35t-36 94h75q2 -34 17 -54zM171 300q0 -94 -6 -196l3 -1q45 98 71 146l132 237h131v-486h-104v186q0 81 7 203h-4q-36 -79 -70 -144l-64 -117q-22 -38 -71 -128h-129v486h104v-186
z" />
    <glyph glyph-name="uni043A" unicode="&#x43a;" horiz-adv-x="496" 
d="M177 281h20l162 205h131l-201 -216q51 -6 86.5 -42t63.5 -101l10 -25q24 -65 44 -102h-114q-15 24 -45 102q-22 54 -55 79.5t-85 25.5h-17v-207h-108v486h108v-205z" />
    <glyph glyph-name="uni043B" unicode="&#x43b;" horiz-adv-x="520" 
d="M453 0h-109v401h-146v-114q0 -107 -15.5 -169t-58.5 -92q-20 -18 -46 -26.5t-65 -8.5l-11 85q32 5 50 22q27 22 35.5 65t8.5 127v196h357v-486z" />
    <glyph glyph-name="uni043C" unicode="&#x43c;" horiz-adv-x="665" 
d="M215 486l76 -225q26 -78 40 -129h2l51 155l70 199h137l33 -486h-103l-10 219q-5 78 -8 173h-3q-21 -72 -51 -158l-84 -229h-79l-77 224q-29 94 -45 161h-4l-7 -173l-11 -217h-99l35 486h137z" />
    <glyph glyph-name="uni043D" unicode="&#x43d;" horiz-adv-x="557" 
d="M176 297h205v189h109v-486h-109v211h-205v-211h-109v486h109v-189z" />
    <glyph glyph-name="uni043E" unicode="&#x43e;" horiz-adv-x="558" 
d="M408 465.5q54 -31.5 84 -88.5t30 -130q0 -85 -35 -143.5t-91.5 -86.5t-120.5 -28q-68 0 -122.5 30.5t-85.5 87t-31 132.5q0 79 32 137.5t88 89.5t127 31t125 -31.5zM181.5 365.5q-33.5 -51.5 -33.5 -123.5q0 -75 36.5 -124t94.5 -49q38 0 67.5 22.5t46.5 62.5t17 90
q0 42 -13.5 82t-43 65.5t-72.5 25.5q-66 0 -99.5 -51.5z" />
    <glyph glyph-name="uni043F" unicode="&#x43f;" horiz-adv-x="553" 
d="M486 0h-110v400h-200v-400h-109v486h419v-486z" />
    <glyph glyph-name="uni0440" unicode="&#x440;" horiz-adv-x="579" 
d="M65 486h97l5 -78h2q57 89 169 89q57 0 103.5 -30.5t73.5 -87t27 -129.5q0 -84 -31 -143t-81 -88.5t-109 -29.5q-46 0 -83.5 18.5t-57.5 50.5h-2v-256h-109v524q0 68 -4 160zM181 167q11 -41 43 -67t75 -26q62 0 97.5 46.5t35.5 124.5q0 71 -34.5 118t-95.5 47
q-42 0 -75.5 -27t-43.5 -71q-5 -17 -5 -33v-78q0 -19 3 -34z" />
    <glyph glyph-name="uni0441" unicode="&#x441;" horiz-adv-x="449" 
d="M363 -2q-37 -8 -80 -8q-74 0 -130 30.5t-86.5 87t-30.5 130.5t32.5 132.5t93 92t141.5 33.5q34 0 66 -6.5t54 -16.5l-21 -83q-36 20 -97 20q-73 0 -115.5 -47t-41.5 -120q0 -77 44 -122t112 -45q51 0 101 21l16 -81q-21 -10 -58 -18z" />
    <glyph glyph-name="uni0442" unicode="&#x442;" horiz-adv-x="428" 
d="M416 400h-148v-400h-109v400h-148v86h405v-86z" />
    <glyph glyph-name="uni0443" unicode="&#x443;" horiz-adv-x="488" 
d="M223 215q22 -69 29 -96h2q5 14 8 26.5t6 21.5q5 21 14 49l84 270h117l-126 -338q-50 -133 -87.5 -202t-80.5 -107q-32 -27 -64 -41.5t-57 -18.5l-26 92q41 12 74 38q19 13 38 35.5t32 49.5q7 16 7 22q0 10 -6 23l-179 447h120z" />
    <glyph glyph-name="uni0444" unicode="&#x444;" horiz-adv-x="667" 
d="M384 494q71 -6 127.5 -36.5t88.5 -85.5t32 -129q0 -77 -33 -132t-89 -85t-126 -35v-189h-100v188q-71 5 -127 35.5t-88.5 85t-32.5 128.5q0 115 69.5 180t178.5 75v216h100v-216zM181 361.5q-37 -49.5 -37 -119.5q0 -71 37.5 -119.5t102.5 -58.5v358q-66 -11 -103 -60.5z
M487 124.5q37 49.5 37 119.5t-37 118t-103 59v-357q66 11 103 60.5z" />
    <glyph glyph-name="uni0445" unicode="&#x445;" horiz-adv-x="482" 
d="M197 389q13 -20 46 -77h3q20 38 44 79l60 95h118l-163 -234l167 -252h-124l-63 102q-12 18 -48 81h-2q-19 -35 -46 -81l-62 -102h-121l170 248l-163 238h122z" />
    <glyph glyph-name="uni0446" unicode="&#x446;" horiz-adv-x="563" 
d="M176 85h199v401h109v-406l51 -2l-5 -233h-84l-4 155h-375v486h109v-401z" />
    <glyph glyph-name="uni0447" unicode="&#x447;" horiz-adv-x="529" 
d="M171 330q0 -46 21 -71t70 -25q25 0 49.5 8.5t41.5 21.5v222h109v-486h-109v190h-2q-24 -16 -59 -25.5t-69 -9.5q-75 0 -118 41t-43 123v167h109v-156z" />
    <glyph glyph-name="uni0448" unicode="&#x448;" horiz-adv-x="763" 
d="M175 85h153v401h107v-401h153v401h108v-486h-629v486h108v-401z" />
    <glyph glyph-name="uni0449" unicode="&#x449;" horiz-adv-x="775" 
d="M175 85h153v401h107v-401h153v401h108v-406l51 -2l-6 -233h-83l-4 155h-587v486h108v-401z" />
    <glyph glyph-name="uni044A" unicode="&#x44a;" horiz-adv-x="603" 
d="M267 329q29 4 82 4q90 0 154.5 -40t64.5 -127q0 -73 -56 -117q-69 -54 -214 -54q-68 0 -141 7v399h-141v85h251v-157zM327 70q56 0 94 22t38 71q0 52 -40 73t-97 21q-26 0 -56 -5v-177q27 -5 61 -5z" />
    <glyph glyph-name="uni044B" unicode="&#x44b;" horiz-adv-x="702" 
d="M176 327q28 6 79 6q89 0 151 -40.5t62 -124.5q0 -74 -56 -118q-70 -55 -204 -55q-69 0 -141 7v484h109v-159zM635 0h-109v486h109v-486zM232 70q52 0 89.5 23.5t37.5 71.5t-35.5 70t-86.5 22q-34 0 -61 -5v-178q32 -4 56 -4z" />
    <glyph glyph-name="uni044C" unicode="&#x44c;" horiz-adv-x="517" 
d="M176 328q25 5 79 5q97 0 162 -38t65 -127q0 -74 -56 -118q-70 -55 -218 -55q-69 0 -141 7v484h109v-158zM236 70q55 0 96 22t41 72q0 51 -41.5 72t-97.5 21q-28 0 -58 -5v-178q32 -4 60 -4z" />
    <glyph glyph-name="uni044D" unicode="&#x44d;" horiz-adv-x="471" 
d="M324 282q-7 59 -46 95.5t-109 36.5q-60 0 -114 -25l-22 70q32 18 73.5 28t80.5 10q53 0 99 -17t78 -49q33 -33 52 -81t19 -108q0 -73 -31.5 -130.5t-91.5 -90t-142 -32.5q-78 0 -144 33l19 76q59 -24 118 -24q66 0 109 36.5t50 99.5h-232v72h234z" />
    <glyph glyph-name="uni044E" unicode="&#x44e;" horiz-adv-x="727" 
d="M175 289h77q13 94 72.5 151t147.5 57q64 0 114 -31.5t77.5 -88t27.5 -130.5q0 -79 -30 -137.5t-81.5 -89.5t-113.5 -31q-89 0 -148.5 59t-68.5 159h-74v-207h-108v486h108v-197zM552 119.5q29 51.5 29 125.5q0 70 -29 121t-83 51q-55 0 -85.5 -51.5t-30.5 -124.5
q0 -72 30 -122.5t84 -50.5q56 0 85 51.5z" />
    <glyph glyph-name="uni044F" unicode="&#x44f;" horiz-adv-x="515" 
d="M340 0v197h-53q-48 0 -78 -30q-16 -14 -27 -36.5t-24 -57.5l-12 -33q-7 -18 -19 -40h-117q17 25 30 55l13 33q16 41 28.5 66t32.5 43q26 24 57 31v3q-51 5 -89 36.5t-38 83.5q0 72 70 110q59 31 168 31q82 0 166 -10v-482h-108zM274 422q-49 0 -83 -18t-34 -59
q0 -38 36.5 -58t80.5 -20l66 1v149q-32 5 -66 5z" />
    <glyph glyph-name="uni0451" unicode="&#x451;" horiz-adv-x="510" 
d="M134.5 582.5q-16.5 16.5 -16.5 40.5t17 41t41 17q23 0 39 -16.5t16 -41.5q0 -24 -15.5 -40.5t-39.5 -16.5q-25 0 -41.5 16.5zM328.5 582.5q-16.5 16.5 -16.5 40.5t16.5 41t40.5 17t40 -16.5t16 -41.5q0 -24 -16 -40.5t-40 -16.5t-40.5 16.5zM187 109q44 -36 110 -36
q42 0 73 6t62 17l16 -76q-69 -30 -166 -30q-115 0 -180.5 66.5t-65.5 179.5q0 70 27.5 130t80.5 95.5t126 35.5q74 0 120 -35.5t66 -89t20 -109.5q0 -27 -4 -47h-331q2 -71 46 -107zM347.5 381q-25.5 40 -85.5 40q-54 0 -85 -39.5t-36 -88.5h231q1 48 -24.5 88z" />
    <glyph glyph-name="uni0452" unicode="&#x452;" horiz-adv-x="567" 
d="M84 710h109v-79h221v-76h-221v-130h2q27 28 63.5 45.5t77.5 17.5q46 0 81.5 -21t59.5 -60q51 -76 51 -208q0 -104 -28 -179.5t-80 -113.5q-28 -22 -59.5 -35.5t-62.5 -16.5l-21 87q28 6 48.5 15.5t38.5 29.5q25 29 39.5 82t14.5 124q0 100 -33 157q-14 24 -35.5 37.5
t-48.5 13.5q-25 0 -50 -13.5t-44 -36.5q-14 -20 -14 -50v-300h-109v555h-79v76h79v79z" />
    <glyph glyph-name="uni0453" unicode="&#x453;" horiz-adv-x="395" 
d="M235 550h-76l87 146h112zM379 399h-203v-399h-109v486h312v-87z" />
    <glyph glyph-name="uni0454" unicode="&#x454;" horiz-adv-x="464" 
d="M309 415q-69 0 -110.5 -37t-49.5 -96h231v-72h-229q6 -63 49 -100t109 -37q57 0 110 23l19 -76q-22 -12 -61 -21.5t-86 -9.5q-78 0 -135.5 32t-88.5 88.5t-31 128.5q0 78 35.5 137t97 90.5t139.5 31.5q38 0 73 -9t57 -21l-23 -77q-55 25 -106 25z" />
    <glyph glyph-name="uni0455" unicode="&#x455;" horiz-adv-x="409" 
d="M116 79.5q34 -10.5 66 -10.5q42 0 63 16.5t21 44.5q0 27 -18.5 44t-65.5 34q-67 23 -99.5 59.5t-32.5 81.5q0 41 22 75t62 53.5t94 19.5q37 0 69.5 -8.5t55.5 -21.5l-23 -77q-19 11 -45.5 19.5t-56.5 8.5q-34 0 -53.5 -16t-19.5 -42q0 -24 19.5 -39.5t68.5 -33.5
q66 -24 97 -59.5t32 -88.5q0 -67 -50.5 -108t-141.5 -41q-41 0 -78.5 9t-64.5 24l24 81q21 -14 55 -24.5z" />
    <glyph glyph-name="uni0456" unicode="&#x456;" horiz-adv-x="247" 
d="M169 666.5q17 -17.5 18 -44.5q0 -26 -18 -44t-47 -18q-27 0 -44.5 18t-17.5 44q0 27 18 44.5t46 17.5t45 -17.5zM69 486h109v-486h-109v486z" />
    <glyph glyph-name="uni0457" unicode="&#x457;" horiz-adv-x="247" 
d="M-13.5 582.5q-16.5 16.5 -16.5 40.5t17 41t41 17q23 0 39 -16.5t16 -41.5q0 -24 -15.5 -40.5t-39.5 -16.5q-25 0 -41.5 16.5zM180 582.5q-16 16.5 -16 40.5t16.5 41t41.5 17q23 0 39 -16.5t16 -41.5q0 -24 -16 -40.5t-40 -16.5q-25 0 -41 16.5zM69 486h109v-486h-109v486
z" />
    <glyph glyph-name="uni0458" unicode="&#x458;" horiz-adv-x="259" 
d="M183 666.5q17 -17.5 17 -44.5q1 -26 -16.5 -44t-47.5 -18q-28 0 -45 18t-17 44q0 27 18 44.5t46 17.5t45 -17.5zM51 -88q18 20 25 57t7 117v400h109v-434q0 -75 -14.5 -123.5t-46.5 -80.5q-29 -28 -73.5 -42.5t-89.5 -14.5l-11 86q65 5 94 35z" />
    <glyph glyph-name="uni0459" unicode="&#x459;" horiz-adv-x="791" 
d="M453 326q42 6 78 6q95 0 160.5 -39.5t65.5 -127.5q0 -71 -53 -114q-67 -56 -217 -56q-69 0 -143 7v399h-143v-114q0 -104 -17 -167t-60 -93q-20 -18 -46.5 -27t-64.5 -9l-11 86q31 5 50 21q28 21 38 67t10 125v196h353v-160zM512 70q55 0 95.5 21.5t40.5 71.5
q0 51 -39 72t-92 21q-32 0 -65 -5v-177q34 -4 60 -4z" />
    <glyph glyph-name="uni045A" unicode="&#x45a;" horiz-adv-x="801" 
d="M176 311h182v175h110v-163q30 6 80 6q89 0 154 -40t65 -125q0 -71 -53 -115q-67 -54 -213 -54q-71 0 -143 7v226h-182v-228h-109v486h109v-175zM527 70q52 0 91.5 21.5t39.5 69.5q0 50 -38 71t-92 21q-25 0 -61 -4v-175q30 -4 60 -4z" />
    <glyph glyph-name="uni045B" unicode="&#x45b;" horiz-adv-x="565" 
d="M389 275q0 59 -24.5 95.5t-76.5 36.5q-37 0 -65 -22t-39 -54q-6 -14 -6 -40v-291h-109v548h-78v64h78v98h109v-98h190v-64h-190v-132h2q25 38 62 58q41 23 87 23q42 0 80 -20.5t63.5 -67.5t25.5 -122v-287h-109v275z" />
    <glyph glyph-name="uni045C" unicode="&#x45c;" horiz-adv-x="496" 
d="M267 550h-76l86 146h112zM177 281h20l162 205h131l-201 -216q51 -6 86.5 -42t63.5 -101l10 -25q24 -65 44 -102h-114q-15 24 -45 102q-22 54 -55 79.5t-85 25.5h-17v-207h-108v486h108v-205z" />
    <glyph glyph-name="uni045E" unicode="&#x45e;" horiz-adv-x="488" 
d="M201 630.5q15 -20.5 42 -20.5t42.5 20t18.5 54h74q-4 -63 -40 -96t-97 -33q-64 0 -96 35t-35 94h75q1 -33 16 -53.5zM223 215q22 -69 29 -96h2q5 14 8 26.5t6 21.5q5 21 14 49l84 270h117l-126 -338q-50 -133 -87.5 -202t-80.5 -107q-32 -27 -64 -41.5t-57 -18.5l-26 92
q41 12 74 38q19 13 38 35.5t32 49.5q7 16 7 22q0 10 -6 23l-179 447h120z" />
    <glyph glyph-name="uni045F" unicode="&#x45f;" horiz-adv-x="551" 
d="M176 85h198v401h110v-486h-158l-7 -160h-87l-7 160h-158v486h109v-401z" />
    <glyph glyph-name="uni0490" unicode="&#x490;" horiz-adv-x="462" 
d="M381 799h79l-11 -215h-267v-584h-109v674h292z" />
    <glyph glyph-name="uni0491" unicode="&#x491;" horiz-adv-x="405" 
d="M311 598h77l-7 -198h-205v-400h-109v486h231z" />
    <glyph glyph-name="uni04D9" unicode="&#x4d9;" horiz-adv-x="510" 
d="M229 497q75 0 130.5 -30.5t84.5 -86.5t29 -130q0 -70 -27.5 -129.5t-80.5 -95t-125 -35.5q-74 0 -120.5 35t-66 88t-19.5 109q0 34 4 47h330q-1 72 -43.5 108t-110.5 36q-41 0 -73 -6.5t-64 -18.5l-16 75q72 34 168 34zM162 106q26 -40 85 -40q56 0 86 38.5t35 87.5h-231
q-1 -46 25 -86z" />
    <glyph glyph-name="uni10D0" unicode="&#x10d0;" horiz-adv-x="535" 
d="M144.5 19q-52.5 29 -81.5 80t-29 115q0 68 32 134l104 -23q-24 -52 -24 -110q0 -62 32 -102t87 -40q53 0 86 36.5t33 98.5q0 49 -13.5 89t-32 70t-49.5 71q-43 56 -64.5 98.5t-21.5 100.5q0 12 2 38h110l-1 -25q0 -48 19 -84t59 -88q33 -43 54 -76.5t35.5 -80
t14.5 -104.5q0 -70 -30.5 -121.5t-83.5 -78.5t-118 -27q-67 0 -119.5 29z" />
    <glyph glyph-name="uni10D1" unicode="&#x10d1;" horiz-adv-x="561" 
d="M476 363q46 -59 46 -143q0 -75 -34 -127t-89 -77.5t-119 -25.5q-68 0 -123 27.5t-87 79t-32 120.5q0 94 56 155t147 73v75l-64 25q-28 11 -45.5 36t-17.5 57v36h110v-29q0 -25 25 -35l102 -42v-128q79 -18 125 -77zM374 112q36 41 36 107q0 60 -32 104t-96 44t-98 -44
t-34 -104q0 -66 35.5 -107t94.5 -41q58 0 94 41z" />
    <glyph glyph-name="uni10D2" unicode="&#x10d2;" horiz-adv-x="546" 
d="M150.5 17q-55.5 27 -87.5 77.5t-32 117.5q0 93 59 150.5t155 72.5q51 8 71.5 32t20.5 60q0 34 -20.5 55t-55.5 21q-36 0 -56 -20t-20 -49q0 -13 6 -30l-106 -20q-10 24 -10 49q0 43 23.5 77.5t65.5 54t97 19.5q54 0 96.5 -20t66.5 -55t24 -78q0 -40 -19.5 -70t-55.5 -48
v-2q66 -22 104 -75.5t38 -120.5q0 -74 -34.5 -124.5t-89.5 -75.5t-118 -25q-67 0 -122.5 27zM366.5 111q36.5 40 36.5 102q0 57 -32.5 99.5t-95.5 42.5q-64 0 -98 -42.5t-34 -99.5q0 -63 36 -102.5t94 -39.5q57 0 93.5 40z" />
    <glyph glyph-name="uni10D3" unicode="&#x10d3;" horiz-adv-x="834" 
d="M482.5 76.5q-47.5 25.5 -113.5 25.5h-115q-74 0 -122 -14v78l88 8v3q-81 33 -132.5 104t-51.5 168q0 71 27.5 124t75 81.5t105.5 28.5q51 0 92 -21t59 -59h2q24 39 69 59.5t104 20.5q61 0 113 -26t83 -76.5t31 -120.5q0 -67 -31.5 -117t-84.5 -76.5t-117 -26.5
q-62 0 -115.5 25t-86 74t-32.5 116q0 11 2 33q2 16 2 23l1 12q0 36 -23 56.5t-59 20.5q-47 0 -75.5 -39t-28.5 -116q0 -71 32.5 -126.5t90 -89.5t131.5 -44q110 -14 174 -56.5t70 -128.5h-109q-8 51 -55.5 76.5zM650.5 359q33.5 38 33.5 102q0 61 -31.5 101t-90.5 40
q-57 0 -88 -41t-31 -100q0 -63 34.5 -101.5t86.5 -38.5q53 0 86.5 38z" />
    <glyph glyph-name="uni10D4" unicode="&#x10d4;" horiz-adv-x="550" 
d="M142 17.5q-51 26.5 -78.5 73t-27.5 103.5q0 48 20 94l105 -20q-13 -35 -13 -73q0 -53 29 -87.5t84 -34.5q53 0 84 32t31 90v289q0 53 -29.5 85t-79.5 32q-48 0 -75.5 -27.5t-27.5 -73.5q0 -26 7 -50l-108 -20q-12 33 -12 66q0 59 30.5 101.5t80 64t105.5 21.5
q61 0 111.5 -24.5t79.5 -69.5t29 -104v-278q0 -66 -28.5 -115t-80 -75t-118.5 -26t-118 26.5z" />
    <glyph glyph-name="uni10D5" unicode="&#x10d5;" horiz-adv-x="535" 
d="M146.5 15.5q-52.5 24.5 -82.5 68.5t-30 101q0 41 15 76l106 -18q-9 -31 -9 -57q0 -51 33 -82t87 -31q55 0 88.5 32.5t33.5 86.5q0 63 -33 95t-89 32h-43v83h44q50 0 77 27t27 75q0 44 -28.5 70.5t-76.5 26.5q-49 0 -78 -27t-29 -67q0 -19 6 -39l-110 -16q-8 32 -8 55
q0 52 30.5 92t80.5 62t108 22q60 0 109 -21.5t78 -61.5t29 -94q0 -111 -107 -144v-2q56 -14 90 -60t34 -112q0 -57 -30 -102t-83.5 -70t-120.5 -25q-66 0 -118.5 24.5z" />
    <glyph glyph-name="uni10D6" unicode="&#x10d6;" horiz-adv-x="576" 
d="M183.5 17.5q-53.5 27.5 -83.5 78t-30 117.5q0 82 45 140q-42 21 -68 62t-26 92t26.5 91t71 62.5t96.5 22.5q55 0 100 -21.5t70.5 -59t25.5 -83.5q0 -26 -7 -50.5t-19 -40.5v-2q69 -20 111 -75.5t42 -133.5q0 -72 -32 -123t-85 -77.5t-117 -26.5q-67 0 -120.5 27.5z
M286 440q17 28 17 67q0 40 -22 67.5t-64 27.5q-41 0 -64.5 -28t-23.5 -66q0 -32 14 -59t39 -40q45 28 104 31zM393 110q33 39 33 106q0 63 -30 103.5t-92 40.5q-60 0 -91 -40.5t-31 -103.5q0 -67 32.5 -106t89.5 -39q56 0 89 39z" />
    <glyph glyph-name="uni10D7" unicode="&#x10d7;" horiz-adv-x="871" 
d="M104 75.5q-63 85.5 -63 260.5q0 176 63 262t172 86q64 0 110 -29.5t65 -89.5h3q19 60 61 89.5t102 29.5q104 0 158.5 -82t54.5 -239q0 -115 -20.5 -200t-55.5 -163h-105v5q33 81 51.5 164t18.5 182q0 127 -24.5 188t-80.5 61q-52 0 -76.5 -43t-24.5 -140v-85
q0 -174 -61.5 -258t-175.5 -84q-109 0 -172 85.5zM369.5 137.5q31.5 63.5 31.5 198.5q0 136 -31.5 199.5t-92.5 63.5q-124 0 -124 -263q0 -262 124 -262q61 0 92.5 63.5z" />
    <glyph glyph-name="uni10D8" unicode="&#x10d8;" horiz-adv-x="564" 
d="M186.5 537q-33.5 -62 -33.5 -190q0 -85 15.5 -176t40.5 -166v-5h-106q-27 75 -44.5 166.5t-17.5 191.5q0 161 64.5 243.5t175.5 82.5q114 0 178 -83t64 -245q0 -194 -62 -356h-105v5q25 74 40 164.5t15 177.5q0 252 -129 252q-62 0 -95.5 -62z" />
    <glyph glyph-name="uni10D9" unicode="&#x10d9;" horiz-adv-x="515" 
d="M139 15.5q-52 24.5 -82 68.5t-30 101q0 37 15 76l106 -18q-9 -31 -9 -57q0 -51 32 -82t84 -31t84 32t32 92q0 63 -32.5 99.5t-93.5 36.5h-41v84h33q52 0 81 28t29 76q0 35 -12 67t-32 53l92 41q26 -28 44.5 -68.5t18.5 -89.5q0 -55 -28 -89.5t-87 -54.5v-2
q68 -15 103.5 -63.5t35.5 -117.5q0 -63 -29.5 -109.5t-81 -71.5t-116.5 -25q-64 0 -116 24.5z" />
    <glyph glyph-name="uni10DA" unicode="&#x10da;" horiz-adv-x="999" 
d="M549.5 87q-55.5 28 -135.5 28h-139q-73 0 -126 -15v79l85 8v2q-84 28 -143.5 96t-59.5 175q0 70 25.5 120t69.5 76t98 26q44 0 83 -21t55 -59h5q18 40 52.5 60t75.5 20t77.5 -20.5t52.5 -59.5h4q17 38 54 59t81 21q88 0 141.5 -60.5t53.5 -167.5q0 -94 -45 -191l-101 27
q34 79 34 165q0 72 -24.5 108t-67.5 36q-36 0 -58.5 -25.5t-21.5 -83.5l2 -145h-103l2 150q1 55 -21.5 79.5t-59.5 24.5q-35 0 -57.5 -25t-21.5 -80l2 -149h-104l3 146q1 56 -21 82t-60 26q-42 0 -68 -36t-26 -105q0 -79 40.5 -134.5t106 -85.5t142.5 -36q131 -12 208 -60.5
t83 -140.5h-109q-8 58 -63.5 86z" />
    <glyph glyph-name="uni10DB" unicode="&#x10db;" horiz-adv-x="572" 
d="M151 18.5q-53 28.5 -82.5 80.5t-29.5 122q0 73 32.5 124t86 76.5t117.5 25.5q66 0 124 -20v65q0 49 -32 79.5t-87 30.5q-50 0 -81 -25.5t-31 -62.5q0 -14 2 -20l-109 -21q-5 20 -5 33q0 53 31 93.5t82.5 62.5t110.5 22q65 0 117 -23.5t82.5 -67t30.5 -100.5v-282
q0 -67 -29 -117t-82.5 -77t-124.5 -27q-70 0 -123 28.5zM367 106.5q32 36.5 32 104.5v130q-53 20 -111 20q-62 0 -99 -36t-37 -103q0 -70 32 -111t91 -41q60 0 92 36.5z" />
    <glyph glyph-name="uni10DC" unicode="&#x10dc;" horiz-adv-x="569" 
d="M174.5 17q-53.5 27 -82.5 75.5t-29 111.5v320q0 76 47.5 118t126.5 42q38 0 83 -7q48 -6 72 -6q43 0 82 13l19 -91q-42 -15 -85 -15q-40 0 -94 14q-4 1 -23.5 5.5t-35.5 4.5q-81 0 -81 -79v-106q23 12 59 21t74 9q62 0 113.5 -27t82 -79.5t30.5 -124.5q0 -67 -29 -118
t-82.5 -79.5t-123.5 -28.5t-123.5 27zM389 110q32 40 32 106t-36 106t-95 40q-32 0 -64 -9.5t-52 -21.5v-120q0 -70 31.5 -105.5t92.5 -35.5q59 0 91 40z" />
    <glyph glyph-name="uni10DD" unicode="&#x10dd;" horiz-adv-x="819" 
d="M464 191h-109l2 230q1 97 -21.5 138t-70.5 41q-52 0 -82.5 -64t-30.5 -185q0 -98 18.5 -181.5t51.5 -164.5v-5h-106q-35 87 -55 169t-20 195q0 101 28 173.5t77 109.5t112 37q48 0 90 -23.5t60 -73.5h4q18 50 59.5 73.5t88.5 23.5q65 0 114.5 -37t76.5 -109t27 -175
q0 -115 -20.5 -200t-55.5 -163h-105v5q33 81 51.5 164t18.5 182q0 122 -29.5 185.5t-82.5 63.5q-49 0 -72 -42t-22 -139z" />
    <glyph glyph-name="uni10DE" unicode="&#x10de;" horiz-adv-x="526" 
d="M145.5 14q-51.5 24 -79.5 66.5t-28 95.5q0 41 13 71l105 -19q-7 -28 -7 -45q0 -49 30.5 -80.5t83.5 -31.5q48 0 80 30t32 88q0 55 -32 88t-82 33h-42v84h44q90 0 90 63q0 24 -17 41.5t-50 38.5q-41 28 -62 51t-21 60q0 10 4 26h109q-1 -4 -1 -10q0 -20 14 -35t44 -36
q29 -20 46.5 -35.5t30 -39.5t12.5 -56q0 -81 -100 -108v-2q52 -11 88 -57.5t36 -107.5t-29.5 -105.5t-80.5 -68t-113 -23.5q-66 0 -117.5 24z" />
    <glyph glyph-name="uni10DF" unicode="&#x10df;" horiz-adv-x="563" 
d="M497 676v-475q0 -63 -29 -110.5t-80.5 -73.5t-117.5 -26q-64 0 -115.5 24.5t-81 68.5t-29.5 101q0 41 15 76l106 -18q-9 -31 -9 -57q0 -51 32 -82t83 -31q52 0 83.5 31.5t31.5 85.5v408l-187 -44q38 -6 67 -36t29 -71q0 -57 -43.5 -84.5t-105.5 -27.5q-29 0 -57 7t-49 18
l23 69q34 -17 76 -17q55 0 55 46q0 24 -27 41.5t-75 20.5v85l294 71h111z" />
    <glyph glyph-name="uni10E0" unicode="&#x10e0;" horiz-adv-x="761" 
d="M629 421.5q45 -26.5 70.5 -77t25.5 -120.5q0 -66 -17.5 -120t-47.5 -104h-105v3q31 53 45 103.5t14 114.5q0 72 -26.5 108t-72.5 36q-36 0 -61 -25.5t-24 -86.5l2 -140h-103l2 141q1 60 -23.5 85.5t-60.5 25.5q-45 0 -72.5 -36.5t-27.5 -107.5q0 -63 14.5 -113t44.5 -105
v-3h-105q-28 49 -46.5 120.5t-18.5 159.5q0 177 81.5 274t258.5 112l67 5q9 1 48.5 3.5t68.5 8.5l-5 -99q-26 -6 -61.5 -8t-42.5 -2q-40 -2 -61 -4q-108 -8 -179.5 -52.5t-87.5 -129.5h3q23 32 56 46t67 14q38 0 76 -20.5t54 -60.5h5q17 40 57.5 60.5t84.5 20.5
q58 0 103 -26.5z" />
    <glyph glyph-name="uni10E1" unicode="&#x10e1;" horiz-adv-x="561" 
d="M447.5 373.5q9.5 -19.5 28.5 -45.5q25 -36 38 -65.5t13 -77.5q0 -60 -32 -104.5t-85.5 -68t-116.5 -23.5q-68 0 -121 27.5t-82.5 78.5t-29.5 120v459h110l1 -469q0 -63 33.5 -99t88.5 -36t88.5 30.5t33.5 83.5q0 30 -10.5 51.5t-32.5 50.5q-24 31 -36.5 57t-12.5 63
q0 21 7 45l110 -10q-2 -14 -2 -20q0 -28 9.5 -47.5z" />
    <glyph glyph-name="uni10E2" unicode="&#x10e2;" horiz-adv-x="735" 
d="M564.5 603.5q62.5 -44.5 96.5 -115.5t34 -160q0 -103 -42.5 -179.5t-117 -117t-168.5 -40.5q-95 0 -170 42.5t-116.5 118.5t-41.5 174q0 91 35 162.5t98.5 115.5t145.5 54l-4 34h107l-4 -34q85 -10 147.5 -54.5zM525 141.5q57 68.5 57 187.5q0 102 -43.5 167t-124.5 80
l10 -318h-112l9 318q-82 -14 -125.5 -78.5t-43.5 -171.5q0 -75 26 -132.5t74.5 -89t114.5 -31.5q101 0 158 68.5z" />
    <glyph glyph-name="uni10E3" unicode="&#x10e3;" horiz-adv-x="566" 
d="M462.5 642.5q43.5 -39.5 43.5 -110.5v-324q0 -65 -29 -114.5t-81 -76t-118 -26.5q-68 0 -119.5 26.5t-79.5 73t-28 103.5q0 46 21 94l105 -20q-14 -37 -14 -73q0 -53 30 -87.5t85 -34.5q53 0 85.5 33t32.5 91v335q0 33 -15.5 51t-43.5 18t-43 -18t-15 -51v-126h-111v129
q0 58 -48 58q-10 0 -24 -3q-6 -1 -17 -2t-20 -1q-25 0 -41 10l26 85q18 -6 33 -6q13 0 28 3q5 0 15.5 1.5t19.5 1.5q68 0 92 -63h2q15 33 47.5 48t72.5 15q65 0 108.5 -39.5z" />
    <glyph glyph-name="uni10E4" unicode="&#x10e4;" horiz-adv-x="791" 
d="M342 11.5q-60 19.5 -98 59t-38 96.5q0 9 2 27l112 -9q-1 -4 -1 -12q0 -45 45.5 -72t104.5 -27q66 0 109.5 28t43.5 83q0 47 -27 74.5t-71 27.5h-15v82h27q47 0 75.5 29.5t28.5 85.5q0 58 -25.5 87t-65.5 29q-36 0 -58 -21t-18 -57q0 -9 2 -21q2 -18 2 -29
q0 -62 -29 -108.5t-79 -71.5t-113 -25q-62 0 -112 25.5t-78 73t-28 109.5t27.5 109t76 72.5t109.5 25.5q59 0 99.5 -18.5t63.5 -59.5h2q18 38 58 58t91 20q50 0 92.5 -22t68 -64.5t25.5 -103.5q0 -123 -116 -161v-2q50 -15 73.5 -54.5t23.5 -89.5q0 -60 -35 -104t-95 -66.5
t-133 -22.5q-67 0 -127 19.5zM337 382q31 35 31 91q0 54 -27 91.5t-83 37.5t-83.5 -36.5t-27.5 -92.5t30 -91t79 -35q50 0 81 35z" />
    <glyph glyph-name="uni10E5" unicode="&#x10e5;" horiz-adv-x="557" 
d="M489 674v-472q0 -99 -63.5 -155t-168.5 -56q-64 0 -115.5 24.5t-81 68.5t-29.5 101q0 40 14 76l107 -18q-9 -27 -9 -57q0 -51 32 -82t83 -31q56 0 88.5 30t32.5 93v276q-52 23 -102 23q-41 0 -65.5 -21t-24.5 -64q0 -19 6 -42l-109 -12q-11 35 -11 66q0 48 24 84
t65.5 55.5t91.5 19.5q32 0 66.5 -8t58.5 -19v120h110z" />
    <glyph glyph-name="uni10E6" unicode="&#x10e6;" horiz-adv-x="740" 
d="M437 77q-44 25 -109 25h-80q-77 0 -122 -14v79l88 9v2q-79 32 -127 101t-48 168q0 78 26.5 131t70.5 78.5t96 25.5q48 0 83 -18.5t52 -56.5h5q14 37 49.5 56t85.5 19q55 0 100 -26t71.5 -76t26.5 -120q0 -106 -40 -191l-102 27q30 70 30 164q0 71 -27.5 105t-71.5 34
q-34 0 -54.5 -24t-19.5 -70l3 -160h-104l3 161q1 45 -19.5 69t-55.5 24q-41 0 -69 -39t-28 -118q0 -72 30 -127t81 -87t114 -40q99 -13 158.5 -59t65.5 -128h-109q-9 51 -53 76z" />
    <glyph glyph-name="uni10E7" unicode="&#x10e7;" horiz-adv-x="572" 
d="M157.5 15.5q-51.5 24.5 -81 68.5t-29.5 101q0 40 14 76l107 -18q-9 -27 -9 -57q0 -51 32 -82t83 -31q56 0 88.5 30t32.5 93v149q-22 -10 -57 -18t-68 -8q-62 0 -112 24t-79.5 73t-29.5 119q0 73 32 139h107q-27 -69 -27 -134q0 -64 34.5 -99.5t94.5 -35.5q51 0 105 23
v246h110v-472q0 -99 -63.5 -155t-168.5 -56q-64 0 -115.5 24.5z" />
    <glyph glyph-name="uni10E8" unicode="&#x10e8;" horiz-adv-x="569" 
d="M151.5 18.5q-53.5 28.5 -82.5 80t-29 119.5q0 73 32.5 124t86 76.5t116.5 25.5q59 0 124 -20v116q0 27 -15.5 44.5t-43.5 17.5q-27 0 -42.5 -17t-15.5 -44v-44h-110v37q0 28 -16 44.5t-44 16.5q-30 0 -57 -9l-11 86q38 12 79 12q35 0 63.5 -15t44.5 -48h2
q16 32 49.5 47.5t73.5 15.5q64 0 108.5 -39t45.5 -104v-330q0 -67 -29 -117t-82.5 -77t-123.5 -27t-123.5 28.5zM367.5 107.5q31.5 37.5 31.5 110.5v120q-53 20 -109 20q-62 0 -100 -37t-38 -104t32 -107t91 -40q61 0 92.5 37.5z" />
    <glyph glyph-name="uni10E9" unicode="&#x10e9;" horiz-adv-x="565" 
d="M63 514q0 54 27.5 92.5t71.5 58t94 19.5q55 0 99 -18t69 -51t25 -74q0 -42 -20 -72t-64 -56q73 -13 116.5 -68t43.5 -141q0 -57 -11.5 -106t-32.5 -98h-107v3q40 96 40 195q0 68 -32 108.5t-94 40.5q-29 0 -60 -8t-54 -23v-316h-111v514zM236 426q48 19 75 44.5t27 64.5
q0 31 -22.5 49t-59.5 18t-60 -23t-23 -64v-112z" />
    <glyph glyph-name="uni10EA" unicode="&#x10ea;" horiz-adv-x="613" 
d="M176.5 33q-66.5 41 -103.5 124t-37 203q0 171 74 314h108q-71 -155 -71 -311q0 -139 49.5 -214t135.5 -75q59 0 95.5 31.5t36.5 89.5q0 60 -32 94t-86 34h-46v85h56q43 0 70 16.5t27 46.5q0 27 -12 45.5t-35 40.5q-24 23 -36 42t-12 46q0 7 4 29h107q-1 -3 -1 -10
q0 -20 9.5 -34.5t29.5 -34.5q27 -29 41.5 -54.5t14.5 -64.5q0 -42 -30 -70t-83 -39v-3q54 -12 90.5 -58t36.5 -111q0 -62 -32.5 -108t-88.5 -70.5t-126 -24.5q-87 0 -153.5 41z" />
    <glyph glyph-name="uni10EB" unicode="&#x10eb;" horiz-adv-x="572" 
d="M510 211q0 -67 -29 -117t-82.5 -77t-124.5 -27q-70 0 -123 28.5t-82.5 80.5t-29.5 122q0 73 32.5 124t86 76.5t117.5 25.5q66 0 124 -20v247h111v-463zM399 341q-53 20 -109 20q-62 0 -100 -36t-38 -103q0 -70 32 -111t91 -41q60 0 92 36.5t32 104.5v130z" />
    <glyph glyph-name="uni10EC" unicode="&#x10ec;" horiz-adv-x="570" 
d="M173.5 17q-53.5 27 -82.5 75.5t-29 111.5v337q0 65 44.5 104t108.5 39q40 0 73.5 -15.5t49.5 -47.5h3q16 33 44 48t63 15q41 0 79 -12l-11 -86q-25 9 -56 9q-28 0 -44.5 -16t-16.5 -45v-37h-110v44q0 27 -15.5 44t-41.5 17q-28 0 -43.5 -17.5t-15.5 -44.5v-123
q25 14 59.5 22t72.5 8q62 0 114 -27t82.5 -79.5t30.5 -124.5q0 -67 -29 -118t-82.5 -79.5t-123.5 -28.5t-123.5 27zM388 110q32 40 32 106t-36 106t-95 40q-33 0 -63.5 -8.5t-52.5 -22.5v-120q0 -70 31.5 -105.5t92.5 -35.5q59 0 91 40z" />
    <glyph glyph-name="uni10ED" unicode="&#x10ed;" horiz-adv-x="658" 
d="M141.5 15.5q-51.5 24.5 -81 68.5t-29.5 101q0 40 14 76l107 -18q-9 -27 -9 -57q0 -51 32 -82t83 -31q56 0 88.5 30t32.5 93v149q-67 -36 -136 -36q-75 0 -126 36.5t-51 99.5t51 99.5t126 36.5q37 0 69.5 -8t66.5 -26v127h104v-176q51 44 92 104l63 -64q-63 -60 -127 -97
q35 -20 64.5 -43.5t62.5 -54.5l-63 -65q-40 62 -92 109v-185q0 -99 -61 -155t-165 -56q-64 0 -115.5 24.5zM379 422v48q-52 29 -121 29q-40 0 -64.5 -13t-24.5 -41t24.5 -41t64.5 -13q67 0 121 31z" />
    <glyph glyph-name="uni10EE" unicode="&#x10ee;" horiz-adv-x="569" 
d="M419 420q52 -27 82.5 -79.5t30.5 -124.5q0 -67 -29 -118t-82.5 -79.5t-123.5 -28.5t-123.5 27t-82.5 75.5t-29 111.5v470h111v-257q23 12 59 21t73 9q62 0 114 -27zM388 110q32 40 32 106t-36 106t-95 40q-32 0 -64 -9.5t-52 -21.5v-120q0 -70 31.5 -105.5t92.5 -35.5
q59 0 91 40z" />
    <glyph glyph-name="uni10EF" unicode="&#x10ef;" horiz-adv-x="527" 
d="M144.5 15.5q-51.5 24.5 -81 68.5t-29.5 101q0 40 14 76l107 -18q-9 -27 -9 -57q0 -51 32 -82t83 -31q50 0 82.5 26.5t32.5 78.5q0 40 -18.5 68.5t-56.5 66.5q-43 44 -65.5 79t-26.5 89q-102 10 -175 10v82q73 0 174 -12v113h109v-124q121 -10 174 -9v-82q-73 0 -168 10
q8 -32 25.5 -55.5t50.5 -57.5q44 -44 66 -80.5t22 -93.5q0 -59 -30 -102.5t-81.5 -66t-115.5 -22.5t-115.5 24.5z" />
    <glyph glyph-name="uni10F0" unicode="&#x10f0;" horiz-adv-x="513" 
d="M141.5 8q-50.5 18 -81.5 54.5t-31 88.5q0 19 6 37l106 -14q-2 -18 -2 -20q0 -41 30.5 -62t80.5 -21q46 0 78 20.5t32 58.5q0 39 -30 59t-77 20h-35v80h55q68 0 68 45q0 22 -18 33t-50 11h-55v79h56q64 0 64 36q0 17 -14 28t-44 26q-39 19 -60 37t-21 52q0 11 1 18h112
q-2 -18 11.5 -30t41.5 -26q39 -21 60.5 -42t21.5 -59q0 -29 -20.5 -49.5t-60.5 -27.5v-2q40 -5 62 -28t22 -57q0 -36 -20 -59t-60 -30v-3q43 -7 72 -39.5t29 -76.5q0 -46 -29.5 -81t-80 -54.5t-111.5 -19.5q-58 0 -108.5 18z" />
    <glyph glyph-name="Wgrave" unicode="&#x1e80;" horiz-adv-x="860" 
d="M487 711h-88l-126 118h124zM15 674h116l70 -320q28 -127 47 -234h2q13 81 51 235l79 319h115l72 -323q31 -137 44 -229h2q12 72 49 233l77 319h111l-185 -674h-116l-75 331q-30 125 -40 216h-2q-19 -110 -48 -216l-85 -331h-117z" />
    <glyph glyph-name="wgrave" unicode="&#x1e81;" horiz-adv-x="744" 
d="M432 550h-76l-122 146h112zM183 255q24 -98 33 -156h3q13 59 41 155l70 232h89l66 -227q23 -79 41 -160h3q9 64 34 160l60 227h107l-154 -486h-101l-64 211q-24 78 -39 157h-2q-12 -63 -40 -157l-69 -211h-101l-144 486h111z" />
    <glyph glyph-name="Wacute" unicode="&#x1e82;" horiz-adv-x="860" 
d="M472 710h-88l89 119h125zM15 674h116l70 -320q28 -127 47 -234h2q13 81 51 235l79 319h115l72 -323q31 -137 44 -229h2q12 72 49 233l77 319h111l-185 -674h-116l-75 331q-30 125 -40 216h-2q-19 -110 -48 -216l-85 -331h-117z" />
    <glyph glyph-name="wacute" unicode="&#x1e83;" horiz-adv-x="744" 
d="M396 550h-77l87 146h112zM183 255q24 -98 33 -156h3q13 59 41 155l70 232h89l66 -227q23 -79 41 -160h3q9 64 34 160l60 227h107l-154 -486h-101l-64 211q-24 78 -39 157h-2q-12 -63 -40 -157l-69 -211h-101l-144 486h111z" />
    <glyph glyph-name="Wdieresis" unicode="&#x1e84;" horiz-adv-x="860" 
d="M300 734.5q-16 16.5 -16 40.5q0 23 16 39.5t40 16.5q23 0 38.5 -16t15.5 -40t-15.5 -40.5t-38.5 -16.5q-24 0 -40 16.5zM492.5 734.5q-15.5 16.5 -15.5 40.5q0 23 16 39.5t40 16.5q23 0 38.5 -16t15.5 -40t-15.5 -40.5t-39.5 -16.5t-39.5 16.5zM15 674h116l70 -320
q28 -127 47 -234h2q13 81 51 235l79 319h115l72 -323q31 -137 44 -229h2q12 72 49 233l77 319h111l-185 -674h-116l-75 331q-30 125 -40 216h-2q-19 -110 -48 -216l-85 -331h-117z" />
    <glyph glyph-name="wdieresis" unicode="&#x1e85;" horiz-adv-x="744" 
d="M234.5 582.5q-16.5 16.5 -16.5 40.5t17 41t41 17q23 0 39 -16.5t16 -41.5q0 -24 -15.5 -40.5t-39.5 -16.5q-25 0 -41.5 16.5zM428 582.5q-16 16.5 -16 40.5t16.5 41t40.5 17t40 -16.5t16 -41.5q0 -24 -16 -40.5t-40 -16.5q-25 0 -41 16.5zM183 255q24 -98 33 -156h3
q13 59 41 155l70 232h89l66 -227q23 -79 41 -160h3q9 64 34 160l60 227h107l-154 -486h-101l-64 211q-24 78 -39 157h-2q-12 -63 -40 -157l-69 -211h-101l-144 486h111z" />
    <glyph glyph-name="uni1EA0" unicode="&#x1ea0;" horiz-adv-x="627" 
d="M135 0h-113l222 674h136l223 -674h-116l-66 199h-223zM344 459q-15 46 -35 126h-2l-7 -28q-18 -73 -26 -97l-57 -178h185zM270 -176q-16 17 -16 40t16.5 39.5t39.5 16.5q24 0 39.5 -16.5t15.5 -39.5t-16 -40t-39 -17q-24 0 -40 17z" />
    <glyph glyph-name="uni1EA1" unicode="&#x1ea1;" horiz-adv-x="497" 
d="M333 57h-3q-23 -30 -61 -49t-85 -19t-81 20t-52 53t-18 70q0 89 76 136t214 46v9q0 37 -21.5 66.5t-81.5 29.5q-35 0 -69.5 -10t-59.5 -27l-23 72q31 19 75.5 31t93.5 12q106 0 150.5 -57t44.5 -146v-177q0 -74 7 -117h-99zM142 143q0 -37 21 -56t54 -19q39 0 66.5 21
t37.5 52q5 13 5 27v74q-184 2 -184 -99zM289 -96.5q16 -16.5 16 -41.5q0 -24 -16 -41t-41 -17q-24 0 -40 17t-16 41q0 25 16.5 41.5t41.5 16.5q23 0 39 -16.5z" />
    <glyph glyph-name="uni1EA2" unicode="&#x1ea2;" horiz-adv-x="627" 
d="M317 766q11 12 16 20.5t5 19.5q0 14 -9 22.5t-23 8.5q-24 0 -48 -35l-38 23q36 71 107 71q36 0 61.5 -22t25.5 -54q0 -22 -9 -36.5t-28 -32.5q-25 -23 -36 -43l-54 14q9 23 30 44zM135 0h-113l222 674h136l223 -674h-116l-66 199h-223zM344 459q-15 46 -35 126h-2l-7 -28
q-18 -73 -26 -97l-57 -178h185z" />
    <glyph glyph-name="uni1EA3" unicode="&#x1ea3;" horiz-adv-x="497" 
d="M242 592q13 14 19 23.5t6 22.5q0 15 -9 24t-23 9q-25 0 -47 -34l-39 23q16 32 42 51.5t63 19.5q38 0 64 -22.5t26 -56.5q0 -24 -10.5 -40.5t-31.5 -37.5q-25 -25 -35 -45l-56 13q6 23 31 50zM333 57h-3q-23 -30 -61 -49t-85 -19t-81 20t-52 53t-18 70q0 89 76 136t214 46
v9q0 37 -21.5 66.5t-81.5 29.5q-35 0 -69.5 -10t-59.5 -27l-23 72q31 19 75.5 31t93.5 12q106 0 150.5 -57t44.5 -146v-177q0 -74 7 -117h-99zM142 143q0 -37 21 -56t54 -19q39 0 66.5 21t37.5 52q5 13 5 27v74q-184 2 -184 -99z" />
    <glyph glyph-name="uni1EA4" unicode="&#x1ea4;" horiz-adv-x="627" 
d="M459 797h-59l82 108h103zM449 710h-79l-51 68h-2l-53 -68h-77l92 117h77zM135 0h-113l222 674h136l223 -674h-116l-66 199h-223zM344 459q-15 46 -35 126h-2l-7 -28q-18 -73 -26 -97l-57 -178h185z" />
    <glyph glyph-name="uni1EA5" unicode="&#x1ea5;" horiz-adv-x="497" 
d="M397 645h-60l72 138h93zM368 550h-77l-48 92h-2l-49 -92h-75l86 146h78zM333 57h-3q-23 -30 -61 -49t-85 -19t-81 20t-52 53t-18 70q0 89 76 136t214 46v9q0 37 -21.5 66.5t-81.5 29.5q-35 0 -69.5 -10t-59.5 -27l-23 72q31 19 75.5 31t93.5 12q106 0 150.5 -57
t44.5 -146v-177q0 -74 7 -117h-99zM142 143q0 -37 21 -56t54 -19q39 0 66.5 21t37.5 52q5 13 5 27v74q-184 2 -184 -99z" />
    <glyph glyph-name="uni1EA6" unicode="&#x1ea6;" horiz-adv-x="627" 
d="M517 780h-62l-113 108h105zM443 710h-79l-52 68h-2l-52 -68h-77l92 117h77zM135 0h-113l222 674h136l223 -674h-116l-66 199h-223zM344 459q-15 46 -35 126h-2l-7 -28q-18 -73 -26 -97l-57 -178h185z" />
    <glyph glyph-name="uni1EA7" unicode="&#x1ea7;" horiz-adv-x="497" 
d="M439 645h-60l-97 138h91zM368 550h-77l-48 92h-3l-48 -92h-75l86 146h78zM333 57h-3q-23 -30 -61 -49t-85 -19t-81 20t-52 53t-18 70q0 89 76 136t214 46v9q0 37 -21.5 66.5t-81.5 29.5q-35 0 -69.5 -10t-59.5 -27l-23 72q31 19 75.5 31t93.5 12q106 0 150.5 -57
t44.5 -146v-177q0 -74 7 -117h-99zM142 143q0 -37 21 -56t54 -19q39 0 66.5 21t37.5 52q5 13 5 27v74q-184 2 -184 -99z" />
    <glyph glyph-name="uni1EA8" unicode="&#x1ea8;" horiz-adv-x="627" 
d="M457 811q11 11 16.5 19.5t5.5 20.5q0 14 -9 23t-23 9q-26 0 -48 -37l-37 22q34 67 101 67q35 0 59 -21t24 -52q0 -20 -8 -32.5t-26 -30.5q-9 -9 -19 -20.5t-17 -23.5l-48 13q7 19 29 43zM445 710h-79l-52 68h-2l-51 -68h-78l92 117h77zM135 0h-113l222 674h136l223 -674
h-116l-66 199h-223zM344 459q-15 46 -35 126h-2l-7 -28q-18 -73 -26 -97l-57 -178h185z" />
    <glyph glyph-name="uni1EA9" unicode="&#x1ea9;" horiz-adv-x="497" 
d="M378 689q11 13 15.5 20.5t4.5 18.5q0 14 -8.5 22.5t-22.5 8.5q-24 0 -46 -35l-36 23q33 67 101 67q35 0 59 -22t24 -52q0 -21 -8.5 -34t-26.5 -30q-9 -9 -18.5 -19.5t-16.5 -22.5l-50 12q8 22 29 43zM367 550h-77l-49 92h-2l-49 -92h-75l86 146h78zM333 57h-3
q-23 -30 -61 -49t-85 -19t-81 20t-52 53t-18 70q0 89 76 136t214 46v9q0 37 -21.5 66.5t-81.5 29.5q-35 0 -69.5 -10t-59.5 -27l-23 72q31 19 75.5 31t93.5 12q106 0 150.5 -57t44.5 -146v-177q0 -74 7 -117h-99zM142 143q0 -37 21 -56t54 -19q39 0 66.5 21t37.5 52
q5 13 5 27v74q-184 2 -184 -99z" />
    <glyph glyph-name="uni1EAA" unicode="&#x1eaa;" horiz-adv-x="627" 
d="M206 914.5q20 27.5 54 27.5q16 0 29.5 -5t32.5 -16q4 -2 18.5 -9.5t24.5 -7.5q12 0 18.5 9t8.5 32h54q1 -51 -17.5 -76.5t-55.5 -25.5q-15 0 -29 5.5t-33 15.5q-13 7 -24 11.5t-19 4.5q-22 0 -25 -39h-56q-1 46 19 73.5zM458 710h-85l-59 67h-2l-59 -67h-83l101 117h83z
M135 0h-113l222 674h136l223 -674h-116l-66 199h-223zM344 459q-15 46 -35 126h-2l-7 -28q-18 -73 -26 -97l-57 -178h185z" />
    <glyph glyph-name="uni1EAB" unicode="&#x1eab;" horiz-adv-x="497" 
d="M141.5 759.5q19.5 27.5 53.5 27.5q16 0 29 -5.5t33 -16.5q4 -2 18.5 -9t24.5 -7q13 0 19.5 8.5t7.5 31.5h55q2 -102 -73 -102q-16 0 -29 5t-34 16q-13 7 -23.5 11.5t-18.5 4.5q-11 0 -17.5 -10t-7.5 -28h-56q-1 46 18.5 73.5zM380 550h-79l-52 72h-2l-51 -72h-78l91 122
h79zM333 57h-3q-23 -30 -61 -49t-85 -19t-81 20t-52 53t-18 70q0 89 76 136t214 46v9q0 37 -21.5 66.5t-81.5 29.5q-35 0 -69.5 -10t-59.5 -27l-23 72q31 19 75.5 31t93.5 12q106 0 150.5 -57t44.5 -146v-177q0 -74 7 -117h-99zM142 143q0 -37 21 -56t54 -19q39 0 66.5 21
t37.5 52q5 13 5 27v74q-184 2 -184 -99z" />
    <glyph glyph-name="uni1EAC" unicode="&#x1eac;" horiz-adv-x="627" 
d="M461 710h-85l-59 67h-2l-59 -67h-83l101 117h83zM135 0h-113l222 674h136l223 -674h-116l-66 199h-223zM344 459q-15 46 -35 126h-2l-7 -28q-18 -73 -26 -97l-57 -178h185zM268 -176q-16 17 -16 40t16.5 39.5t40.5 16.5q23 0 38.5 -16.5t15.5 -39.5t-16 -40t-39 -17
q-24 0 -40 17z" />
    <glyph glyph-name="uni1EAD" unicode="&#x1ead;" horiz-adv-x="497" 
d="M378 550h-77l-56 92h-2l-55 -92h-77l96 146h74zM333 57h-3q-23 -30 -61 -49t-85 -19t-81 20t-52 53t-18 70q0 89 76 136t214 46v9q0 37 -21.5 66.5t-81.5 29.5q-35 0 -69.5 -10t-59.5 -27l-23 72q31 19 75.5 31t93.5 12q106 0 150.5 -57t44.5 -146v-177q0 -74 7 -117h-99
zM142 143q0 -37 21 -56t54 -19q39 0 66.5 21t37.5 52q5 13 5 27v74q-184 2 -184 -99zM289 -96.5q16 -16.5 16 -41.5q0 -24 -16 -41t-41 -17q-24 0 -40 17t-16 41q0 25 16.5 41.5t41.5 16.5q23 0 39 -16.5z" />
    <glyph glyph-name="uni1EAE" unicode="&#x1eae;" horiz-adv-x="627" 
d="M337 798h-63l72 107h107zM263.5 773.5q18.5 -13.5 51.5 -13.5q63 0 77 48h54q-6 -46 -40 -77.5t-92 -31.5t-91 30.5t-39 78.5h55q6 -21 24.5 -34.5zM135 0h-113l222 674h136l223 -674h-116l-66 199h-223zM344 459q-15 46 -35 126h-2l-7 -28q-18 -73 -26 -97l-57 -178h185
z" />
    <glyph glyph-name="uni1EAF" unicode="&#x1eaf;" horiz-adv-x="497" 
d="M263 649h-61l82 136h95zM189 614.5q21 -18.5 54 -18.5q36 0 56.5 19.5t22.5 46.5h57q-1 -58 -38.5 -94t-98.5 -36q-64 0 -99.5 37.5t-36.5 92.5h57q5 -29 26 -47.5zM333 57h-3q-23 -30 -61 -49t-85 -19t-81 20t-52 53t-18 70q0 89 76 136t214 46v9q0 37 -21.5 66.5
t-81.5 29.5q-35 0 -69.5 -10t-59.5 -27l-23 72q31 19 75.5 31t93.5 12q106 0 150.5 -57t44.5 -146v-177q0 -74 7 -117h-99zM142 143q0 -37 21 -56t54 -19q39 0 66.5 21t37.5 52q5 13 5 27v74q-184 2 -184 -99z" />
    <glyph glyph-name="uni1EB0" unicode="&#x1eb0;" horiz-adv-x="627" 
d="M362 798h-63l-116 107h107zM265.5 773.5q18.5 -13.5 51.5 -13.5q64 0 78 48h53q-6 -46 -40 -77.5t-92 -31.5t-90.5 30.5t-38.5 78.5h55q5 -21 23.5 -34.5zM135 0h-113l222 674h136l223 -674h-116l-66 199h-223zM344 459q-15 46 -35 126h-2l-7 -28q-18 -73 -26 -97
l-57 -178h185z" />
    <glyph glyph-name="uni1EB1" unicode="&#x1eb1;" horiz-adv-x="497" 
d="M289 649h-62l-115 136h95zM192 614.5q21 -18.5 54 -18.5q36 0 57 19.5t23 46.5h57q-2 -59 -39.5 -94.5t-98.5 -35.5q-64 0 -99.5 37.5t-36.5 92.5h58q4 -29 25 -47.5zM333 57h-3q-23 -30 -61 -49t-85 -19t-81 20t-52 53t-18 70q0 89 76 136t214 46v9q0 37 -21.5 66.5
t-81.5 29.5q-35 0 -69.5 -10t-59.5 -27l-23 72q31 19 75.5 31t93.5 12q106 0 150.5 -57t44.5 -146v-177q0 -74 7 -117h-99zM142 143q0 -37 21 -56t54 -19q39 0 66.5 21t37.5 52q5 13 5 27v74q-184 2 -184 -99z" />
    <glyph glyph-name="uni1EB2" unicode="&#x1eb2;" horiz-adv-x="627" 
d="M313 840q11 11 16 19.5t5 19.5q0 14 -8.5 22.5t-22.5 8.5q-24 0 -47 -35l-36 22q34 67 101 67q35 0 59 -21t24 -51q0 -21 -8.5 -34.5t-27.5 -31.5q-3 -4 -14.5 -15.5t-19.5 -25.5l-50 12q8 20 29 43zM266 774q19 -14 52 -14q63 0 77 48h54q-6 -46 -40.5 -77.5
t-92.5 -31.5t-90.5 30.5t-38.5 78.5h55q5 -20 24 -34zM135 0h-113l222 674h136l223 -674h-116l-66 199h-223zM344 459q-15 46 -35 126h-2l-7 -28q-18 -73 -26 -97l-57 -178h185z" />
    <glyph glyph-name="uni1EB3" unicode="&#x1eb3;" horiz-adv-x="497" 
d="M239 694q11 13 15.5 20.5t4.5 18.5q0 13 -9 22t-23 9q-23 0 -45 -35l-37 23q34 67 102 67q35 0 59 -22t24 -52q0 -21 -8 -33.5t-26 -30.5q-24 -22 -35 -42l-51 12q8 22 29 43zM190 614.5q21 -18.5 53 -18.5q37 0 57.5 19t22.5 47h58q-2 -59 -39.5 -94.5t-98.5 -35.5
q-64 0 -99.5 37.5t-36.5 92.5h57q5 -29 26 -47.5zM333 57h-3q-23 -30 -61 -49t-85 -19t-81 20t-52 53t-18 70q0 89 76 136t214 46v9q0 37 -21.5 66.5t-81.5 29.5q-35 0 -69.5 -10t-59.5 -27l-23 72q31 19 75.5 31t93.5 12q106 0 150.5 -57t44.5 -146v-177q0 -74 7 -117h-99z
M142 143q0 -37 21 -56t54 -19q39 0 66.5 21t37.5 52q5 13 5 27v74q-184 2 -184 -99z" />
    <glyph glyph-name="uni1EB4" unicode="&#x1eb4;" horiz-adv-x="627" 
d="M203.5 907.5q18.5 25.5 52.5 25.5q15 0 28.5 -4.5t34.5 -15.5q28 -16 42 -16q13 0 19.5 8.5t8.5 31.5h54q1 -51 -17.5 -77t-55.5 -26q-13 0 -25 4t-23 9.5l-15 7.5q-15 9 -24 12.5t-18 3.5q-19 0 -25 -30h-56q1 41 19.5 66.5zM259.5 773.5q18.5 -13.5 51.5 -13.5
q63 0 77 48h54q-6 -46 -40 -77.5t-92 -31.5t-90.5 30.5t-38.5 78.5h54q6 -21 24.5 -34.5zM135 0h-113l222 674h136l223 -674h-116l-66 199h-223zM344 459q-15 46 -35 126h-2l-7 -28q-18 -73 -26 -97l-57 -178h185z" />
    <glyph glyph-name="uni1EB5" unicode="&#x1eb5;" horiz-adv-x="497" 
d="M139 769.5q19 25.5 52 25.5q16 0 29.5 -5t33.5 -16q3 -1 17.5 -8.5t25.5 -7.5q13 0 19.5 8.5t7.5 31.5h54q3 -102 -72 -102q-16 0 -29 5t-34 16l-14 7t-16.5 7t-12.5 2q-10 0 -16 -9t-8 -22h-57q1 42 20 67.5zM196 613q20 -19 51 -19q34 0 54.5 20.5t22.5 47.5h57
q-2 -59 -38 -94.5t-96 -35.5q-64 0 -98 37t-35 93h57q5 -30 25 -49zM333 57h-3q-23 -30 -61 -49t-85 -19t-81 20t-52 53t-18 70q0 89 76 136t214 46v9q0 37 -21.5 66.5t-81.5 29.5q-35 0 -69.5 -10t-59.5 -27l-23 72q31 19 75.5 31t93.5 12q106 0 150.5 -57t44.5 -146v-177
q0 -74 7 -117h-99zM142 143q0 -37 21 -56t54 -19q39 0 66.5 21t37.5 52q5 13 5 27v74q-184 2 -184 -99z" />
    <glyph glyph-name="uni1EB6" unicode="&#x1eb6;" horiz-adv-x="627" 
d="M264 803q16 -14 48 -14q59 0 69 48h60q-2 -50 -34 -81t-96 -31t-95.5 30.5t-33.5 81.5h62q4 -20 20 -34zM135 0h-113l222 674h136l223 -674h-116l-66 199h-223zM344 459q-15 46 -35 126h-2l-7 -28q-18 -73 -26 -97l-57 -178h185zM269.5 -176q-16.5 17 -16.5 40t16.5 39.5
t40.5 16.5q23 0 38.5 -16.5t15.5 -39.5t-15.5 -40t-38.5 -17q-24 0 -40.5 17z" />
    <glyph glyph-name="uni1EB7" unicode="&#x1eb7;" horiz-adv-x="497" 
d="M202.5 637.5q17.5 -18.5 45.5 -18.5q32 0 49 19.5t20 46.5h61q-1 -59 -35.5 -94.5t-94.5 -35.5q-63 0 -95.5 37.5t-32.5 92.5h61q4 -29 21.5 -47.5zM333 57h-3q-23 -30 -61 -49t-85 -19t-81 20t-52 53t-18 70q0 89 76 136t214 46v9q0 37 -21.5 66.5t-81.5 29.5
q-35 0 -69.5 -10t-59.5 -27l-23 72q31 19 75.5 31t93.5 12q106 0 150.5 -57t44.5 -146v-177q0 -74 7 -117h-99zM142 143q0 -37 21 -56t54 -19q39 0 66.5 21t37.5 52q5 13 5 27v74q-184 2 -184 -99zM289 -96.5q16 -16.5 16 -41.5q0 -24 -16 -41t-41 -17q-24 0 -40 17t-16 41
q0 25 16.5 41.5t41.5 16.5q23 0 39 -16.5z" />
    <glyph glyph-name="uni1EB8" unicode="&#x1eb8;" horiz-adv-x="506" 
d="M182 306v-216h287v-90h-396v674h381v-90h-272v-189h257v-89h-257zM234.5 -176q-16.5 17 -16.5 40t17 39.5t41 16.5q22 0 38 -16.5t16 -39.5t-16 -40t-39 -17q-24 0 -40.5 17z" />
    <glyph glyph-name="uni1EB9" unicode="&#x1eb9;" horiz-adv-x="510" 
d="M187 109q44 -36 110 -36q42 0 73 6t62 17l16 -76q-69 -30 -166 -30q-115 0 -180.5 66.5t-65.5 179.5q0 70 27.5 130t80.5 95.5t126 35.5q74 0 120 -35.5t66 -89t20 -109.5q0 -27 -4 -47h-331q2 -71 46 -107zM347.5 381q-25.5 40 -85.5 40q-54 0 -85 -39.5t-36 -88.5h231
q1 48 -24.5 88zM295 -96.5q16 -16.5 16 -41.5q0 -24 -16 -41t-41 -17q-24 0 -40 17t-16 41q0 25 16.5 41.5t41.5 16.5q23 0 39 -16.5z" />
    <glyph glyph-name="uni1EBA" unicode="&#x1eba;" horiz-adv-x="506" 
d="M275 766q11 12 16 20.5t5 19.5q0 14 -8.5 22.5t-22.5 8.5q-25 0 -49 -35l-38 23q36 71 107 71q37 0 62.5 -22t25.5 -54q0 -22 -9 -36t-29 -33q-9 -9 -19 -20t-17 -23l-54 14q9 23 30 44zM182 306v-216h287v-90h-396v674h381v-90h-272v-189h257v-89h-257z" />
    <glyph glyph-name="uni1EBB" unicode="&#x1ebb;" horiz-adv-x="510" 
d="M248 592q13 14 19 23.5t6 22.5q0 15 -9.5 24t-23.5 9q-26 0 -46 -34l-39 23q35 71 105 71q38 0 64 -22.5t26 -56.5q0 -24 -10.5 -40.5t-31.5 -37.5q-25 -25 -35 -45l-56 13q6 23 31 50zM187 109q44 -36 110 -36q42 0 73 6t62 17l16 -76q-69 -30 -166 -30
q-115 0 -180.5 66.5t-65.5 179.5q0 70 27.5 130t80.5 95.5t126 35.5q74 0 120 -35.5t66 -89t20 -109.5q0 -27 -4 -47h-331q2 -71 46 -107zM347.5 381q-25.5 40 -85.5 40q-54 0 -85 -39.5t-36 -88.5h231q1 48 -24.5 88z" />
    <glyph glyph-name="uni1EBC" unicode="&#x1ebc;" horiz-adv-x="506" 
d="M161 795.5q19 29.5 53 29.5q16 0 29 -5t32 -15q12 -7 24.5 -12.5t21.5 -5.5q13 0 19 8.5t8 31.5h54q1 -106 -71 -106q-27 0 -62 19q-5 3 -15 8.5t-17.5 8t-13.5 2.5q-22 0 -25 -44h-55q-1 51 18 80.5zM182 306v-216h287v-90h-396v674h381v-90h-272v-189h257v-89h-257z
" />
    <glyph glyph-name="uni1EBD" unicode="&#x1ebd;" horiz-adv-x="510" 
d="M143.5 647q19.5 30 54.5 30q16 0 29.5 -5t33.5 -16q29 -18 42 -18t19.5 9.5t7.5 33.5h55q1 -110 -74 -110q-15 0 -28.5 5t-34.5 16q-13 8 -23.5 12.5t-18.5 4.5q-22 0 -25 -45h-56q-1 53 18.5 83zM187 109q44 -36 110 -36q42 0 73 6t62 17l16 -76q-69 -30 -166 -30
q-115 0 -180.5 66.5t-65.5 179.5q0 70 27.5 130t80.5 95.5t126 35.5q74 0 120 -35.5t66 -89t20 -109.5q0 -27 -4 -47h-331q2 -71 46 -107zM347.5 381q-25.5 40 -85.5 40q-54 0 -85 -39.5t-36 -88.5h231q1 48 -24.5 88z" />
    <glyph glyph-name="uni1EBE" unicode="&#x1ebe;" horiz-adv-x="506" 
d="M409 797h-59l81 108h103zM399 710h-80l-51 68h-2l-52 -68h-77l91 117h77zM182 306v-216h287v-90h-396v674h381v-90h-272v-189h257v-89h-257z" />
    <glyph glyph-name="uni1EBF" unicode="&#x1ebf;" horiz-adv-x="510" 
d="M427 645h-60l71 138h93zM398 550h-77l-49 92h-2l-48 -92h-76l86 146h78zM187 109q44 -36 110 -36q42 0 73 6t62 17l16 -76q-69 -30 -166 -30q-115 0 -180.5 66.5t-65.5 179.5q0 70 27.5 130t80.5 95.5t126 35.5q74 0 120 -35.5t66 -89t20 -109.5q0 -27 -4 -47h-331
q2 -71 46 -107zM347.5 381q-25.5 40 -85.5 40q-54 0 -85 -39.5t-36 -88.5h231q1 48 -24.5 88z" />
    <glyph glyph-name="uni1EC0" unicode="&#x1ec0;" horiz-adv-x="506" 
d="M469 780h-62l-112 108h105zM396 710h-80l-51 68h-2l-52 -68h-77l91 117h78zM182 306v-216h287v-90h-396v674h381v-90h-272v-189h257v-89h-257z" />
    <glyph glyph-name="uni1EC1" unicode="&#x1ec1;" horiz-adv-x="510" 
d="M465 645h-60l-97 138h92zM394 550h-76l-49 92h-2l-49 -92h-75l86 146h78zM187 109q44 -36 110 -36q42 0 73 6t62 17l16 -76q-69 -30 -166 -30q-115 0 -180.5 66.5t-65.5 179.5q0 70 27.5 130t80.5 95.5t126 35.5q74 0 120 -35.5t66 -89t20 -109.5q0 -27 -4 -47h-331
q2 -71 46 -107zM347.5 381q-25.5 40 -85.5 40q-54 0 -85 -39.5t-36 -88.5h231q1 48 -24.5 88z" />
    <glyph glyph-name="uni1EC2" unicode="&#x1ec2;" horiz-adv-x="506" 
d="M408 811q11 11 16.5 19.5t5.5 20.5q0 14 -9.5 23t-23.5 9q-13 0 -24.5 -10t-23.5 -27l-36 22q36 67 101 67q35 0 59 -21t24 -52q0 -20 -8 -32.5t-26 -30.5q-9 -9 -19 -20.5t-17 -23.5l-48 13q7 19 29 43zM397 710h-80l-51 68h-2l-52 -68h-77l91 117h77zM182 306v-216h287
v-90h-396v674h381v-90h-272v-189h257v-89h-257z" />
    <glyph glyph-name="uni1EC3" unicode="&#x1ec3;" horiz-adv-x="510" 
d="M401 689q11 11 16 19.5t5 19.5q0 13 -9 22t-23 9q-24 0 -46 -35l-37 23q36 67 102 67q35 0 59 -22t24 -52q0 -21 -8.5 -34.5t-25.5 -29.5q-9 -9 -18.5 -19.5t-16.5 -22.5l-51 12q8 20 29 43zM389 550h-76l-49 92h-2l-49 -92h-75l86 146h78zM187 109q44 -36 110 -36
q42 0 73 6t62 17l16 -76q-69 -30 -166 -30q-115 0 -180.5 66.5t-65.5 179.5q0 70 27.5 130t80.5 95.5t126 35.5q74 0 120 -35.5t66 -89t20 -109.5q0 -27 -4 -47h-331q2 -71 46 -107zM347.5 381q-25.5 40 -85.5 40q-54 0 -85 -39.5t-36 -88.5h231q1 48 -24.5 88z" />
    <glyph glyph-name="uni1EC4" unicode="&#x1ec4;" horiz-adv-x="506" 
d="M168 914.5q20 27.5 54 27.5q16 0 29.5 -5t33.5 -16q5 -2 18.5 -9.5t23.5 -7.5q13 0 19.5 9t7.5 32h55q2 -102 -73 -102q-16 0 -29 5t-34 16q-13 7 -23.5 11.5t-18.5 4.5q-11 0 -17.5 -10.5t-8.5 -28.5h-55q-2 46 18 73.5zM420 710h-85l-59 67h-2l-59 -67h-83l102 117h83z
M182 306v-216h287v-90h-396v674h381v-90h-272v-189h257v-89h-257z" />
    <glyph glyph-name="uni1EC5" unicode="&#x1ec5;" horiz-adv-x="510" 
d="M157.5 759.5q19.5 27.5 53.5 27.5q15 0 28.5 -5t34.5 -17q3 -2 17.5 -9t24.5 -7q13 0 19.5 8.5t8.5 31.5h54q1 -51 -17.5 -76.5t-55.5 -25.5q-15 0 -29 5.5t-33 15.5q-13 7 -24 11.5t-19 4.5q-22 0 -25 -38h-56q-1 46 18.5 73.5zM396 550h-79l-51 72h-2l-52 -72h-78
l92 122h78zM187 109q44 -36 110 -36q42 0 73 6t62 17l16 -76q-69 -30 -166 -30q-115 0 -180.5 66.5t-65.5 179.5q0 70 27.5 130t80.5 95.5t126 35.5q74 0 120 -35.5t66 -89t20 -109.5q0 -27 -4 -47h-331q2 -71 46 -107zM347.5 381q-25.5 40 -85.5 40q-54 0 -85 -39.5
t-36 -88.5h231q1 48 -24.5 88z" />
    <glyph glyph-name="uni1EC6" unicode="&#x1ec6;" horiz-adv-x="506" 
d="M409 710h-85l-60 67h-2l-58 -67h-84l102 117h83zM182 306v-216h287v-90h-396v674h381v-90h-272v-189h257v-89h-257zM234.5 -176q-16.5 17 -16.5 40t17 39.5t41 16.5q22 0 38 -16.5t16 -39.5t-16 -40t-39 -17q-24 0 -40.5 17z" />
    <glyph glyph-name="uni1EC7" unicode="&#x1ec7;" horiz-adv-x="510" 
d="M389 550h-79l-55 92h-2l-55 -92h-77l96 146h75zM187 109q44 -36 110 -36q42 0 73 6t62 17l16 -76q-69 -30 -166 -30q-115 0 -180.5 66.5t-65.5 179.5q0 70 27.5 130t80.5 95.5t126 35.5q74 0 120 -35.5t66 -89t20 -109.5q0 -27 -4 -47h-331q2 -71 46 -107zM347.5 381
q-25.5 40 -85.5 40q-54 0 -85 -39.5t-36 -88.5h231q1 48 -24.5 88zM295 -96.5q16 -16.5 16 -41.5q0 -24 -16 -41t-41 -17q-24 0 -40 17t-16 41q0 25 16.5 41.5t41.5 16.5q23 0 39 -16.5z" />
    <glyph glyph-name="uni1EC8" unicode="&#x1ec8;" horiz-adv-x="254" 
d="M131 766q11 12 16 20.5t5 19.5q0 14 -9 22.5t-23 8.5q-26 0 -48 -35l-39 23q37 71 107 71q37 0 62.5 -22t25.5 -54q0 -22 -9 -36.5t-28 -32.5q-25 -23 -36 -43l-54 14q8 22 30 44zM182 0h-109v674h109v-674z" />
    <glyph glyph-name="uni1EC9" unicode="&#x1ec9;" horiz-adv-x="247" 
d="M117 592q13 14 19 23.5t6 22.5q0 15 -9 24t-23 9q-25 0 -47 -34l-39 23q35 71 105 71q38 0 64 -22.5t26 -56.5q0 -24 -10.5 -40.5t-31.5 -37.5q-25 -25 -35 -45l-56 13q6 23 31 50zM69 486h109v-486h-109v486z" />
    <glyph glyph-name="uni1ECA" unicode="&#x1eca;" horiz-adv-x="254" 
d="M182 0h-109v674h109v-674zM88.5 -176q-16.5 17 -16.5 40t16.5 39.5t40.5 16.5q23 0 38.5 -16.5t15.5 -39.5t-15.5 -40t-38.5 -17q-24 0 -40.5 17z" />
    <glyph glyph-name="uni1ECB" unicode="&#x1ecb;" horiz-adv-x="247" 
d="M169 666.5q17 -17.5 18 -44.5q0 -26 -18 -44t-47 -18q-27 0 -44.5 18t-17.5 44q0 27 18 44.5t46 17.5t45 -17.5zM69 486h109v-486h-109v486zM164 -96.5q16 -16.5 16 -41.5q0 -24 -16 -41t-41 -17q-24 0 -40 17t-16 41q0 25 16.5 41.5t41.5 16.5q23 0 39 -16.5z" />
    <glyph glyph-name="uni1ECC" unicode="&#x1ecc;" horiz-adv-x="698" 
d="M517 641q70 -44 107.5 -121.5t37.5 -175.5q0 -111 -41.5 -191.5t-114 -122t-163.5 -41.5t-161 43.5t-108 121.5t-38 177q0 104 40.5 184.5t112.5 125t165 44.5t163 -44zM242 561.5q-45 -35.5 -68 -95t-23 -132.5q0 -71 24 -129.5t68.5 -93t105.5 -34.5q62 0 106.5 34.5
t68 94.5t23.5 134q0 67 -22.5 125.5t-67 95t-107.5 36.5t-108 -35.5zM309.5 -176q-16.5 17 -16.5 40t17 39.5t41 16.5q22 0 38 -16.5t16 -39.5t-16 -40t-39 -17q-24 0 -40.5 17z" />
    <glyph glyph-name="uni1ECD" unicode="&#x1ecd;" horiz-adv-x="558" 
d="M408 465.5q54 -31.5 84 -88.5t30 -130q0 -85 -35 -143.5t-91.5 -86.5t-120.5 -28q-68 0 -122.5 30.5t-85.5 87t-31 132.5q0 79 32 137.5t88 89.5t127 31t125 -31.5zM181.5 365.5q-33.5 -51.5 -33.5 -123.5q0 -75 36.5 -124t94.5 -49q38 0 67.5 22.5t46.5 62.5t17 90
q0 42 -13.5 82t-43 65.5t-72.5 25.5q-66 0 -99.5 -51.5zM319 -96.5q16 -16.5 16 -41.5q0 -24 -16 -41t-41 -17q-24 0 -40 17t-16 41q0 25 16.5 41.5t41.5 16.5q23 0 39 -16.5z" />
    <glyph glyph-name="uni1ECE" unicode="&#x1ece;" horiz-adv-x="698" 
d="M352 766q11 11 16.5 19.5t5.5 20.5q0 14 -9.5 22.5t-23.5 8.5q-24 0 -48 -35l-38 23q36 71 106 71q37 0 62.5 -22t25.5 -54q0 -22 -9 -36.5t-28 -33.5q-24 -22 -35 -42l-55 14q8 20 30 44zM517 641q70 -44 107.5 -121.5t37.5 -175.5q0 -111 -41.5 -191.5t-114 -122
t-163.5 -41.5t-161 43.5t-108 121.5t-38 177q0 104 40.5 184.5t112.5 125t165 44.5t163 -44zM242 561.5q-45 -35.5 -68 -95t-23 -132.5q0 -71 24 -129.5t68.5 -93t105.5 -34.5q62 0 106.5 34.5t68 94.5t23.5 134q0 67 -22.5 125.5t-67 95t-107.5 36.5t-108 -35.5z" />
    <glyph glyph-name="uni1ECF" unicode="&#x1ecf;" horiz-adv-x="558" 
d="M272 592q13 14 19 23.5t6 22.5q0 15 -9 24t-23 9q-25 0 -47 -34l-39 23q35 71 105 71q38 0 64 -22.5t26 -56.5q0 -24 -10.5 -40.5t-31.5 -37.5q-25 -25 -35 -45l-56 13q6 23 31 50zM408 465.5q54 -31.5 84 -88.5t30 -130q0 -85 -35 -143.5t-91.5 -86.5t-120.5 -28
q-68 0 -122.5 30.5t-85.5 87t-31 132.5q0 79 32 137.5t88 89.5t127 31t125 -31.5zM181.5 365.5q-33.5 -51.5 -33.5 -123.5q0 -75 36.5 -124t94.5 -49q38 0 67.5 22.5t46.5 62.5t17 90q0 42 -13.5 82t-43 65.5t-72.5 25.5q-66 0 -99.5 -51.5z" />
    <glyph glyph-name="uni1ED0" unicode="&#x1ed0;" horiz-adv-x="698" 
d="M499 797h-58l81 108h103zM489 710h-79l-52 68h-2l-51 -68h-78l92 117h77zM517 641q70 -44 107.5 -121.5t37.5 -175.5q0 -111 -41.5 -191.5t-114 -122t-163.5 -41.5t-161 43.5t-108 121.5t-38 177q0 104 40.5 184.5t112.5 125t165 44.5t163 -44zM242 561.5
q-45 -35.5 -68 -95t-23 -132.5q0 -71 24 -129.5t68.5 -93t105.5 -34.5q62 0 106.5 34.5t68 94.5t23.5 134q0 67 -22.5 125.5t-67 95t-107.5 36.5t-108 -35.5z" />
    <glyph glyph-name="uni1ED1" unicode="&#x1ed1;" horiz-adv-x="558" 
d="M438 645h-59l70 138h94zM410 550h-77l-49 92h-2l-49 -92h-75l86 146h79zM408 465.5q54 -31.5 84 -88.5t30 -130q0 -85 -35 -143.5t-91.5 -86.5t-120.5 -28q-68 0 -122.5 30.5t-85.5 87t-31 132.5q0 79 32 137.5t88 89.5t127 31t125 -31.5zM181.5 365.5
q-33.5 -51.5 -33.5 -123.5q0 -75 36.5 -124t94.5 -49q38 0 67.5 22.5t46.5 62.5t17 90q0 42 -13.5 82t-43 65.5t-72.5 25.5q-66 0 -99.5 -51.5z" />
    <glyph glyph-name="uni1ED2" unicode="&#x1ed2;" horiz-adv-x="698" 
d="M558 780h-61l-113 108h105zM485 710h-79l-52 68h-2l-52 -68h-77l92 117h77zM517 641q70 -44 107.5 -121.5t37.5 -175.5q0 -111 -41.5 -191.5t-114 -122t-163.5 -41.5t-161 43.5t-108 121.5t-38 177q0 104 40.5 184.5t112.5 125t165 44.5t163 -44zM242 561.5
q-45 -35.5 -68 -95t-23 -132.5q0 -71 24 -129.5t68.5 -93t105.5 -34.5q62 0 106.5 34.5t68 94.5t23.5 134q0 67 -22.5 125.5t-67 95t-107.5 36.5t-108 -35.5z" />
    <glyph glyph-name="uni1ED3" unicode="&#x1ed3;" horiz-adv-x="558" 
d="M481 645h-60l-97 138h91zM410 550h-77l-48 92h-3l-48 -92h-75l86 146h78zM408 465.5q54 -31.5 84 -88.5t30 -130q0 -85 -35 -143.5t-91.5 -86.5t-120.5 -28q-68 0 -122.5 30.5t-85.5 87t-31 132.5q0 79 32 137.5t88 89.5t127 31t125 -31.5zM181.5 365.5
q-33.5 -51.5 -33.5 -123.5q0 -75 36.5 -124t94.5 -49q38 0 67.5 22.5t46.5 62.5t17 90q0 42 -13.5 82t-43 65.5t-72.5 25.5q-66 0 -99.5 -51.5z" />
    <glyph glyph-name="uni1ED4" unicode="&#x1ed4;" horiz-adv-x="698" 
d="M500 811q11 11 16.5 19.5t5.5 20.5q0 13 -9.5 22.5t-23.5 9.5q-24 0 -48 -37l-36 22q34 67 101 67q35 0 58.5 -21t23.5 -52q0 -20 -8 -32.5t-26 -30.5q-25 -25 -36 -44l-47 13q7 19 29 43zM488 710h-80l-51 68h-2l-51 -68h-78l92 117h77zM517 641q70 -44 107.5 -121.5
t37.5 -175.5q0 -111 -41.5 -191.5t-114 -122t-163.5 -41.5t-161 43.5t-108 121.5t-38 177q0 104 40.5 184.5t112.5 125t165 44.5t163 -44zM242 561.5q-45 -35.5 -68 -95t-23 -132.5q0 -71 24 -129.5t68.5 -93t105.5 -34.5q62 0 106.5 34.5t68 94.5t23.5 134
q0 67 -22.5 125.5t-67 95t-107.5 36.5t-108 -35.5z" />
    <glyph glyph-name="uni1ED5" unicode="&#x1ed5;" horiz-adv-x="558" 
d="M417 689q11 13 15.5 20.5t4.5 18.5q0 13 -9 22t-23 9q-23 0 -45 -35l-37 23q34 67 102 67q34 0 58.5 -22t24.5 -52q0 -21 -8.5 -34t-26.5 -30q-9 -9 -18.5 -19.5t-16.5 -22.5l-50 12q8 22 29 43zM405 550h-77l-48 92h-2l-49 -92h-75l86 146h78zM408 465.5
q54 -31.5 84 -88.5t30 -130q0 -85 -35 -143.5t-91.5 -86.5t-120.5 -28q-68 0 -122.5 30.5t-85.5 87t-31 132.5q0 79 32 137.5t88 89.5t127 31t125 -31.5zM181.5 365.5q-33.5 -51.5 -33.5 -123.5q0 -75 36.5 -124t94.5 -49q38 0 67.5 22.5t46.5 62.5t17 90q0 42 -13.5 82
t-43 65.5t-72.5 25.5q-66 0 -99.5 -51.5z" />
    <glyph glyph-name="uni1ED6" unicode="&#x1ed6;" horiz-adv-x="698" 
d="M242.5 914.5q19.5 27.5 53.5 27.5q16 0 29.5 -5t33.5 -16q5 -2 19 -9.5t24 -7.5q13 0 19.5 9t7.5 32h54q3 -102 -72 -102q-16 0 -29 5t-34 16l-14 7t-16.5 7t-12.5 2q-22 0 -25 -39h-56q-1 46 18.5 73.5zM494 710h-84l-59 67h-2l-60 -67h-82l102 117h82zM517 641
q70 -44 107.5 -121.5t37.5 -175.5q0 -111 -41.5 -191.5t-114 -122t-163.5 -41.5t-161 43.5t-108 121.5t-38 177q0 104 40.5 184.5t112.5 125t165 44.5t163 -44zM242 561.5q-45 -35.5 -68 -95t-23 -132.5q0 -71 24 -129.5t68.5 -93t105.5 -34.5q62 0 106.5 34.5t68 94.5
t23.5 134q0 67 -22.5 125.5t-67 95t-107.5 36.5t-108 -35.5z" />
    </font>
</defs>
</svg>
